<?xml version="1.0" encoding="utf-8"?>
<!-- Generator: Adobe Illustrator 19.2.1, SVG Export Plug-In . SVG Version: 6.00 Build 0)  -->
<svg version="1.1" id="Layer_1" xmlns="http://www.w3.org/2000/svg" xmlns:xlink="http://www.w3.org/1999/xlink" x="0px" y="0px"
	 viewBox="0 0 595.3 773.3" style="enable-background:new 0 0 595.3 773.3;" xml:space="preserve">
<style type="text/css">
	.st0{fill:#414042;}
	.st1{fill:#58595B;}
	.st2{fill:#808285;}
</style>
<g>
	<path class="st0" d="M560.9,0H34.5C15.7,0,0.2,15.5,0.2,34.3V739c0,18.9,15.5,34.3,34.3,34.3h526.4c18.9,0,34.3-15.4,34.3-34.3
		V34.3C595.2,15.5,579.8,0,560.9,0z M537.5,707.6H57.9V65.8h479.6V707.6z"/>
	<path class="st1" d="M305.4,35.3c0,4.2-3.4,7.6-7.6,7.6c-4.2,0-7.6-3.4-7.6-7.6c0-4.2,3.4-7.6,7.6-7.6
		C301.9,27.7,305.4,31.1,305.4,35.3z"/>
	<path class="st2" d="M311.1,738.1c0,7.4-6,13.4-13.3,13.4c-7.4,0-13.4-6-13.4-13.4c0-7.4,6-13.4,13.4-13.4
		C305.1,724.7,311.1,730.7,311.1,738.1z"/>
</g>
</svg>
