<?xml version="1.0" encoding="iso-8859-1"?>
<!-- Generator: Adobe Illustrator 19.0.0, SVG Export Plug-In . SVG Version: 6.00 Build 0)  -->
<svg version="1.1" id="Layer_1" xmlns="http://www.w3.org/2000/svg" xmlns:xlink="http://www.w3.org/1999/xlink" x="0px" y="0px"
	 viewBox="-348 150 50 50" style="enable-background:new -348 150 50 50;" xml:space="preserve">
<polygon id="XMLID_19_" style="fill:#FFFFFF;" points="-305.333,195.322 -336.167,195.322 -336.167,154.678 -310.939,154.678 
	-305.333,160.284 "/>
<polyline id="XMLID_18_" style="fill:none;stroke:#747476;stroke-width:0.7;stroke-miterlimit:10;" points="-310.939,154.678 
	-310.939,160.284 -305.333,160.284 "/>
<polygon id="XMLID_17_" style="fill:none;stroke:#747476;stroke-width:0.7;stroke-miterlimit:10;" points="-310.939,154.678 
	-305.333,160.284 -305.333,195.322 -336.167,195.322 -336.167,154.678 "/>
<polyline id="XMLID_15_" style="fill:none;stroke:#747476;stroke-width:0.7;stroke-miterlimit:10;" points="-327.057,163.292 
	-329.86,166.095 -331.261,164.693 "/>
<polyline id="XMLID_13_" style="fill:none;stroke:#747476;stroke-width:0.7;stroke-miterlimit:10;" points="-327.057,168.701 
	-329.86,171.504 -331.261,170.102 "/>
<polyline id="XMLID_11_" style="fill:none;stroke:#747476;stroke-width:0.7;stroke-miterlimit:10;" points="-327.057,174.11 
	-329.86,176.913 -331.261,175.511 "/>
<line id="XMLID_10_" style="fill:none;stroke:#747476;stroke-width:0.7;stroke-miterlimit:10;" x1="-322.852" y1="164.992" x2="-308.837" y2="164.992"/>
<line id="XMLID_6_" style="fill:none;stroke:#747476;stroke-width:0.7;stroke-miterlimit:10;" x1="-322.852" y1="170.205" x2="-311.64" y2="170.205"/>
<line id="XMLID_5_" style="fill:none;stroke:#747476;stroke-width:0.7;stroke-miterlimit:10;" x1="-322.852" y1="174.811" x2="-308.837" y2="174.811"/>
<polyline id="XMLID_3_" style="fill:none;stroke:#747476;stroke-width:0.7;stroke-miterlimit:10;" points="-327.057,179.11 
	-329.86,181.913 -331.261,180.511 "/>
<line id="XMLID_2_" style="fill:none;stroke:#747476;stroke-width:0.7;stroke-miterlimit:10;" x1="-322.852" y1="179.811" x2="-308.837" y2="179.811"/>
<polyline id="XMLID_7_" style="fill:none;stroke:#747476;stroke-width:0.7;stroke-miterlimit:10;" points="-327.057,184.11 
	-329.86,186.913 -331.261,185.511 "/>
<line id="XMLID_4_" style="fill:none;stroke:#747476;stroke-width:0.7;stroke-miterlimit:10;" x1="-322.852" y1="184.811" x2="-308.837" y2="184.811"/>
</svg>
