<?xml version="1.0" encoding="iso-8859-1"?>
<!-- Generator: Adobe Illustrator 19.0.0, SVG Export Plug-In . SVG Version: 6.00 Build 0)  -->
<svg version="1.1" id="Layer_1" xmlns="http://www.w3.org/2000/svg" xmlns:xlink="http://www.w3.org/1999/xlink" x="0px" y="0px"
	 viewBox="-348 150 50 50" style="enable-background:new -348 150 50 50;" xml:space="preserve">
<g id="XMLID_2_">
	<path id="XMLID_3_" style="fill:#FFFFFF;stroke:#737475;stroke-width:0.7;stroke-miterlimit:10;" d="M-322.997,152.872
		L-345,169.299v26.124h44v-26.124L-322.997,152.872z"/>
</g>
<line id="XMLID_1_" style="fill:none;stroke:#737475;stroke-width:0.7;stroke-miterlimit:10;" x1="-345" y1="169.299" x2="-301" y2="195.422"/>
<line id="XMLID_5_" style="fill:none;stroke:#737475;stroke-width:0.7;stroke-miterlimit:10;" x1="-345" y1="195.422" x2="-301" y2="169.299"/>
<g id="XMLID_6_">
	<path id="XMLID_7_" style="fill:#737475;" d="M-320.843,172.646c-0.974,0.513-1.964,0.707-3.149,0.707
		c-2.901,0-5.359-2.122-5.359-5.518c0-3.643,2.53-6.792,6.456-6.792c3.078,0,5.146,2.158,5.146,5.112
		c0,2.653-1.485,4.209-3.148,4.209c-0.706,0-1.361-0.477-1.308-1.556h-0.072c-0.618,1.043-1.431,1.556-2.493,1.556
		c-1.026,0-1.91-0.831-1.91-2.228c0-2.193,1.733-4.192,4.191-4.192c0.762,0,1.433,0.159,1.894,0.372l-0.602,3.201
		c-0.265,1.344-0.053,1.963,0.53,1.981c0.902,0.017,1.91-1.185,1.91-3.237c0-2.565-1.538-4.404-4.279-4.404
		c-2.883,0-5.306,2.281-5.306,5.872c0,2.954,1.928,4.775,4.546,4.775c1.008,0,1.946-0.212,2.671-0.619L-320.843,172.646z
		 M-321.817,165.006c-0.177-0.053-0.478-0.124-0.884-0.124c-1.557,0-2.813,1.468-2.813,3.183c0,0.778,0.39,1.344,1.167,1.344
		c1.026,0,1.964-1.309,2.158-2.405L-321.817,165.006z"/>
</g>
</svg>
