<?xml version="1.0" encoding="iso-8859-1"?>
<!-- Generator: Adobe Illustrator 19.0.0, SVG Export Plug-In . SVG Version: 6.00 Build 0)  -->
<svg version="1.1" id="Layer_1" xmlns="http://www.w3.org/2000/svg" xmlns:xlink="http://www.w3.org/1999/xlink" x="0px" y="0px"
	 viewBox="-201 87 50 50" style="enable-background:new -201 87 50 50;" xml:space="preserve">
<polygon style="fill:#FFFFFF;" points="-158.875,134.241 -194.667,134.241 -194.667,89.093 -165.383,89.093 -158.875,95.32 "/>
<polyline style="fill:none;stroke:#727374;stroke-width:0.7;stroke-miterlimit:10;" points="-165.102,89.093 -165.102,95.32 
	-158.875,95.32 "/>
<polygon style="fill:none;stroke:#727374;stroke-width:0.7;stroke-miterlimit:10;" points="-158.875,95.32 -165.383,89.093 
	-194.667,89.093 -194.667,134.241 -158.875,134.241 "/>
<line style="fill:none;stroke:#727374;stroke-width:0.7;stroke-miterlimit:10;" x1="-183.006" y1="120.229" x2="-174.443" y2="120.229"/>
<line style="fill:none;stroke:#727374;stroke-width:0.7;stroke-miterlimit:10;" x1="-179.892" y1="126.456" x2="-172.886" y2="126.456"/>
<line style="fill:none;stroke:#727374;stroke-width:0.7;stroke-miterlimit:10;" x1="-171.33" y1="126.456" x2="-162.767" y2="126.456"/>
<line style="fill:none;stroke:#727374;stroke-width:0.7;stroke-miterlimit:10;" x1="-189.233" y1="120.229" x2="-184.563" y2="120.229"/>
<line style="fill:none;stroke:#727374;stroke-width:0.7;stroke-miterlimit:10;" x1="-189.233" y1="123.343" x2="-176" y2="123.343"/>
<line style="fill:none;stroke:#727374;stroke-width:0.7;stroke-miterlimit:10;" x1="-189.233" y1="129.57" x2="-176" y2="129.57"/>
<line style="fill:none;stroke:#727374;stroke-width:0.7;stroke-miterlimit:10;" x1="-174.443" y1="129.57" x2="-162.767" y2="129.57"/>
<line style="fill:none;stroke:#727374;stroke-width:0.7;stroke-miterlimit:10;" x1="-189.233" y1="126.456" x2="-181.449" y2="126.456"/>
<g>
	<polygon style="fill:none;stroke:#727374;stroke-width:0.7;stroke-linecap:round;stroke-miterlimit:10;" points="-171.104,113.776 
		-168.269,113.776 -160.712,121.333 -163.546,124.167 -171.104,116.61 	"/>
	
		<circle style="fill:none;stroke:#727374;stroke-width:0.7;stroke-linecap:round;stroke-miterlimit:10;" cx="-180.551" cy="104.328" r="10.392"/>
	
		<line style="fill:none;stroke:#727374;stroke-width:0.7;stroke-linecap:round;stroke-miterlimit:10;" x1="-171.104" y1="113.776" x2="-172.993" y2="111.886"/>
	<path style="fill:none;stroke:#727374;stroke-width:0.7;stroke-miterlimit:10;" d="M-178.102,102.125
		c0,1.714-0.961,3.183-2.448,3.183s-2.448-1.469-2.448-3.183c0-1.714,0.49-2.693,2.448-2.693
		C-178.592,99.432-178.102,100.411-178.102,102.125z"/>
	<path style="fill:none;stroke:#727374;stroke-width:0.7;stroke-miterlimit:10;" d="M-179.082,104.818l3.428,1.959v0.979
		c0,0.811-0.49,1.469-0.979,1.469h-7.834c-0.49,0-0.979-0.658-0.979-1.469v-0.979l3.428-1.959"/>
</g>
</svg>
