<?xml version="1.0" encoding="iso-8859-1"?>
<!-- Generator: Adobe Illustrator 19.0.0, SVG Export Plug-In . SVG Version: 6.00 Build 0)  -->
<svg version="1.1" id="Layer_1" xmlns="http://www.w3.org/2000/svg" xmlns:xlink="http://www.w3.org/1999/xlink" x="0px" y="0px"
	 viewBox="-348 150 50 50" style="enable-background:new -348 150 50 50;" xml:space="preserve">
<path id="XMLID_17_" style="fill:#FFFFFF;" d="M-321.293,162.137l5.264,3.008v1.504c0,1.246-0.752,2.256-1.504,2.256h-12.032
	c-0.752,0-1.504-1.01-1.504-2.256v-1.504l5.264-3.008"/>
<path id="XMLID_16_" style="fill:#FFFFFF;" d="M-319.789,158.001c0,2.632-1.476,4.888-3.76,4.888s-3.76-2.256-3.76-4.888
	c0-2.632,0.752-4.136,3.76-4.136S-319.789,155.369-319.789,158.001"/>
<path id="XMLID_15_" style="fill:none;stroke:#737475;stroke-width:0.7;stroke-miterlimit:10;" d="M-319.789,158.001
	c0,2.632-1.476,4.888-3.76,4.888s-3.76-2.256-3.76-4.888c0-2.632,0.752-4.136,3.76-4.136S-319.789,155.369-319.789,158.001z"/>
<path id="XMLID_14_" style="fill:none;stroke:#737475;stroke-width:0.7;stroke-miterlimit:10;" d="M-321.293,162.137l5.264,3.008
	v1.504c0,1.246-0.752,2.256-1.504,2.256h-12.032c-0.752,0-1.504-1.01-1.504-2.256v-1.504l5.264-3.008"/>
<path id="XMLID_13_" style="fill:#FFFFFF;" d="M-335.581,187.705l5.264,3.008v1.504c0,1.246-0.752,2.256-1.504,2.256h-12.033
	c-0.752,0-1.504-1.01-1.504-2.256v-1.504l5.264-3.008"/>
<path id="XMLID_12_" style="fill:#FFFFFF;" d="M-334.077,183.569c0,2.632-1.476,4.888-3.76,4.888s-3.76-2.256-3.76-4.888
	s0.752-4.136,3.76-4.136S-334.077,180.937-334.077,183.569"/>
<path id="XMLID_11_" style="fill:none;stroke:#737475;stroke-width:0.7;stroke-miterlimit:10;" d="M-334.077,183.569
	c0,2.632-1.476,4.888-3.76,4.888s-3.76-2.256-3.76-4.888s0.752-4.136,3.76-4.136S-334.077,180.937-334.077,183.569z"/>
<path id="XMLID_10_" style="fill:none;stroke:#737475;stroke-width:0.7;stroke-miterlimit:10;" d="M-335.581,187.705l5.264,3.008
	v1.504c0,1.246-0.752,2.256-1.504,2.256h-12.033c-0.752,0-1.504-1.01-1.504-2.256v-1.504l5.264-3.008"/>
<path id="XMLID_9_" style="fill:#FFFFFF;" d="M-307.005,187.705l5.264,3.008v1.504c0,1.246-0.752,2.256-1.504,2.256h-12.032
	c-0.752,0-1.504-1.01-1.504-2.256v-1.504l5.264-3.008"/>
<path id="XMLID_8_" style="fill:#FFFFFF;" d="M-305.501,183.569c0,2.632-1.476,4.888-3.76,4.888s-3.76-2.256-3.76-4.888
	s0.752-4.136,3.76-4.136S-305.501,180.937-305.501,183.569"/>
<path id="XMLID_7_" style="fill:none;stroke:#737475;stroke-width:0.7;stroke-miterlimit:10;" d="M-305.501,183.569
	c0,2.632-1.476,4.888-3.76,4.888s-3.76-2.256-3.76-4.888s0.752-4.136,3.76-4.136S-305.501,180.937-305.501,183.569z"/>
<path id="XMLID_6_" style="fill:none;stroke:#737475;stroke-width:0.7;stroke-miterlimit:10;" d="M-307.005,187.705l5.264,3.008
	v1.504c0,1.246-0.752,2.256-1.504,2.256h-12.032c-0.752,0-1.504-1.01-1.504-2.256v-1.504l5.264-3.008"/>
<line id="XMLID_5_" style="fill:none;stroke:#737475;stroke-width:0.7;stroke-miterlimit:10;" x1="-323.549" y1="172.665" x2="-323.549" y2="178.681"/>
<line id="XMLID_4_" style="fill:none;stroke:#737475;stroke-width:0.7;stroke-miterlimit:10;" x1="-323.549" y1="178.681" x2="-329.565" y2="183.193"/>
<line id="XMLID_1_" style="fill:none;stroke:#737475;stroke-width:0.7;stroke-miterlimit:10;" x1="-323.549" y1="178.681" x2="-317.533" y2="183.193"/>
</svg>
