<?xml version="1.0" encoding="iso-8859-1"?>
<!-- Generator: Adobe Illustrator 19.0.0, SVG Export Plug-In . SVG Version: 6.00 Build 0)  -->
<svg version="1.1" id="Layer_1" xmlns="http://www.w3.org/2000/svg" xmlns:xlink="http://www.w3.org/1999/xlink" x="0px" y="0px"
	 viewBox="-201 87 50 50" style="enable-background:new -201 87 50 50;" xml:space="preserve">
<g id="Layer_1_1_">
</g>
<g id="Layer_360">
	<g>
		<g>
			<g>
				<rect x="-198.625" y="90.183" style="fill:#FFFFFF;" width="45.25" height="43.634"/>
				
					<rect x="-198.625" y="90.183" style="fill:none;stroke:#727374;stroke-width:0.7;stroke-miterlimit:10;" width="45.25" height="43.634"/>
				
					<line style="fill:none;stroke:#727374;stroke-width:0.7;stroke-miterlimit:10;" x1="-197.817" y1="96.647" x2="-154.183" y2="96.647"/>
				
					<line style="fill:none;stroke:#727374;stroke-width:0.7;stroke-miterlimit:10;" x1="-196.201" y1="93.415" x2="-194.585" y2="93.415"/>
				
					<line style="fill:none;stroke:#727374;stroke-width:0.7;stroke-miterlimit:10;" x1="-192.969" y1="93.415" x2="-191.353" y2="93.415"/>
				
					<line style="fill:none;stroke:#727374;stroke-width:0.7;stroke-miterlimit:10;" x1="-189.737" y1="93.415" x2="-188.121" y2="93.415"/>
				
					<line style="fill:none;stroke:#727374;stroke-width:0.7;stroke-miterlimit:10;" x1="-185.696" y1="90.991" x2="-185.696" y2="95.839"/>
				
					<line style="fill:none;stroke:#727374;stroke-width:0.7;stroke-miterlimit:10;" x1="-183.272" y1="93.415" x2="-155.799" y2="93.415"/>
				<g>
					
						<rect x="-194.585" y="100.688" style="fill:none;stroke:#727374;stroke-width:0.7;stroke-miterlimit:10;" width="37.17" height="6.354"/>
					
						<line style="fill:none;stroke:#727374;stroke-width:0.7;stroke-miterlimit:10;" x1="-157.415" y1="128.969" x2="-170.344" y2="128.969"/>
					
						<line style="fill:none;stroke:#727374;stroke-width:0.7;stroke-miterlimit:10;" x1="-157.415" y1="125.737" x2="-170.344" y2="125.737"/>
					
						<line style="fill:none;stroke:#727374;stroke-width:0.7;stroke-miterlimit:10;" x1="-181.656" y1="128.969" x2="-194.585" y2="128.969"/>
					
						<line style="fill:none;stroke:#727374;stroke-width:0.7;stroke-miterlimit:10;" x1="-181.656" y1="125.737" x2="-194.585" y2="125.737"/>
					
						<rect x="-194.585" y="110.384" style="fill:none;stroke:#727374;stroke-width:0.7;stroke-miterlimit:10;" width="37.17" height="12.929"/>
				</g>
			</g>
			<g>
				<path style="fill:#FFFFFF;" d="M-164.75,112c0,6.212-5.036,11.25-11.25,11.25s-11.25-5.038-11.25-11.25
					c0-6.213,5.036-11.25,11.25-11.25S-164.75,105.787-164.75,112z"/>
				<path style="fill:none;stroke:#727374;stroke-width:0.7;stroke-miterlimit:10;" d="M-164.75,112
					c0,6.212-5.036,11.25-11.25,11.25s-11.25-5.038-11.25-11.25c0-6.213,5.036-11.25,11.25-11.25S-164.75,105.787-164.75,112z"/>
				<polyline style="fill:none;stroke:#727374;stroke-width:0.7;stroke-linejoin:round;stroke-miterlimit:10;" points="
					-170.808,108.538 -177.731,115.462 -181.192,112 				"/>
			</g>
		</g>
	</g>
</g>
<g id="Layer_1_2_">
</g>
</svg>
