<?xml version="1.0" encoding="iso-8859-1"?>
<!-- Generator: Adobe Illustrator 19.0.0, SVG Export Plug-In . SVG Version: 6.00 Build 0)  -->
<svg version="1.1" id="Layer_1" xmlns="http://www.w3.org/2000/svg" xmlns:xlink="http://www.w3.org/1999/xlink" x="0px" y="0px"
	 viewBox="-348 150 50 50" style="enable-background:new -348 150 50 50;" xml:space="preserve">
<g id="Layer_1_1_">
</g>
<rect id="XMLID_12_" x="-344.246" y="154.629" style="fill:#FFFFFF;stroke:#727374;stroke-width:0.7;stroke-miterlimit:10;" width="42.25" height="40.741"/>
<rect id="XMLID_11_" x="-344.246" y="154.629" style="fill:none;stroke:#727374;stroke-width:0.7;stroke-miterlimit:10;" width="42.25" height="40.741"/>
<line id="XMLID_10_" style="fill:none;stroke:#727374;stroke-width:0.7;stroke-miterlimit:10;" x1="-344.246" y1="160.665" x2="-301.996" y2="160.665"/>
<line id="XMLID_9_" style="fill:none;stroke:#727374;stroke-width:0.7;stroke-miterlimit:10;" x1="-341.982" y1="157.647" x2="-340.473" y2="157.647"/>
<line id="XMLID_8_" style="fill:none;stroke:#727374;stroke-width:0.7;stroke-miterlimit:10;" x1="-338.964" y1="157.647" x2="-337.455" y2="157.647"/>
<line id="XMLID_7_" style="fill:none;stroke:#727374;stroke-width:0.7;stroke-miterlimit:10;" x1="-335.946" y1="157.647" x2="-334.437" y2="157.647"/>
<line id="XMLID_6_" style="fill:none;stroke:#727374;stroke-width:0.7;stroke-miterlimit:10;" x1="-332.174" y1="154.917" x2="-332.174" y2="160.542"/>
<line id="XMLID_5_" style="fill:none;stroke:#727374;stroke-width:0.7;stroke-miterlimit:10;" x1="-329.911" y1="157.647" x2="-304.259" y2="157.647"/>
<line id="XMLID_17_" style="fill:none;stroke:#737475;stroke-width:0.7;stroke-linecap:round;stroke-miterlimit:10;" x1="-338.719" y1="183.98" x2="-326.807" y2="172.067"/>
<line id="XMLID_16_" style="fill:none;stroke:#737475;stroke-width:0.7;stroke-linecap:round;stroke-miterlimit:10;" x1="-317.873" y1="181.002" x2="-306.953" y2="170.082"/>
<line id="XMLID_15_" style="fill:none;stroke:#737475;stroke-width:0.7;stroke-linecap:round;stroke-miterlimit:10;" x1="-326.807" y1="172.067" x2="-317.873" y2="181.002"/>
<path id="XMLID_14_" style="fill:#FFFFFF;stroke:#727374;stroke-width:0.7;stroke-miterlimit:10;" d="M-325.225,172.067
	c0,0.873-0.709,1.582-1.582,1.582c-0.873,0-1.582-0.709-1.582-1.582s0.709-1.582,1.582-1.582
	C-325.934,170.485-325.225,171.194-325.225,172.067"/>
<path id="XMLID_2_" style="fill:#FFFFFF;stroke:#727374;stroke-width:0.7;stroke-miterlimit:10;" d="M-337.138,183.98
	c0,0.873-0.709,1.582-1.582,1.582c-0.873,0-1.582-0.709-1.582-1.582s0.709-1.582,1.582-1.582
	C-337.846,182.398-337.138,183.106-337.138,183.98"/>
<path id="XMLID_13_" style="fill:#FFFFFF;stroke:#727374;stroke-width:0.7;stroke-miterlimit:10;" d="M-316.25,180.002
	c0,0.896-0.727,1.623-1.623,1.623c-0.896,0-1.623-0.727-1.623-1.623s0.727-1.623,1.623-1.623
	C-316.977,178.379-316.25,179.106-316.25,180.002"/>
<path id="XMLID_4_" style="fill:#FFFFFF;stroke:#727374;stroke-width:0.7;stroke-miterlimit:10;" d="M-305.375,170.082
	c0,0.871-0.707,1.578-1.578,1.578s-1.578-0.707-1.578-1.578s0.707-1.578,1.578-1.578S-305.375,169.211-305.375,170.082"/>
</svg>
