<?xml version="1.0" ?><!DOCTYPE svg  PUBLIC '-//W3C//DTD SVG 1.1//EN'  'http://www.w3.org/Graphics/SVG/1.1/DTD/svg11.dtd'><svg enable-background="new 0 0 32 32" height="32px" id="fill_x5F_02" version="1.1" viewBox="0 0 32 32" width="32px" xml:space="preserve" xmlns="http://www.w3.org/2000/svg" xmlns:xlink="http://www.w3.org/1999/xlink"><path clip-rule="evenodd" d="M29.948,11.906l-5.585,5.585l-9.899-9.899l5.585-5.584  c2.733-2.734,7.166-2.734,9.899,0C32.682,4.74,32.682,9.173,29.948,11.906z M25.413,21.369c-0.781,0.781-2.048,0.781-2.829,0  l-2.473-2.474L8.524,30.482c-0.976,0.975-2.253,1.463-3.531,1.463L5,31.955H2c-1.104,0-2-0.895-2-2V26.98  c-0.008-1.288,0.477-2.579,1.46-3.562l11.587-11.587L10.58,9.365c-0.781-0.781-0.781-2.048,0-2.829c0.781-0.78,2.048-0.78,2.829,0  L25.413,18.54C26.194,19.321,26.194,20.588,25.413,21.369z M16.5,15.443c-0.391-0.391-1.023-0.391-1.413,0L4.285,26.244  c-0.39,0.391-0.39,1.022,0,1.412c0.391,0.391,1.023,0.391,1.413,0L16.5,16.855C16.89,16.465,16.89,15.833,16.5,15.443z" fill="#010101" fill-rule="evenodd"/></svg>