<?xml version="1.0" standalone="no"?>
<!DOCTYPE svg PUBLIC "-//W3C//DTD SVG 1.1//EN" "http://www.w3.org/Graphics/SVG/1.1/DTD/svg11.dtd" >
<svg xmlns="http://www.w3.org/2000/svg">
<metadata>Generated by IcoMoon</metadata>
<defs>
<font id="convertpro" horiz-adv-x="1024">
<font-face units-per-em="1024" ascent="960" descent="-64" />
<missing-glyph horiz-adv-x="1024" />
<glyph unicode="&#x20;" horiz-adv-x="512" d="" />
<glyph unicode="&#xe900;" glyph-name="arrow" d="M285.395-58.94c-13.553 0-27.166 5.21-37.436 15.631-20.39 20.781-20.119 54.061 0.542 74.481l409.419 403.456-410.473 426.707c-20.119 20.781-19.426 54.091 1.506 74.33 20.932 19.998 54.061 19.456 74.33-1.506l482.364-501.579-483.358-476.461c-10.27-9.999-23.552-15.059-36.894-15.059z" />
<glyph unicode="&#xe901;" glyph-name="button" d="M902.963 744.858h-781.85c-14.131 0-25.6-13.261-25.6-29.568v-534.528c0-16.41 11.469-29.594 25.6-29.594h781.747c14.157 0 25.6 13.235 25.6 29.594v534.502c0.102 16.333-11.443 29.594-25.498 29.594zM881.741 198.938h-739.482v498.125h739.507v-498.125zM712.269 475.878l-120.653 97.818c-11.008 8.883-27.11 7.219-35.994-3.763-8.934-10.982-7.219-27.11 3.738-36.019l64.538-52.326h-296.038c-14.131 0-25.6-11.469-25.6-25.6s11.469-25.6 25.6-25.6h306.509l-70.067-70.093c-10.010-10.010-10.010-26.189 0-36.198 4.992-4.992 11.546-7.501 18.099-7.501s13.107 2.509 18.099 7.501l113.766 113.792c5.12 5.12 7.859 12.186 7.475 19.43-0.41 7.245-3.84 13.978-9.472 18.56z" />
<glyph unicode="&#xe902;" glyph-name="clone" d="M703.104 915.2h-509.491c-46.899 0-85.043-38.195-85.043-85.043v-594.509h85.043v594.509h509.491v85.043zM830.618 745.37h-467.2c-46.669 0-85.018-38.374-85.018-85.043v-594.509c0-46.643 38.374-85.018 85.018-85.018h467.2c46.643 0 84.813 38.374 84.813 85.018v594.509c0 46.669-38.144 85.043-84.813 85.043v0zM830.618 65.818h-467.2v594.509h467.2v-594.509z" />
<glyph unicode="&#xe903;" glyph-name="connect" d="M73.754 655.206c-10.726-11.213-10.598-29.952 0.026-41.088l169.267-180.070c10.726-11.366 30.618-13.978 41.37-2.611 10.752 11.341 12.058 28.39 1.306 39.782l-126.336 134.374h771.328c15.206 0 27.52 13.005 27.52 29.082 0 16.051-12.314 29.082-27.52 29.082h-771.302l127.539 135.68c10.752 11.315 12.518 28.365 1.766 39.731-10.726 11.341-31.642 10.906-42.394-0.461l-172.57-183.501zM73.754 655.206M950.246 255.795l-172.57 183.475c-10.752 11.341-31.667 11.802-42.394 0.461-10.752-11.341-9.011-28.39 1.741-39.731l127.565-135.68h-771.302c-15.181 0-27.52-13.030-27.52-29.082 0-16.077 12.339-29.082 27.52-29.082h771.328l-126.336-134.374c-10.752-11.366-9.446-28.416 1.306-39.782s30.643-8.781 41.37 2.611l169.267 180.070c10.624 11.162 10.752 29.926 0.026 41.114v0zM950.246 255.795" />
<glyph unicode="&#xe904;" glyph-name="cookies" d="M565.248 786.816c-186.778 0-338.662-152.090-338.662-338.867v-1.075l-67.072 100.992c-6.579 9.933-20.019 12.646-29.926 6.093-9.933-6.579-12.646-20.045-6.093-29.952l97.306-146.432c3.507-5.274 9.114-8.653 15.386-9.498 0.947-0.154 1.741-0.154 2.688-0.154 5.299 0 10.419 1.946 14.413 5.683l135.245 121.779c8.806 8.013 9.6 21.606 1.613 30.566-8.013 8.806-21.581 9.6-30.541 1.613l-89.83-81.126v1.562c0 163.149 132.582 295.654 295.475 295.654 162.944 0 295.629-132.506 295.629-295.654 0-163.021-132.531-295.603-295.475-295.603-78.899 0-153.139 30.72-208.87 86.63-8.474 8.474-22.093 8.474-30.541 0-8.525-8.499-8.525-22.144 0-30.566 64-64.026 148.992-99.226 239.411-99.226 186.675 0 338.662 151.859 338.662 338.765 0 186.931-151.987 338.816-338.816 338.816v0zM565.248 786.816" />
<glyph unicode="&#xe905;" glyph-name="elements" d="M842.47 742.4h-661.478c-37.555 0-67.686-30.080-67.686-67.558v-453.376c0-37.581 30.131-67.738 67.686-67.738h661.478c1.229 0 2.483-0.102 3.686-0.051 0.154 0 0.282-0.051 0.486-0.051 1.075 0.051 2.202 0.102 3.277 0.23 0.026 0 0.128 0 0.154 0 34.022 3.738 60.621 32.563 60.621 67.635v453.376c-0.026 37.478-30.72 67.533-68.224 67.533v0zM180.992 701.107h661.478c14.669 0 26.88-11.571 26.88-26.266v-430.899l-205.363 314.675c-3.661 5.53-9.754 8.986-16.358 9.344-6.579 0.486-13.030-2.458-17.254-7.629l-178.099-219.571-105.907 92.058c-4.275 3.635-9.754 5.248-15.334 4.966-5.581-0.486-10.624-3.2-14.157-7.552l-162.227-198.144v442.752c0 14.694 11.648 26.266 26.342 26.266v0zM180.992 195.021c-0.742 0-1.434-0.077-2.176 0-0.41 0.051-0.87 0.051-1.254 0.102l157.619 192.461 105.933-92.109c4.275-3.661 9.779-5.376 15.36-4.966 5.581 0.512 10.778 3.2 14.285 7.629l173.747 214.042 206.157-316.032c-0.563-0.205-1.075-0.333-1.638-0.486-0.205-0.051-0.461-0.128-0.64-0.179-0.41-0.128-0.717-0.179-1.101-0.23-0.538-0.128-1.075-0.179-1.613-0.307-0.282-0.026-0.512 0.077-0.717 0.077-0.794-0.128-1.664 0-2.483 0h-661.478zM427.597 460.672c57.83 0 104.832 47.027 104.832 104.883 0 57.779-47.053 104.858-104.832 104.858-57.83 0-104.858-47.027-104.858-104.858 0-57.856 47.027-104.883 104.858-104.883v0zM427.597 628.941c34.918 0 63.411-28.442 63.462-63.437 0-34.97-28.544-63.437-63.462-63.437-34.944 0-63.437 28.442-63.437 63.437s28.493 63.437 63.437 63.437v0z" />
<glyph unicode="&#xe906;" glyph-name="email" d="M836.89 705.946h-649.779c-34.176 0-61.978-28.979-61.978-64.538v-386.816c0-35.405 27.802-64.538 61.978-64.538h649.779c34.176 0 61.978 29.133 61.978 64.538v386.816c0 35.558-27.802 64.538-61.978 64.538v0zM821.504 673.664l-309.504-280.55-309.504 280.55h619.008zM165.325 231.936c-6.195 6.451-9.216 12.954-9.216 22.656v386.816c0 9.779 3.021 16.23 9.216 22.682l238.31-216.013-238.31-216.141zM202.496 222.336l225.946 203.085 83.558-74.163 83.584 74.138 225.92-203.085h-619.008zM867.917 254.566c0-9.702-3.021-16.205-9.216-22.656l-238.336 216.141 238.336 216.013c6.195-6.451 9.216-12.902 9.216-22.682v-386.816z" />
<glyph unicode="&#xe907;" glyph-name="embed" d="M629.453 795.187l-32.23 8.832c-4.122 1.382-8.218 0.922-12.186-1.306s-6.733-5.658-8.064-10.138l-193.843-670.976c-1.357-4.506-0.973-8.755 1.306-12.749 2.202-3.968 5.581-6.656 10.112-8.013l32.205-8.832c4.147-1.434 8.243-0.998 12.211 1.306 4.019 2.253 6.682 5.606 8.090 10.138l193.843 670.95c1.382 4.531 0.947 8.755-1.306 12.749-2.253 3.942-5.581 6.656-10.138 8.038v0zM338.944 664.218c0 4.454-1.715 8.448-5.222 11.93l-25.984 26.010c-3.456 3.43-7.45 5.222-11.981 5.222-4.48 0-8.474-1.766-11.93-5.222l-242.176-242.176c-3.43-3.482-5.197-7.475-5.197-11.981s1.766-8.525 5.197-11.955l242.176-242.176c3.482-3.533 7.45-5.222 11.93-5.222 4.531 0 8.525 1.69 11.981 5.222l25.984 25.958c3.482 3.507 5.222 7.475 5.222 11.955 0 4.506-1.715 8.525-5.222 11.955l-204.211 204.262 204.237 204.262c3.482 3.43 5.197 7.424 5.197 11.955v0zM982.349 459.981l-242.202 242.176c-3.507 3.43-7.424 5.222-11.93 5.222s-8.525-1.766-11.955-5.222l-25.984-26.010c-3.507-3.43-5.222-7.424-5.222-11.93 0-4.557 1.715-8.525 5.222-11.981l204.262-204.237-204.262-204.262c-3.507-3.43-5.222-7.45-5.222-11.955 0-4.48 1.715-8.448 5.222-11.955l25.984-25.958c3.43-3.533 7.45-5.222 11.955-5.222s8.422 1.69 11.93 5.222l242.202 242.176c3.482 3.43 5.197 7.45 5.197 11.955 0 4.557-1.715 8.525-5.197 11.981v0z" />
<glyph unicode="&#xe908;" glyph-name="field" d="M794.547 729.088h-335.539c-13.901 0-25.216-13.926-25.216-31.078 0-17.101 11.315-31.027 25.216-31.027h335.616c13.901 0 25.19 13.926 25.19 31.027-0.077 17.178-11.366 31.078-25.267 31.078zM794.547 479.053h-335.539c-13.901 0-25.216-13.952-25.216-31.053 0-17.152 11.315-31.053 25.216-31.053h335.616c13.901 0 25.19 13.901 25.19 31.053 0 17.101-11.366 31.053-25.267 31.053zM339.61 739.891v-83.712h-84.224v83.712h84.224zM359.347 791.091h-123.725c-17.408 0-31.462-11.443-31.462-25.6v-134.912c0-14.131 14.080-25.6 31.462-25.6h123.725c17.382 0 31.437 11.469 31.437 25.6v134.912c0.026 14.182-14.054 25.6-31.437 25.6v0zM339.61 489.856v-83.712h-84.224v83.712h84.224zM359.347 541.056h-123.725c-17.408 0-31.462-11.443-31.462-25.6v-134.938c0-14.106 14.080-25.549 31.462-25.549h123.725c17.382 0 31.437 11.443 31.437 25.549v134.938c0.026 14.131-14.054 25.6-31.437 25.6v0zM794.547 228.992h-335.539c-13.901 0-25.216-13.952-25.216-31.053 0-17.152 11.315-31.053 25.216-31.053h335.616c13.901 0 25.19 13.901 25.19 31.053 0 17.101-11.366 31.053-25.267 31.053zM339.61 239.795v-83.712h-84.224v83.712h84.224zM359.347 290.995h-123.725c-17.408 0-31.462-11.443-31.462-25.6v-134.938c0-14.106 14.080-25.549 31.462-25.549h123.725c17.382 0 31.437 11.443 31.437 25.549v134.938c0.026 14.157-14.054 25.6-31.437 25.6v0z" />
<glyph unicode="&#xe909;" glyph-name="grid" d="M153.6 806.4h195.482v-195.482h-195.482v195.482zM414.276 806.4h195.482v-195.482h-195.482v195.482zM674.884 806.4h195.516v-195.482h-195.516v195.482zM153.6 545.758h195.482v-195.482h-195.482v195.482zM414.276 545.758h195.482v-195.482h-195.482v195.482zM674.884 545.758h195.516v-195.482h-195.516v195.482zM153.6 285.116h195.482v-195.516h-195.482v195.516zM414.276 285.116h195.482v-195.516h-195.482v195.516zM674.884 285.116h195.516v-195.516h-195.516v195.516z" />
<glyph unicode="&#xe90a;" glyph-name="home" d="M512 629.325l-303.078-249.856c0-0.358-0.077-0.87-0.23-1.587-0.154-0.666-0.282-1.178-0.282-1.587v-252.979c0-9.088 3.328-16.998 10.035-23.706 6.656-6.63 14.541-10.010 23.706-10.010h202.394v202.419h134.912v-202.419h202.394c9.114 0 17.024 3.379 23.706 10.035 6.656 6.656 10.086 14.592 10.086 23.706v252.979c0 1.459-0.23 2.509-0.538 3.149l-303.104 249.856zM930.97 476.979l-115.456 95.923v157.184c0 4.915-1.587 8.96-4.659 12.109-3.174 3.149-7.245 4.762-12.16 4.762h-101.222c-4.89 0-8.96-1.613-12.134-4.762-3.149-3.149-4.685-7.194-4.685-12.109v-44.902l-128.64 107.52c-11.238 9.114-24.55 13.696-40.013 13.696s-28.8-4.582-40.038-13.722l-379.008-315.699c-3.482-2.816-5.376-6.579-5.786-11.29-0.333-4.762 0.896-8.883 3.712-12.416l32.666-39.014c2.816-3.123 6.502-5.094 11.059-5.786 4.25-0.358 8.448 0.87 12.646 3.686l364.749 304.128 364.723-304.128c2.79-2.458 6.502-3.686 11.034-3.686h1.613c4.582 0.666 8.218 2.662 11.11 5.786l32.64 39.014c2.765 3.533 4.045 7.654 3.738 12.416-0.435 4.71-2.406 8.474-5.888 11.29z" />
<glyph unicode="&#xe90b;" glyph-name="info" d="M601.882 163.456c-18.867 0-31.923 3.021-39.706 9.344-7.45 6.042-11.366 17.69-11.366 34.739 0 6.81 1.152 16.794 3.507 29.901 2.534 13.082 5.094 24.986 8.141 35.251l36.173 128.179c3.533 11.674 5.837 24.525 7.245 38.758 1.152 13.978 1.843 23.808 1.843 29.414 0 27.034-9.6 48.998-28.493 65.792-18.867 16.845-45.747 25.446-80.742 25.446-19.43 0-39.91-3.482-61.696-10.496-21.683-7.014-44.57-15.206-68.378-24.986l-9.574-39.424c6.963 2.56 15.334 5.35 25.139 8.422 9.856 2.79 19.686 4.173 28.979 4.173 19.149 0 32-3.046 38.733-9.574 6.835-6.502 10.317-17.946 10.317-34.304 0-9.114-1.152-19.149-3.302-30.362-2.099-10.726-4.89-22.4-8.141-34.765l-36.429-128.614c-3.2-13.517-5.53-25.446-6.963-36.173-1.408-10.726-2.125-21.248-2.125-31.488 0-26.394 9.574-48.358 29.158-65.357 19.43-17.306 46.925-25.958 82.176-25.958 22.938 0 42.982 3.021 60.262 9.088 17.254 6.042 40.397 14.694 69.555 26.138l9.83 39.731c-5.094-2.33-13.286-5.146-24.218-8.141-11.238-3.123-21.018-4.736-29.926-4.736zM578.739 633.139c23.808 0 44.109 7.936 61.158 23.552 16.794 15.642 25.242 34.765 25.242 57.165 0 22.221-8.448 41.37-25.242 57.242-17.050 15.59-37.35 23.552-61.158 23.552-23.603 0-44.186-7.962-61.184-23.552-16.819-15.872-25.472-35.021-25.472-57.242 0-22.426 8.678-41.549 25.472-57.165 17.024-15.616 37.606-23.552 61.184-23.552z" />
<glyph unicode="&#xe90c;" glyph-name="launch" d="M833.997 335.693c-20.326 0-24.73-15.898-24.73-36.198v-177.357l-594.099-0.512-0.538 593.024h178.406c20.301 0 39.757 3.456 39.757 23.757s-19.456 24.064-39.757 24.064h-188.954c-20.301 0-36.198-15.898-36.198-36.198v-615.706c0-20.301 15.898-36.198 36.198-36.198h615.706c20.25 0 36.147 15.898 36.147 36.198v188.339c0.154 29.491-12.314 36.787-21.939 36.787zM854.579 737.357l-1.101 3.2c-4.070 8.166-10.598 14.669-18.765 18.816l-3.302 1.382h-0.845c-3.507 1.126-7.117 1.69-10.752 1.69 0 0-305.946 0-308.173 0-10.701 0-23.45-1.331-30.771-10.138-6.17-7.424-7.373-19.405-1.741-27.418 6.784-9.677 21.786-10.24 32.512-10.24l259.584-0.358-285.184-270.618c-9.011-12.544-16.128-29.491-2.022-43.674 13.696-13.645 30.797-2.125 40.806 6.4l284.467 284.006c0 0 0.077-268.979 0-272.358-0.486-21.248 7.322-36.506 25.19-37.146 19.2-0.666 21.478 23.142 21.478 37.146v307.2c0.538 4.352-0.435 8.192-1.382 12.109z" />
<glyph unicode="&#xe90d;" glyph-name="layer" d="M143.821 629.12l356.224-148.429c3.046 0 5.914-3.046 11.878-3.046s9.011 0 11.904 3.046l356.326 148.429c11.904 5.965 17.843 14.822 17.843 26.675 0 11.904-9.011 23.808-17.843 26.829l-356.326 148.48c-2.893 0-5.939 2.893-11.904 2.893-5.939 0-8.832 0-11.878-2.893l-356.224-148.454c-11.853-5.939-17.818-14.925-17.818-26.829 0-11.878 8.832-23.757 17.818-26.701v0zM511.821 758.349l239.386-102.63-239.386-102.272-239.027 102.272 239.027 102.63zM856.371 539.981l-344.474-142.515-344.269 142.515c-20.864 8.986-41.6-5.811-41.6-26.675v-65.229c0-11.904 8.832-23.782 17.818-26.829l356.224-148.454c3.046 0 5.914-2.893 11.878-2.893s9.011 0 11.904 2.893l356.326 148.454c11.904 5.939 17.843 14.925 17.843 26.829v65.229c-0.026 20.89-20.915 35.661-41.651 26.675v0zM856.371 332.262l-344.474-142.464-344.269 142.464c-20.864 8.883-41.6-5.939-41.6-26.65v-65.434c0-11.853 8.832-23.782 17.818-26.675l356.224-148.454c3.046 0 5.914-3.046 11.878-3.046s9.011 0 11.904 3.046l356.326 148.454c11.904 5.939 17.843 14.822 17.843 26.675v65.434c-0.026 20.685-20.915 35.507-41.651 26.65v0z" />
<glyph unicode="&#xe90e;" glyph-name="minus" d="M899.251 518.4h-299.162c-10.65 0-165.555 0-176 0h-299.315c-21.197 0-35.251-14.106-35.251-35.226v-70.323c0-21.146 14.054-35.251 35.251-35.251h299.341c10.445 0 165.325 0 176 0h299.162c21.146 0 35.226 14.106 35.226 35.251v70.323c-0.026 21.12-14.106 35.226-35.251 35.226v0z" />
<glyph unicode="&#xe90f;" glyph-name="move" d="M252.365 250.035l-197.965 197.965 197.965 197.965v-152.422h214.093v214.093h-152.422l197.965 197.965 197.965-197.965h-152.448v-214.093h214.093l-0.026 152.422 198.016-197.965-197.965-197.965v152.448h-214.093v-214.093h152.448l-197.99-197.99-197.965 197.965h152.422v214.093h-214.093v-152.422z" />
<glyph unicode="&#xe910;" glyph-name="setting2" d="M591.36 836.531c25.267-5.12 49.408-12.646 72.474-22.093 23.782-9.728 46.234-21.811 67.43-35.866 9.549-6.374 12.109-18.97 5.76-28.211-0.794-1.126-1.434-2.278-2.586-3.174-9.805-10.598-14.643-24.115-14.643-37.53 0.358-13.824 5.734-27.315 16.077-37.939 10.342-10.342 24.115-15.795 37.658-15.795 13.773-0.282 27.571 4.838 38.246 14.925 8.038 7.782 20.941 7.142 28.365-0.87 0.87-0.896 1.766-1.69 2.304-2.586 14.157-21.299 26.138-44.006 36.224-67.507 9.472-23.347 16.973-48 22.093-73.267 2.304-10.957-4.838-21.555-15.821-23.859-1.050-0.256-2.304-0.256-3.456-0.256-14.566-0.614-27.827-6.63-37.555-16.717-9.549-9.702-15.283-22.963-15.283-37.888 0-14.669 5.734-28.109 15.283-37.914 9.728-9.805 22.963-16.077 37.555-16.358 11.213-0.358 19.891-9.523 19.558-20.685 0-1.51 0-2.918-0.282-4.326-5.12-25.267-12.621-49.408-22.093-72.371-10.086-23.885-22.067-46.31-36.224-67.533-5.99-9.549-18.662-11.853-27.827-5.76-1.152 0.896-2.304 1.69-3.2 2.586-10.598 9.805-24.371 14.669-37.888 14.669-13.517-0.282-27.29-5.504-37.658-16.102-10.342-10.317-15.821-24.115-16.077-37.658 0-13.773 4.838-27.546 14.925-38.17 7.782-8.013 7.501-20.685-0.538-28.442-0.896-0.87-1.766-1.664-2.918-2.304-21.299-14.054-43.648-26.138-67.533-35.866-23.219-9.805-47.693-17.229-73.242-22.451-10.88-2.022-21.478 4.941-23.501 15.821-0.358 1.152-0.614 2.304-0.614 3.456-0.282 14.669-6.63 28.186-16.358 37.658-9.805 9.446-23.322 15.206-37.888 15.206-14.925 0-28.186-5.76-37.914-15.206-9.805-9.549-16.077-22.963-16.435-37.658-0.256-10.982-9.446-19.789-20.685-19.533-1.408 0-2.842 0.256-4.326 0.538-25.267 5.197-49.408 12.365-72.371 22.17-23.782 9.728-46.49 21.837-67.507 35.866-9.472 6.374-12.032 18.662-5.76 28.211 0.614 1.152 1.51 1.946 2.304 2.816 10.086 10.701 14.925 24.474 14.669 37.888 0 13.517-5.478 27.315-15.821 37.658-10.598 10.598-24.115 15.821-37.555 16.102-13.798 0-27.674-4.864-38.272-14.95-8.038-7.782-20.941-7.424-28.723 0.614-0.87 0.87-1.408 2.022-2.022 2.816-14.054 21.299-26.419 43.75-36.147 67.533 0 0.358-0.256 0.614-0.256 1.152-9.549 22.963-16.973 47.104-21.837 72.090-2.304 10.982 4.864 21.581 15.718 23.885 1.152 0 2.304 0.256 3.456 0.256 14.669 0.282 27.93 6.63 37.376 16.358 9.728 9.83 15.462 23.322 15.462 37.914 0 14.925-5.76 28.186-15.462 37.99-9.446 9.984-22.707 16.077-37.376 16.614-11.136 0-20.070 9.446-19.789 20.429 0 1.664 0.282 2.918 0.614 4.301 5.12 25.267 12.646 49.434 22.093 72.653 9.728 23.578 22.093 46.208 36.147 67.507 6.093 9.216 18.739 11.75 27.93 5.734 1.152-0.87 2.304-1.664 3.174-2.56 10.624-10.086 24.115-14.925 37.914-14.643 13.517 0 26.957 5.453 37.658 15.795 10.342 10.624 15.744 24.115 15.744 37.939 0.358 13.414-4.608 27.315-14.925 37.888-7.424 8.038-7.168 20.941 0.87 28.723 0.896 0.896 1.766 1.408 2.918 2.304 20.941 14.080 43.648 26.138 67.507 35.866 22.963 9.472 47.718 17.229 73.267 22.093 10.88 2.278 21.478-4.864 23.501-15.718 0.358-1.178 0.358-2.33 0.614-3.482 0.256-14.669 6.63-27.93 16.358-37.376 9.805-9.472 22.963-15.462 37.914-15.462 14.643 0 28.186 5.99 37.888 15.462 9.805 9.446 16.077 22.707 16.435 37.376 0.282 11.136 9.472 20.070 20.71 19.789 1.331 0.051 2.765-0.179 4.173-0.563v0zM512.102 640.973c53.094 0 101.453-21.555 136.422-56.653 34.816-34.714 56.294-82.97 56.294-136.448 0-53.12-21.478-101.376-56.294-136.448-34.97-34.714-83.328-56.294-136.422-56.294-53.376 0-101.35 21.581-136.448 56.294-34.714 35.072-56.55 83.328-56.55 136.448 0 53.478 21.837 101.709 56.55 136.448 35.072 35.072 83.072 56.653 136.448 56.653v0zM619.827 555.597c-27.571 27.571-65.741 44.8-107.725 44.8-42.24 0-80.154-17.229-107.725-44.8s-44.544-65.485-44.544-107.725c0-41.907 16.973-80.154 44.544-107.725s65.485-44.442 107.725-44.442c41.984 0 80.154 16.87 107.725 44.442 27.546 27.571 44.518 65.818 44.518 107.725 0 42.24-16.973 80.154-44.518 107.725v0zM648.269 777.139c-14.669 6.016-29.875 11.136-45.082 15.206-4.608-15.795-13.517-30.234-25.011-41.37-16.973-16.691-40.474-27.034-66.099-27.034-25.907 0-49.126 10.342-66.099 27.034-11.75 11.136-20.326 25.574-24.934 41.37-15.539-4.070-30.49-9.165-45.158-15.206-14.925-6.374-29.261-13.261-43.034-21.274 8.038-14.694 12.032-30.771 11.75-46.874-0.282-23.834-9.472-47.718-27.571-65.741-18.381-18.381-41.984-27.571-66.099-27.904-16.077-0.282-32.179 3.712-46.848 11.802-8.038-13.773-14.925-28.186-21.222-43.136-6.093-14.669-11.213-29.594-15.283-45.056 16.077-4.608 30.234-13.261 41.446-24.755 16.614-17.229 26.957-40.474 26.957-66.355 0-25.549-10.342-48.794-26.957-66.099-11.213-11.494-25.37-20.070-41.446-24.934 4.070-14.95 8.934-29.978 14.925-44.032 0-0.538 0.358-0.87 0.358-1.152 6.272-14.925 13.158-28.979 21.222-42.752 14.669 8.013 30.746 11.75 46.848 11.469 24.115-0.282 47.718-9.446 66.099-27.571 18.125-18.125 27.29-41.984 27.571-65.818 0.256-16.102-3.712-32.461-11.75-46.848 13.798-7.962 28.109-15.206 43.034-21.197 14.669-6.016 29.619-11.213 45.158-15.539 4.608 16.077 13.158 30.464 24.934 41.702 16.973 16.614 40.192 26.957 66.099 26.957 25.626 0 49.126-10.317 66.099-26.957 11.469-11.213 20.403-25.626 25.011-41.702 15.206 4.326 30.413 9.523 45.082 15.539 14.925 5.99 29.338 13.158 42.778 21.197-7.706 14.413-11.75 30.746-11.494 46.848 0.358 23.859 9.549 47.693 27.571 65.818 18.125 18.125 41.984 27.29 65.843 27.571 16.358 0.282 32.435-3.456 46.822-11.469 8.038 13.773 15.206 27.827 21.478 42.752 6.093 14.669 11.213 29.875 15.309 45.184-16.102 4.608-30.234 13.414-41.728 24.934-16.589 17.229-26.675 40.55-26.675 66.099 0 25.882 10.086 49.126 26.675 66.355 11.494 11.52 25.626 20.147 41.728 24.755-4.070 15.462-9.19 30.387-15.309 45.312-6.272 14.669-13.414 29.107-21.478 42.854-14.413-8.013-30.464-12.109-46.822-11.802-23.885 0.333-47.718 9.523-65.843 27.904-18.022 18.022-27.213 41.907-27.571 65.741-0.256 16.077 3.789 32.154 11.494 46.874-13.44 8.038-27.853 15.206-42.778 21.299v0z" />
<glyph unicode="&#xe911;" glyph-name="clone2" d="M703.104 915.2h-509.491c-46.899 0-85.043-38.195-85.043-85.043v-594.509h85.043v594.509h509.491v85.043zM830.618 745.37h-467.2c-46.669 0-85.018-38.374-85.018-85.043v-594.509c0-46.643 38.374-85.018 85.018-85.018h467.2c46.643 0 84.813 38.374 84.813 85.018v594.509c0 46.669-38.144 85.043-84.813 85.043v0zM830.618 65.818h-467.2v594.509h467.2v-594.509z" />
<glyph unicode="&#xe912;" glyph-name="checkmark" d="M864 832l-480-480-224 224-160-160 384-384 640 640z" />
<glyph unicode="&#xe913;" glyph-name="pages" d="M901.248 702.49h-151.706v134.682c0 19.61-15.718 35.354-35.302 35.354h-591.539c-19.584 0-35.328-15.77-35.328-35.354v-608.333c0-19.635 15.744-35.405 35.328-35.405h151.654v-134.682c0-19.584 15.821-35.379 35.379-35.379h591.488c19.635 0 35.405 15.795 35.405 35.379v608.41c0.026 19.43-15.77 35.328-35.379 35.328v0zM158.080 264.192v537.6h520.678v-99.328h-368.998c-19.584 0-35.379-15.744-35.379-35.328v-402.944h-116.301zM865.894 94.003h-520.806v537.626h520.653v-537.626h0.154z" />
<glyph unicode="&#xe914;" glyph-name="panel" d="M205.645 688.41c-10.598 0-17.69 0-24.755 7.066-10.624 10.65-10.624 31.821 0 42.496l38.963 38.963c10.65 10.598 31.923 10.598 42.522 0 14.157-10.624 14.157-31.898 3.533-42.522l-38.938-38.886c-7.142-7.117-14.234-7.117-21.325-7.117zM205.645 107.648c-7.040 0-14.131 3.507-21.171 10.522-10.701 10.726-10.701 31.949 0 42.547l616.115 616.243c10.624 10.624 31.846 10.624 42.47 0 10.65-10.598 10.65-31.872 0-42.522l-616.141-616.269c-7.091-7.014-14.182-10.522-21.274-10.522v0zM396.902 107.648c-7.040 0-14.157 3.507-21.274 10.522-10.598 10.726-10.598 31.949 0 42.547l424.986 424.96c10.573 10.624 31.821 10.624 42.47 0 10.624-10.65 10.624-31.872 0-42.522l-424.96-425.011c-3.533-6.989-14.131-10.496-21.222-10.496v0zM591.667 107.648c-7.066 0-14.157 3.507-21.248 10.522-10.598 10.726-10.598 31.949 0 42.547l230.17 230.221c10.624 10.624 31.846 10.624 42.47 0 10.65-10.624 10.65-31.872 0-42.547l-230.144-230.221c-7.066-7.014-14.157-10.522-21.248-10.522v0zM782.899 107.648c-7.040 0-14.131 3.507-21.248 10.522-10.624 10.726-10.624 31.949 0 42.547l38.835 38.912c10.573 10.675 31.872 10.675 42.547 0 10.547-10.65 10.547-31.872 0-42.394l-38.938-39.040c-3.507-7.040-14.054-10.547-21.197-10.547zM205.645 493.594c-10.598 0-17.69 3.533-24.755 10.624-10.624 10.598-10.624 31.846 0 42.496l230.195 230.195c10.65 10.598 31.846 10.598 42.522 0 10.65-10.598 10.65-31.872 0-42.522l-226.662-230.17c-7.117-7.014-14.208-10.624-21.299-10.624zM205.645 302.387c-7.040 0-14.131 3.533-21.171 10.598-10.701 10.624-10.701 31.821 0 42.47l424.883 424.96c10.65 10.65 31.898 10.65 42.522 0 10.598-10.598 10.598-31.872 0-42.496l-424.96-424.934c-7.091-10.598-14.182-10.598-21.274-10.598z" />
<glyph unicode="&#xe915;" glyph-name="plus" d="M951.373 527.872h-339.405c-12.109 0-20.096 7.987-20.096 19.866v339.61c0 24.013-16 40.013-39.987 40.013h-79.795c-24.013 0-39.987-16-39.987-40.013v-339.584c0-11.904-8.013-19.866-19.866-19.866h-339.61c-24.013 0-39.987-16-39.987-40.013v-79.77c0-23.987 15.974-39.987 39.987-39.987h339.61c11.878 0 19.866-8.013 19.866-20.147v-339.354c0-23.987 15.974-39.987 39.987-39.987h79.795c23.987 0 39.987 16 39.987 39.987v339.354c0 12.16 8.013 20.147 20.096 20.147h339.405c23.987 0 39.987 16 39.987 39.987v79.77c0 23.987-16 39.987-39.987 39.987v0z" />
<glyph unicode="&#xe916;" glyph-name="preview" d="M512 712.738c-184.764 0-344.883-107.588-423.595-264.738 78.711-157.15 238.831-264.738 423.595-264.738s344.883 107.588 423.595 264.738c-78.711 157.15-238.831 264.738-423.595 264.738v0zM720.862 572.348c49.766-31.744 91.955-74.274 123.631-124.348-31.676-50.074-73.865-92.604-123.631-124.348-62.532-39.902-134.758-60.996-208.862-60.996s-146.33 21.094-208.862 60.996c-49.766 31.744-91.955 74.274-123.631 124.348 31.676 50.074 73.865 92.604 123.631 124.348 3.243 2.082 6.519 4.062 9.83 6.042-8.26-22.596-12.766-47.002-12.766-72.465 0-116.975 94.822-211.763 211.797-211.763s211.797 94.788 211.797 211.763c0 25.463-4.506 49.869-12.766 72.465 3.311-1.98 6.554-3.994 9.83-6.042v0zM512 532.412c0-43.861-35.567-79.428-79.428-79.428s-79.428 35.567-79.428 79.428c0 43.827 35.567 79.394 79.428 79.394s79.428-35.567 79.428-79.394v0z" />
<glyph unicode="&#xe917;" glyph-name="question" d="M497.51 104.32c-43.93 1.382-78.336 32.717-76.902 80.333 1.331 47.539 37.53 77.901 81.434 76.57 45.747-1.331 79.181-33.69 77.824-81.331-1.382-47.539-36.557-76.902-82.355-75.571zM702.899 507.187c-11.11-15.846-36.301-36.070-67.942-60.646l-35.072-24.192c-16.922-13.21-32.077-28.621-37.632-46.208-2.995-9.293-4.813-17.562-5.53-33.69-0.051-3.174-2.202-10.47-11.93-10.47h-99.046c-11.059 0-12.237 6.554-12.109 9.677 1.536 44.314 3.123 75.187 20.736 95.846 30.234 35.558 99.277 79.846 99.277 79.846 10.522 7.91 18.97 16.538 25.446 25.958 11.674 16.128 21.402 33.843 21.402 53.171 0 22.246-6.528 42.547-19.584 60.928-13.030 18.278-36.864 27.469-71.347 27.469-34.022 0-58.138-11.264-72.294-33.894-14.259-22.579-21.325-46.003-21.325-70.323h-127.283c3.507 83.558 32.666 142.746 87.578 177.613 34.637 22.272 77.235 33.459 127.744 33.459 66.33 0 121.472-15.795 165.35-47.488s65.818-78.541 65.92-140.749c0.051-38.118-13.286-70.221-32.358-96.307z" />
<glyph unicode="&#xe918;" glyph-name="save" d="M942.763 625.869c-9.284 11.605-23.415 18.398-38.263 18.398h-49.084c0 27.102-21.948 49.084-49.084 49.084h-49.084v49.050c0 27.102-21.948 49.084-49.084 49.084h-588.732c-27.136 0-49.084-21.948-49.084-49.084v-588.8c0-27.136 21.948-49.084 49.084-49.084h686.933c23.006 0 42.94 16.009 47.923 38.434l98.133 441.583c3.277 14.609-0.273 29.73-9.66 41.335v0zM119.433 742.4h588.8v-49.084h-49.084c-27.102 0-49.084-21.948-49.084-49.084h-294.366c-23.006 0-42.94-15.974-47.923-38.4 0 0-99.26-448.717-99.26-452.267h-49.084v588.834z" />
<glyph unicode="&#xe919;" glyph-name="select_icon" d="M860.083 334.49l-28.288 11.75v452.582c0 10.982-9.318 19.738-20.301 19.738h-479.539c-10.982 0-20.122-8.755-20.122-19.738v-160.614h-152.883c-11.034 0-19.584-7.859-19.584-18.867v-479.514c0-11.008 8.55-18.944 19.584-18.944h479.488c0.563 0 1.101-0.461 1.638-0.384l13.568-23.322c7.194-12.262 20.301-19.738 34.33-19.738 1.792 0 3.635 0.077 5.478 0.333 15.898 2.202 28.954 13.773 32.973 29.363l28.672 110.029 104.96 43.827c14.848 6.195 24.602 20.736 24.55 36.813-0.026 16.077-9.626 30.566-24.525 36.685v0zM351.59 598.4h265.267v-164.557l-104.678 43.443c-4.89 2.022-9.626 2.995-14.72 2.995-11.264 0-22.118-4.813-29.824-13.696-11.213-12.902-12.826-31.898-4.173-46.618l47.795-81.536h-159.667v259.968zM792.013 778.778v-416.154l-132.685 53.581v212.685c0 11.008-6.835 19.917-17.792 19.917h-289.946v129.971h440.422zM179.174 160.691v437.709h132.659v-279.091c0-11.008 9.139-20.685 20.122-20.685h202.726l82.099-137.933h-437.606z" />
<glyph unicode="&#xe91a;" glyph-name="setting" d="M591.36 836.531c25.267-5.12 49.408-12.646 72.474-22.093 23.782-9.728 46.234-21.811 67.43-35.866 9.549-6.374 12.109-18.97 5.76-28.211-0.794-1.126-1.434-2.278-2.586-3.174-9.805-10.598-14.643-24.115-14.643-37.53 0.358-13.824 5.734-27.315 16.077-37.939 10.342-10.342 24.115-15.795 37.658-15.795 13.773-0.282 27.571 4.838 38.246 14.925 8.038 7.782 20.941 7.142 28.365-0.87 0.87-0.896 1.766-1.69 2.304-2.586 14.157-21.299 26.138-44.006 36.224-67.507 9.472-23.347 16.973-48 22.093-73.267 2.304-10.957-4.838-21.555-15.821-23.859-1.050-0.256-2.304-0.256-3.456-0.256-14.566-0.614-27.827-6.63-37.555-16.717-9.549-9.702-15.283-22.963-15.283-37.888 0-14.669 5.734-28.109 15.283-37.914 9.728-9.805 22.963-16.077 37.555-16.358 11.213-0.358 19.891-9.523 19.558-20.685 0-1.51 0-2.918-0.282-4.326-5.12-25.267-12.621-49.408-22.093-72.371-10.086-23.885-22.067-46.31-36.224-67.533-5.99-9.549-18.662-11.853-27.827-5.76-1.152 0.896-2.304 1.69-3.2 2.586-10.598 9.805-24.371 14.669-37.888 14.669-13.517-0.282-27.29-5.504-37.658-16.102-10.342-10.317-15.821-24.115-16.077-37.658 0-13.773 4.838-27.546 14.925-38.17 7.782-8.013 7.501-20.685-0.538-28.442-0.896-0.87-1.766-1.664-2.918-2.304-21.299-14.054-43.648-26.138-67.533-35.866-23.219-9.805-47.693-17.229-73.242-22.451-10.88-2.022-21.478 4.941-23.501 15.821-0.358 1.152-0.614 2.304-0.614 3.456-0.282 14.669-6.63 28.186-16.358 37.658-9.805 9.446-23.322 15.206-37.888 15.206-14.925 0-28.186-5.76-37.914-15.206-9.805-9.549-16.077-22.963-16.435-37.658-0.256-10.982-9.446-19.789-20.685-19.533-1.408 0-2.842 0.256-4.326 0.538-25.267 5.197-49.408 12.365-72.371 22.17-23.782 9.728-46.49 21.837-67.507 35.866-9.472 6.374-12.032 18.662-5.76 28.211 0.614 1.152 1.51 1.946 2.304 2.816 10.086 10.701 14.925 24.474 14.669 37.888 0 13.517-5.478 27.315-15.821 37.658-10.598 10.598-24.115 15.821-37.555 16.102-13.798 0-27.674-4.864-38.272-14.95-8.038-7.782-20.941-7.424-28.723 0.614-0.87 0.87-1.408 2.022-2.022 2.816-14.054 21.299-26.419 43.75-36.147 67.533 0 0.358-0.256 0.614-0.256 1.152-9.549 22.963-16.973 47.104-21.837 72.090-2.304 10.982 4.864 21.581 15.718 23.885 1.152 0 2.304 0.256 3.456 0.256 14.669 0.282 27.93 6.63 37.376 16.358 9.728 9.83 15.462 23.322 15.462 37.914 0 14.925-5.76 28.186-15.462 37.99-9.446 9.984-22.707 16.077-37.376 16.614-11.136 0-20.070 9.446-19.789 20.429 0 1.664 0.282 2.918 0.614 4.301 5.12 25.267 12.646 49.434 22.093 72.653 9.728 23.578 22.093 46.208 36.147 67.507 6.093 9.216 18.739 11.75 27.93 5.734 1.152-0.87 2.304-1.664 3.174-2.56 10.624-10.086 24.115-14.925 37.914-14.643 13.517 0 26.957 5.453 37.658 15.795 10.342 10.624 15.744 24.115 15.744 37.939 0.358 13.414-4.608 27.315-14.925 37.888-7.424 8.038-7.168 20.941 0.87 28.723 0.896 0.896 1.766 1.408 2.918 2.304 20.941 14.080 43.648 26.138 67.507 35.866 22.963 9.472 47.718 17.229 73.267 22.093 10.88 2.278 21.478-4.864 23.501-15.718 0.358-1.178 0.358-2.33 0.614-3.482 0.256-14.669 6.63-27.93 16.358-37.376 9.805-9.472 22.963-15.462 37.914-15.462 14.643 0 28.186 5.99 37.888 15.462 9.805 9.446 16.077 22.707 16.435 37.376 0.282 11.136 9.472 20.070 20.71 19.789 1.331 0.051 2.765-0.179 4.173-0.563v0zM512.102 640.973c53.094 0 101.453-21.555 136.422-56.653 34.816-34.714 56.294-82.97 56.294-136.448 0-53.12-21.478-101.376-56.294-136.448-34.97-34.714-83.328-56.294-136.422-56.294-53.376 0-101.35 21.581-136.448 56.294-34.714 35.072-56.55 83.328-56.55 136.448 0 53.478 21.837 101.709 56.55 136.448 35.072 35.072 83.072 56.653 136.448 56.653v0zM619.827 555.597c-27.571 27.571-65.741 44.8-107.725 44.8-42.24 0-80.154-17.229-107.725-44.8s-44.544-65.485-44.544-107.725c0-41.907 16.973-80.154 44.544-107.725s65.485-44.442 107.725-44.442c41.984 0 80.154 16.87 107.725 44.442 27.546 27.571 44.518 65.818 44.518 107.725 0 42.24-16.973 80.154-44.518 107.725v0zM648.269 777.139c-14.669 6.016-29.875 11.136-45.082 15.206-4.608-15.795-13.517-30.234-25.011-41.37-16.973-16.691-40.474-27.034-66.099-27.034-25.907 0-49.126 10.342-66.099 27.034-11.75 11.136-20.326 25.574-24.934 41.37-15.539-4.070-30.49-9.165-45.158-15.206-14.925-6.374-29.261-13.261-43.034-21.274 8.038-14.694 12.032-30.771 11.75-46.874-0.282-23.834-9.472-47.718-27.571-65.741-18.381-18.381-41.984-27.571-66.099-27.904-16.077-0.282-32.179 3.712-46.848 11.802-8.038-13.773-14.925-28.186-21.222-43.136-6.093-14.669-11.213-29.594-15.283-45.056 16.077-4.608 30.234-13.261 41.446-24.755 16.614-17.229 26.957-40.474 26.957-66.355 0-25.549-10.342-48.794-26.957-66.099-11.213-11.494-25.37-20.070-41.446-24.934 4.070-14.95 8.934-29.978 14.925-44.032 0-0.538 0.358-0.87 0.358-1.152 6.272-14.925 13.158-28.979 21.222-42.752 14.669 8.013 30.746 11.75 46.848 11.469 24.115-0.282 47.718-9.446 66.099-27.571 18.125-18.125 27.29-41.984 27.571-65.818 0.256-16.102-3.712-32.461-11.75-46.848 13.798-7.962 28.109-15.206 43.034-21.197 14.669-6.016 29.619-11.213 45.158-15.539 4.608 16.077 13.158 30.464 24.934 41.702 16.973 16.614 40.192 26.957 66.099 26.957 25.626 0 49.126-10.317 66.099-26.957 11.469-11.213 20.403-25.626 25.011-41.702 15.206 4.326 30.413 9.523 45.082 15.539 14.925 5.99 29.338 13.158 42.778 21.197-7.706 14.413-11.75 30.746-11.494 46.848 0.358 23.859 9.549 47.693 27.571 65.818 18.125 18.125 41.984 27.29 65.843 27.571 16.358 0.282 32.435-3.456 46.822-11.469 8.038 13.773 15.206 27.827 21.478 42.752 6.093 14.669 11.213 29.875 15.309 45.184-16.102 4.608-30.234 13.414-41.728 24.934-16.589 17.229-26.675 40.55-26.675 66.099 0 25.882 10.086 49.126 26.675 66.355 11.494 11.52 25.626 20.147 41.728 24.755-4.070 15.462-9.19 30.387-15.309 45.312-6.272 14.669-13.414 29.107-21.478 42.854-14.413-8.013-30.464-12.109-46.822-11.802-23.885 0.333-47.718 9.523-65.843 27.904-18.022 18.022-27.213 41.907-27.571 65.741-0.256 16.077 3.789 32.154 11.494 46.874-13.44 8.038-27.853 15.206-42.778 21.299v0z" />
<glyph unicode="&#xe91b;" glyph-name="shapes" d="M379.52 355.482c63.539 0 115.226-51.738 115.226-115.277s-51.686-115.277-115.226-115.277c-63.565 0-115.277 51.738-115.277 115.277s51.686 115.277 115.277 115.277zM379.52 414.080c-96.026 0-173.901-77.824-173.901-173.875s77.875-173.875 173.901-173.875c96 0 173.85 77.824 173.85 173.875s-77.85 173.875-173.85 173.875v0zM865.408 564.429v-204.493h-204.493v204.493h204.493zM882.611 618.24h-238.899c-20.198 0-36.608-16.41-36.608-36.582v-238.899c0-20.25 16.41-36.634 36.608-36.634h238.899c20.198 0 36.608 16.384 36.608 36.634v238.899c-0.026 20.173-16.41 36.582-36.608 36.582v0zM306.253 720l98.586-160.179h-197.12l98.534 160.179zM306.253 829.67l-201.446-327.322h402.918l-201.472 327.322z" />
<glyph unicode="&#xe91c;" glyph-name="text-area" d="M795.571 788.275h-567.142c-31.334 0-56.704-25.37-56.704-56.704v-567.117c0-31.309 25.37-56.704 56.704-56.704h567.142c31.309 0 56.678 25.395 56.678 56.704v567.117c0 31.309-25.37 56.704-56.678 56.704v0zM823.936 164.454c0-15.667-12.698-28.365-28.339-28.365h-567.168c-15.667 0-28.339 12.698-28.339 28.365v567.117c0 15.667 12.698 28.339 28.339 28.339h567.142c15.642 0 28.339-12.672 28.339-28.339v-567.117zM696.32 632.32h-368.64c-7.808 0-14.182-6.349-14.182-14.157 0-7.859 6.374-14.182 14.182-14.182h368.64c7.834 0 14.182 6.349 14.182 14.182-0.026 7.808-6.349 14.157-14.182 14.157v0zM638.208 542.362h-252.416c-5.35 0-9.702-6.4-9.702-14.182 0-7.808 4.352-14.182 9.702-14.182h252.416c5.35 0 9.728 6.374 9.728 14.182-0.026 7.808-4.378 14.182-9.728 14.182v0z" />
<glyph unicode="&#xe91d;" glyph-name="text" d="M808.858 735.565v12.8h-592.384l-9.754-160.486h44.774l1.050 11.648c2.074 23.194 8.704 41.651 19.635 54.886 11.059 13.389 23.987 22.195 39.27 26.829 12.518 3.558 34.637 5.376 65.69 5.376h70.81v-426.496c0-39.398-5.837-50.714-8.32-53.734-9.651-11.597-27.392-17.485-52.685-17.485h-37.427v-41.267h320.435v41.242h-36.941c-23.501 0-40.832 4.89-51.2 14.362-2.33 2.15-9.856 12.749-9.856 56.858v426.496h85.197c26.778 0 48.41-3.533 64.205-10.522 15.36-6.758 27.392-17.075 36.762-31.514 5.453-8.499 10.010-23.962 13.44-45.926l1.69-10.803h44.058l-8.448 147.738z" />
<glyph unicode="&#xe91e;" glyph-name="trash" d="M881.562 712.141h-211.123v105.421c0 29.158-23.731 52.838-52.838 52.838h-211.149c-29.158 0-52.838-23.68-52.838-52.838v-105.395h-211.174c-29.158 0-52.838-23.757-52.838-52.838v-52.89h105.728v-527.974c0-29.082 23.424-52.838 52.531-52.838h528c29.133 0 52.838 23.782 52.838 52.838v527.949h105.702v52.89c0 29.107-23.731 52.838-52.838 52.838v0zM459.315 764.698h105.421v-52.557h-105.421v52.557zM723.277 131.302h-422.528v475.11h422.528v-475.11z" />
<glyph unicode="&#xe91f;" glyph-name="upper-case" d="M947.379 586.214h-512.64l-39.731 85.76c-4.634 9.984-14.618 16.333-25.6 16.333h-9.907c-11.034 0-21.043-6.426-25.626-16.486l-39.194-85.606h-218.061v-9.395h213.734l-148.557-324.506c-3.994-8.73-3.251-18.893 1.92-26.982 2.15-3.328 4.966-6.118 8.192-8.269h-75.264v-9.37h870.758v9.37h-75.238c1.613 1.050 3.072 2.253 4.429 3.635 5.299 5.35 8.243 12.57 8.192 20.045l-1.203 207.104c-0.691 74.138-45.875 122.214-119.194 128.973h183.014v9.395zM359.782 576.819h9.907l79.514-171.827h-167.373l77.952 171.827zM201.754 228.89l51.43 112.947h225.024l52.045-113.024c2.227-4.89 5.734-8.909 10.061-11.75h-348.672c4.326 2.867 7.885 6.938 10.112 11.827v0zM821.606 240.358c0.077-9.702 5.069-18.253 12.621-23.27h-74.547c23.091 5.043 43.878 14.080 61.901 26.803l0.026-3.533zM820.966 341.35c-19.789-45.466-52.634-65.792-105.779-65.792-31.462 0-65.075 13.901-65.075 52.915 0 37.581 49.562 43.213 79.078 43.213h91.75l0.026-30.336zM610.048 488.55l4.070-5.376c4.531-6.067 11.29-10.035 18.765-11.059 7.475-0.998 15.078 1.024 21.043 5.658 32.87 25.395 61.338 36.736 92.262 36.736 65.766 0 73.882-38.195 74.189-67.021v-12.672h-91.213c-104.883 0-142.234-54.938-142.234-106.342 0-54.989 35.891-97.638 89.395-111.386h-96.947c3.226 2.15 6.042 4.966 8.192 8.346 5.171 8.090 5.862 18.304 1.818 27.034l-150.374 324.378h289.306c-38.784-3.686-75.162-19.507-113.126-49.101-12.006-9.472-14.336-26.906-5.146-39.194v0z" />
<glyph unicode="&#xe920;" glyph-name="visitor" d="M871.014 264.986c-24.704 24.678-65.971 46.234-131.123 78.797-32.794 16.41-87.424 43.725-100.71 56.192 55.475 68.198 87.68 145.152 87.68 212.582 0 45.747 0 102.656-25.6 153.421-23.066 45.722-74.65 100.173-189.261 100.173-114.662 0-166.195-54.451-189.286-100.173-25.6-50.739-25.6-107.674-25.6-153.421 0-67.43 32.154-144.384 87.654-212.582-13.312-12.493-67.917-39.834-100.762-56.192-65.075-32.563-106.368-54.093-131.072-78.797-54.682-54.707-58.829-146.534-59.11-164.378-0.282-18.662 6.938-36.634 20.045-49.971 13.082-13.261 31.002-20.762 49.613-20.762h696.96c18.662 0 36.557 7.501 49.638 20.762 13.107 13.338 20.301 31.334 20.019 49.997-0.256 17.818-4.378 109.645-59.085 164.352v0zM872.883 87.322c-3.328-3.379-7.731-5.197-12.39-5.197h-696.96c-4.608 0-9.114 1.869-12.365 5.197-3.251 3.277-5.043 7.859-5.043 12.467 0.154 8.755 2.56 86.938 43.802 128.23 19.046 19.021 58.931 39.68 117.504 68.966 62.566 31.283 97.254 49.894 113.254 65.024l35.251 33.331-30.618 37.632c-48.23 59.264-75.93 124.723-75.93 179.584 0 42.317 0 90.163 20.019 129.843 23.962 47.437 71.91 71.475 142.618 71.475 70.63 0 118.656-24.038 142.566-71.45 20.019-39.706 20.019-87.552 20.019-129.869 0-54.835-27.674-120.269-76.006-179.584l-30.592-37.658 35.277-33.331c15.974-15.078 50.637-33.69 113.229-64.998 58.65-29.286 98.483-49.946 117.53-68.966 33.613-33.587 43.341-96.41 43.802-128.23 0.102-4.608-1.715-9.19-4.966-12.467v0z" />
<glyph unicode="&#xe921;" glyph-name="heart" d="M525.678 53.449c-4.133-3.255-8.43-5.285-13.733-5.285-5.285 0-10.569 2.030-13.696 5.285l-316.398 317.33c-151.259 151.314-160.841 307.858-63.47 404.041 96.347 96.384 252.91 96.384 349.111 0 17.993-17.865 32.859-37.998 44.453-59.154 11.575 21.157 26.423 41.307 44.306 59.154 96.384 97.353 252.891 97.353 350.245 0 96.219-96.183 86.784-252.709-64.457-404.041l-316.361-317.33z" />
<glyph unicode="&#xe922;" glyph-name="btn" d="M902.963 744.858h-781.85c-14.131 0-25.6-13.261-25.6-29.568v-534.528c0-16.41 11.469-29.594 25.6-29.594h781.747c14.157 0 25.6 13.235 25.6 29.594v534.502c0.102 16.333-11.443 29.594-25.498 29.594zM881.741 198.938h-739.482v498.125h739.507v-498.125zM712.269 475.878l-120.653 97.818c-11.008 8.883-27.11 7.219-35.994-3.763-8.934-10.982-7.219-27.11 3.738-36.019l64.538-52.326h-296.038c-14.131 0-25.6-11.469-25.6-25.6s11.469-25.6 25.6-25.6h306.509l-70.067-70.093c-10.010-10.010-10.010-26.189 0-36.198 4.992-4.992 11.546-7.501 18.099-7.501s13.107 2.509 18.099 7.501l113.766 113.792c5.12 5.12 7.859 12.186 7.475 19.43-0.41 7.245-3.84 13.978-9.472 18.56z" />
<glyph unicode="&#xe923;" glyph-name="right-arrow" d="M784.096 426.688l-587.872 526.528v-1053.056l587.872 526.528z" />
<glyph unicode="&#xe924;" glyph-name="left-arrow" d="M196.224 426.688l587.872 526.528v-1053.056l-587.872 526.528z" />
<glyph unicode="&#xe925;" glyph-name="before-after" d="M969.143 905.143v-914.286h-914.286v914.286h914.286zM1024 960h-1024v-1024h1024v1024zM123.611 796.434h530.286v-216.869h-530.286v216.869z" />
<glyph unicode="&#xe926;" glyph-name="infobar" d="M1026.359 960h-1026.359v-1024h1024v764.434h2.359v259.566zM969.143-9.143h-914.286v709.577h914.286v-709.577z" />
<glyph unicode="&#xe927;" glyph-name="inline-popup" d="M969.143 905.143v-914.286h-914.286v914.286h914.286zM1024 960h-1024v-1024h1024v1024zM117.504 386.761h566.857v-259.547h-566.857v259.547z" />
<glyph unicode="&#xe928;" glyph-name="knowldge" d="M876.288 784.293c-15.488 0-28.032 12.562-28.032 28.014 0 15.488 12.562 28.050 28.032 28.050 15.506 0 28.069 12.526 28.069 27.995 0 15.543-12.581 28.050-28.069 28.050h-672.549c-46.427 0-84.114-37.65-84.114-84.096v-756.718c0-30.921 25.070-56.009 56.046-56.009h672.567c31.031 0 56.101 25.070 56.101 56.009v700.672c0.018 15.506-12.544 28.032-28.050 28.032v0zM512 840.357h285.349c-3.109-8.814-5.102-18.176-5.102-28.050s1.993-19.2 5.102-28.014h-285.349v56.064zM343.845 728.229v112.128h112.073v-257.042l-56.009 56.009-56.046-56.009v144.914zM203.739 840.357h84.078v-56.046h-84.078c-15.451 0-28.050 12.562-28.050 28.014-0.018 15.433 12.599 28.032 28.050 28.032v0zM848.256 55.589h-672.585v677.797c8.814-3.109 18.194-5.157 28.050-5.157h84.078v-280.229l112.091 112.128 112.11-112.128v280.229h336.256v-672.64zM848.256-9.143h-672.585c-35.73 0-64.805 29.019-64.805 64.731v756.718c0 51.182 41.691 92.837 92.873 92.837h672.549c20.297 0 36.846-16.494 36.846-36.791 0-20.242-16.53-36.736-36.846-36.736-10.642 0-19.237-8.686-19.237-19.31s8.594-19.273 19.237-19.273c20.297 0 36.846-16.494 36.846-36.773v-700.672c0-35.712-29.129-64.731-64.878-64.731zM203.739 887.625c-41.545 0-75.319-33.81-75.319-75.319v-756.718c0-25.984 21.175-47.25 47.269-47.25h672.567c26.112 0 47.323 21.266 47.323 47.25v700.672c0 10.624-8.631 19.255-19.291 19.255-20.242 0-36.791 16.494-36.791 36.791s16.53 36.809 36.791 36.809c10.661 0 19.291 8.631 19.291 19.237 0 10.661-8.631 19.273-19.291 19.273h-672.549zM857.051 46.866h-690.139v698.88l11.666-4.114c8.85-3.127 17.061-4.608 25.161-4.608h92.782v-267.867l103.369 103.333 103.333-103.333v267.867h353.829v-690.158zM184.411 64.402h655.086v655.104h-318.738v-292.608l-120.85 120.85-120.887-120.85v292.608h-75.264c-6.4 0-12.745 0.713-19.328 2.213v-657.317zM464.677 562.139l-64.786 64.786-64.786-64.786v286.976h129.573v-286.976zM399.89 651.721l47.269-47.25v227.145h-94.537v-227.145l47.269 47.25zM809.746 775.515h-306.505v73.6h306.523l-4.114-11.648c-3.127-8.887-4.663-17.097-4.663-25.161s1.536-16.293 4.663-25.125l4.096-11.666zM520.759 793.033h264.923c-1.463 6.528-2.213 12.91-2.213 19.273 0 6.382 0.75 12.727 2.213 19.31h-264.923v-38.583zM296.521 775.515h-92.782c-20.297 0-36.827 16.494-36.827 36.791s16.512 36.809 36.827 36.809h92.782v-73.6zM203.739 831.616c-10.642 0-19.328-8.686-19.328-19.31s8.686-19.273 19.328-19.273h75.264v38.583h-75.264z" />
<glyph unicode="&#xe929;" glyph-name="modal-popup" d="M969.143 905.143v-914.286h-914.286v914.286h914.286zM1024 960h-1024v-1024h1024v1024zM278.985 681.015h466.030v-466.048h-466.030v466.048z" />
<glyph unicode="&#xe92a;" glyph-name="slide-in" d="M969.143 960h-969.143v-1024h1024v1024h-54.857zM969.143-9.143h-53.157v249.216h-487.625v-249.216h-373.504v914.286h914.286v-914.286z" />
<glyph unicode="&#xe92b;" glyph-name="support" d="M814.757 895.378h-605.531c-90.167 0-163.511-73.344-163.511-163.511v-373.522c0-90.13 73.344-163.456 163.511-163.456l385.682-0.037 184.649-184.613c6.254-6.235 14.647-9.6 23.077-9.6 4.279 0 8.521 0.896 12.562 2.542 12.197 5.047 20.187 16.969 20.187 30.208v162.798c80.457 10.149 142.921 79.031 142.921 162.158v373.522c-0.018 90.167-73.417 163.511-163.547 163.511v0zM912.805 358.345c0-54.053-43.922-98.085-98.048-98.085h-12.123c-18.030 0-32.658-14.665-32.658-32.695v-115.237l-138.405 138.405c-6.126 6.089-14.446 9.527-23.095 9.527h-399.25c-54.089 0-98.139 44.032-98.139 98.085v373.522c0 54.089 44.050 98.121 98.139 98.121h605.531c54.126 0 98.048-44.050 98.048-98.121v-373.522zM752.622 663.845h-481.335c-18.048 0-32.695-14.647-32.695-32.713s14.647-32.713 32.695-32.713h481.335c18.103 0 32.695 14.647 32.695 32.713s-14.592 32.713-32.695 32.713v0zM752.622 480.713h-481.335c-18.048 0-32.695-14.647-32.695-32.695 0-18.030 14.647-32.695 32.695-32.695h481.335c18.103 0 32.695 14.665 32.695 32.695 0 18.048-14.592 32.695-32.695 32.695v0z" />
<glyph unicode="&#xe92c;" glyph-name="widget-box" d="M969.143 905.143v-914.286h-914.286v914.286h914.286zM1024 960h-1024v-1024h1024v1024zM507.593 799.47h359.625v-388.041h-359.625v388.041z" />
<glyph unicode="&#xe92d;" glyph-name="cross" d="M1014.656 137.344c0 0 0 0 0 0l-310.656 310.656 310.656 310.656c0 0 0 0 0 0 3.36 3.36 5.76 7.264 7.328 11.424 4.256 11.392 1.824 24.672-7.328 33.824l-146.752 146.752c-9.152 9.152-22.464 11.552-33.824 7.328-4.16-1.536-8.064-3.968-11.424-7.296 0 0 0 0 0 0l-310.656-310.656-310.656 310.656c0 0 0 0 0 0-3.36 3.328-7.264 5.76-11.424 7.296-11.392 4.256-24.672 1.824-33.824-7.328l-146.752-146.752c-9.152-9.152-11.552-22.464-7.328-33.824 1.568-4.16 3.968-8.064 7.328-11.424 0 0 0 0 0 0l310.656-310.656-310.656-310.656c0 0 0 0 0 0-3.328-3.36-5.76-7.264-7.328-11.424-4.256-11.36-1.824-24.672 7.328-33.824l146.752-146.752c9.152-9.152 22.464-11.552 33.824-7.328 4.16 1.568 8.064 3.968 11.424 7.328 0 0 0 0 0 0l310.656 310.656 310.656-310.656c0 0 0 0 0 0 3.36-3.36 7.264-5.76 11.424-7.328 11.392-4.256 24.672-1.824 33.824 7.328l146.752 146.752c9.152 9.152 11.584 22.464 7.328 33.824-1.568 4.16-3.968 8.064-7.328 11.424z" />
<glyph unicode="&#xe92e;" glyph-name="desktop_mac" d="M896 361.984v427.989h-768v-427.989h768zM896 873.984c45.995 0 86.016-38.016 86.016-84.011v-512c0-45.995-40.021-86.016-86.016-86.016h-297.984l84.011-128v-41.984h-340.011v41.984l84.011 128h-297.984c-45.995 0-86.016 40.021-86.016 86.016v512c0 45.995 40.021 84.011 86.016 84.011h768z" />
<glyph unicode="&#xe92f;" glyph-name="desktop_windows" d="M896 278.016v512h-768v-512h768zM896 873.984c45.995 0 86.016-38.016 86.016-84.011v-512c0-45.995-40.021-86.016-86.016-86.016h-297.984v-86.016h84.011v-84.011h-340.011v84.011h84.011v86.016h-297.984c-45.995 0-86.016 40.021-86.016 86.016v512c0 45.995 40.021 84.011 86.016 84.011h768z" />
<glyph unicode="&#xe930;" glyph-name="phone_iphone" d="M681.984 192v598.016h-384v-598.016h384zM489.984 22.016c36.011 0 64 27.989 64 64s-27.989 64-64 64-64-27.989-64-64 27.989-64 64-64zM662.016 918.016c57.984 0 105.984-50.005 105.984-107.989v-724.011c0-57.984-48-107.989-105.984-107.989h-342.016c-57.984 0-105.984 50.005-105.984 107.989v724.011c0 57.984 48 107.989 105.984 107.989h342.016z" />
</font>
</defs>
</svg>
