<?xml version="1.0" encoding="utf-8"?>
<!-- Generator: Adobe Illustrator 16.0.0, SVG Export Plug-In . SVG Version: 6.00 Build 0)  -->
<!DOCTYPE svg PUBLIC "-//W3C//DTD SVG 1.1//EN" "http://www.w3.org/Graphics/SVG/1.1/DTD/svg11.dtd">
<svg version="1.1" id="Layer_1" xmlns="http://www.w3.org/2000/svg" xmlns:xlink="http://www.w3.org/1999/xlink" x="0px" y="0px"
	 width="21px" height="20px" viewBox="0 0 21 20" enable-background="new 0 0 21 20" xml:space="preserve">
<g>
	<path fill="#FFFFFF" d="M19.046,1.9h-2.9V0h-1.899v5.7h1.899V3.8h2.9v14.3h-17.1V3.8h1.9V1.9h-1.9c-1,0-1.9,0.9-1.9,1.9v14.3
		c0,1.101,0.9,1.9,1.9,1.9h17.1c1.1,0,1.9-0.9,1.9-1.9V3.8C21.046,2.8,20.146,1.9,19.046,1.9z"/>
	<polygon fill="#FFFFFF" points="6.746,3.8 13.346,3.8 13.346,1.9 6.746,1.9 6.746,0 4.846,0 4.846,5.7 6.746,5.7 	"/>
	<rect x="3.846" y="7.6" fill="#FFFFFF" width="3.8" height="3.8"/>
	<rect x="8.646" y="7.6" fill="#FFFFFF" width="3.8" height="3.8"/>
	<rect x="13.346" y="7.6" fill="#FFFFFF" width="3.8" height="3.8"/>
	<rect x="3.846" y="12.4" fill="#FFFFFF" width="3.8" height="3.8"/>
	<rect x="8.646" y="12.4" fill="#FFFFFF" width="3.8" height="3.8"/>
</g>
</svg>
