<?xml version="1.0" encoding="utf-8"?>
<!-- Generator: Adobe Illustrator 16.0.0, SVG Export Plug-In . SVG Version: 6.00 Build 0)  -->
<!DOCTYPE svg PUBLIC "-//W3C//DTD SVG 1.1//EN" "http://www.w3.org/Graphics/SVG/1.1/DTD/svg11.dtd">
<svg version="1.1" xmlns="http://www.w3.org/2000/svg" xmlns:xlink="http://www.w3.org/1999/xlink" x="0px" y="0px" width="512px" height="512px" viewBox="0 0 512 512" enable-background="new 0 0 512 512" xml:space="preserve" fill="#000">
  <path d="M343.104,306.418c-42.963,0-77.793,34.828-77.793,77.791c0,42.964,34.83,77.791,77.793,77.791
s77.791-34.827,77.791-77.791C420.896,341.246,386.067,306.418,343.104,306.418z M390.913,398.344h-33.672v33.673h-26.006v-33.673
h-33.674v-26.005h33.674v-33.672h26.006v33.672h33.672V398.344z M268.493,462H91.104V185.333h271v92.748
c-9.865-1.745-19.957-2.119-30-1.109v-61.639h-211V432h125.326c5.149,10.392,12.012,19.989,20.453,28.43
C267.415,460.961,267.953,461.481,268.493,462z M174.604,160.333h-30V132c0-45.287,36.713-82,82-82s82,36.713,82,82v28.333h-30V132
c0-28.673-23.327-52-52-52s-52,23.327-52,52V160.333z"></path>
</svg>