<?xml version="1.0" encoding="utf-8"?>
<!-- Generator: Adobe Illustrator 16.0.0, SVG Export Plug-In . SVG Version: 6.00 Build 0)  -->
<!DOCTYPE svg PUBLIC "-//W3C//DTD SVG 1.1//EN" "http://www.w3.org/Graphics/SVG/1.1/DTD/svg11.dtd">
<svg version="1.1" id="Слой_1" xmlns="http://www.w3.org/2000/svg" xmlns:xlink="http://www.w3.org/1999/xlink" x="0px" y="0px"
	 width="32px" height="32px" viewBox="0 0 32 32" enable-background="new 0 0 32 32" xml:space="preserve">
<path id="Arrow_Forward" fill="#121313" d="M16,4.504c-0.267,0-0.522,0.109-0.714,0.293l-9.999,9.898
	c-0.395,0.392-0.394,1.024,0,1.414c0.394,0.392,1.034,0.392,1.428,0l8.275-8.192v18.579c0,0.551,0.452,1,1.01,1s1.011-0.449,1.011-1
	V7.918l8.274,8.191c0.394,0.392,1.034,0.39,1.429,0c0.394-0.391,0.394-1.023,0-1.414l-10-9.898C16.525,4.61,16.265,4.507,16,4.504z"
	/>
</svg>
