<?xml version="1.0" encoding="utf-8"?>
<!-- Generator: Adobe Illustrator 16.0.0, SVG Export Plug-In . SVG Version: 6.00 Build 0)  -->
<!DOCTYPE svg PUBLIC "-//W3C//DTD SVG 1.1//EN" "http://www.w3.org/Graphics/SVG/1.1/DTD/svg11.dtd">
<svg version="1.1" id="Layer_1" xmlns="http://www.w3.org/2000/svg" xmlns:xlink="http://www.w3.org/1999/xlink" x="0px" y="0px"
	 width="20px" height="20px" viewBox="0 0 20 20" enable-background="new 0 0 20 20" xml:space="preserve">
<path fill="#FFFFFF" d="M17.5,11h-4c-1.1,0-2,0.9-2,1.9C9,12.5,7,10.6,6.6,8c1.1,0,1.9-0.9,1.9-2V2c0-1.1-0.9-2-2-2h-4
	c-1.1,0-2,0.9-2,2v5c0,6.6,5.4,12,12,12h5c1.1,0,2-0.9,2-2v-4C19.5,11.9,18.6,11,17.5,11z M12.5,17c-5.5,0-10-4.5-10-10V2h4v4h-1
	C5.2,6,5,6.1,4.8,6.3C4.6,6.5,4.5,6.7,4.5,7c0.1,4.6,3.5,8,8,8c0.6,0,1-0.4,1-1v-1h4l0,4H12.5z"/>
</svg>
