<?xml version="1.0" encoding="utf-8"?>
<!-- Generator: Adobe Illustrator 16.0.0, SVG Export Plug-In . SVG Version: 6.00 Build 0)  -->
<!DOCTYPE svg PUBLIC "-//W3C//DTD SVG 1.1//EN" "http://www.w3.org/Graphics/SVG/1.1/DTD/svg11.dtd">
<svg version="1.1" id="Layer_1" xmlns="http://www.w3.org/2000/svg" xmlns:xlink="http://www.w3.org/1999/xlink" x="0px" y="0px"
	 width="21px" height="20px" viewBox="-1 0 21 20" enable-background="new -1 0 21 20" xml:space="preserve">
<g>
	<path fill="#B8BCC1" d="M9.5,0C4,0-0.5,4.5-0.5,10c0,5.5,4.5,10,10,10c5.5,0,10-4.5,10-10C19.5,4.5,15,0,9.5,0z M9.5,18
		c-4.4,0-8-3.6-8-8s3.6-8,8-8c4.4,0,8,3.6,8,8S13.9,18,9.5,18z"/>
	<polygon fill="#B8BCC1" points="10.5,5 8.5,5 8.5,9 4.5,9 4.5,11 8.5,11 8.5,15 10.5,15 10.5,11 14.5,11 14.5,9 10.5,9 	"/>
</g>
</svg>
