<?xml version="1.0" encoding="utf-8"?>
<!-- Generator: Adobe Illustrator 16.0.0, SVG Export Plug-In . SVG Version: 6.00 Build 0)  -->
<!DOCTYPE svg PUBLIC "-//W3C//DTD SVG 1.1//EN" "http://www.w3.org/Graphics/SVG/1.1/DTD/svg11.dtd">
<svg version="1.1" id="Layer_1" xmlns="http://www.w3.org/2000/svg" xmlns:xlink="http://www.w3.org/1999/xlink" x="0px" y="0px"
	 width="21px" height="20px" viewBox="-1 0 21 20" enable-background="new -1 0 21 20" xml:space="preserve">
<path fill="#FFFFFF" d="M19.4,18.5L14,13.1c1.1-1.4,1.7-3.2,1.7-5c0-2.2-0.8-4.2-2.4-5.7C11.8,0.8,9.8,0,7.6,0
	C5.5,0,3.4,0.8,1.9,2.4s-2.4,3.6-2.4,5.7c0,2.2,0.8,4.2,2.4,5.7c1.5,1.5,3.6,2.4,5.7,2.4c1.8,0,3.5-0.6,4.9-1.7l5.4,5.4L19.4,18.5z
	 M3.3,12.4c-1.1-1.1-1.8-2.7-1.8-4.3c0-1.6,0.6-3.1,1.8-4.3C4.5,2.7,6,2,7.6,2c1.6,0,3.1,0.6,4.3,1.8c1.1,1.1,1.8,2.7,1.8,4.3
	c0,1.6-0.6,3.1-1.8,4.3c-1.1,1.1-2.7,1.8-4.3,1.8C6,14.2,4.5,13.5,3.3,12.4z"/>
</svg>
