<!-- Generated by IcoMoon.io -->
<svg version="1.1" xmlns="http://www.w3.org/2000/svg" width="40" height="30" viewBox="0 0 40 30" xml:space="preserve" preserveAspectRatio="none" fill="{{shape_color}}" class="cp-target">
<title>address_card_o</title>
<path d="M19.821 19.549c0 1.684-1.103 2.884-2.478 2.884h-9.911c-1.374 0-2.478-1.2-2.478-2.884 0-3 0.736-6.33 3.794-6.33 0.948 0.542 2.226 1.471 3.639 1.471s2.691-0.929 3.639-1.471c3.058 0 3.794 3.329 3.794 6.33zM16.782 9.483c0 2.439-1.974 4.394-4.394 4.394s-4.394-1.955-4.394-4.394c0-2.42 1.974-4.394 4.394-4.394s4.394 1.974 4.394 4.394zM34.688 18.097v1.239c0 0.348-0.271 0.619-0.619 0.619h-11.15c-0.348 0-0.619-0.271-0.619-0.619v-1.239c0-0.348 0.271-0.619 0.619-0.619h11.15c0.348 0 0.619 0.271 0.619 0.619zM34.688 13.219v1.084c0 0.387-0.31 0.697-0.697 0.697h-10.995c-0.387 0-0.697-0.31-0.697-0.697v-1.084c0-0.387 0.31-0.697 0.697-0.697h10.995c0.387 0 0.697 0.31 0.697 0.697zM34.688 8.186v1.239c0 0.348-0.271 0.619-0.619 0.619h-11.15c-0.348 0-0.619-0.271-0.619-0.619v-1.239c0-0.348 0.271-0.619 0.619-0.619h11.15c0.348 0 0.619 0.271 0.619 0.619zM37.165 26.769v-23.538c0-0.329-0.29-0.619-0.619-0.619h-33.449c-0.329 0-0.619 0.29-0.619 0.619v23.538c0 0.329 0.29 0.619 0.619 0.619h6.814v-1.858c0-0.348 0.271-0.619 0.619-0.619h1.239c0.348 0 0.619 0.271 0.619 0.619v1.858h14.866v-1.858c0-0.348 0.271-0.619 0.619-0.619h1.239c0.348 0 0.619 0.271 0.619 0.619v1.858h6.814c0.329 0 0.619-0.29 0.619-0.619zM39.643 3.231v23.538c0 1.703-1.394 3.097-3.097 3.097h-33.449c-1.703 0-3.097-1.394-3.097-3.097v-23.538c0-1.703 1.394-3.097 3.097-3.097h33.449c1.703 0 3.097 1.394 3.097 3.097z"></path>
</svg>
