<!-- Generated by IcoMoon.io -->
<svg version="1.1" xmlns="http://www.w3.org/2000/svg" width="30" height="18" viewBox="0 0 51 30" xml:space="preserve" preserveAspectRatio="none" fill="{{shape_color}}" class="cp-target">
<title>angle_up</title>
<path d="M51.428 25.719c0 0.412-0.206 0.876-0.515 1.185l-2.577 2.577c-0.309 0.309-0.721 0.515-1.185 0.515-0.412 0-0.876-0.206-1.185-0.515l-20.252-20.252-20.252 20.252c-0.309 0.309-0.773 0.515-1.185 0.515s-0.876-0.206-1.185-0.515l-2.577-2.577c-0.309-0.309-0.515-0.773-0.515-1.185s0.206-0.876 0.515-1.185l24.014-24.014c0.309-0.309 0.773-0.515 1.185-0.515s0.876 0.206 1.185 0.515l24.014 24.014c0.309 0.309 0.515 0.773 0.515 1.185z"></path>
</svg>
