<!-- Generated by IcoMoon.io -->
<svg version="1.1" xmlns="http://www.w3.org/2000/svg" width="31" height="30" viewBox="0 0 31 30" xml:space="preserve" preserveAspectRatio="none" fill="{{shape_color}}" class="cp-target">
<title>angle_double_up</title>
<path d="M31.032 27.422c0 0.248-0.124 0.528-0.311 0.714l-1.553 1.553c-0.186 0.186-0.435 0.311-0.714 0.311-0.248 0-0.528-0.124-0.714-0.311l-12.205-12.205-12.205 12.205c-0.186 0.186-0.466 0.311-0.714 0.311s-0.528-0.124-0.714-0.311l-1.553-1.553c-0.186-0.186-0.311-0.466-0.311-0.714s0.124-0.528 0.311-0.714l14.472-14.472c0.186-0.186 0.466-0.311 0.714-0.311s0.528 0.124 0.714 0.311l14.472 14.472c0.186 0.186 0.311 0.466 0.311 0.714zM31.032 15.497c0 0.248-0.124 0.528-0.311 0.714l-1.553 1.553c-0.186 0.186-0.435 0.311-0.714 0.311-0.248 0-0.528-0.124-0.714-0.311l-12.205-12.205-12.205 12.205c-0.186 0.186-0.466 0.311-0.714 0.311s-0.528-0.124-0.714-0.311l-1.553-1.553c-0.186-0.186-0.311-0.466-0.311-0.714s0.124-0.528 0.311-0.714l14.472-14.472c0.186-0.186 0.466-0.311 0.714-0.311s0.528 0.124 0.714 0.311l14.472 14.472c0.186 0.186 0.311 0.466 0.311 0.714z"></path>
</svg>
