<!-- Generated by IcoMoon.io -->
<svg version="1.1" xmlns="http://www.w3.org/2000/svg" width="30" height="30" viewBox="0 0 30 30" xml:space="preserve" preserveAspectRatio="none" fill="{{shape_color}}" class="cp-target">
<title>arrow_circle_up</title>
<path d="M25.078 14.98c0-0.332-0.117-0.645-0.352-0.879l-8.848-8.848c-0.234-0.234-0.547-0.352-0.879-0.352s-0.645 0.117-0.879 0.352l-8.848 8.848c-0.234 0.234-0.352 0.547-0.352 0.879s0.117 0.645 0.352 0.879l1.777 1.777c0.234 0.234 0.547 0.352 0.879 0.352s0.645-0.117 0.879-0.352l3.691-3.691v9.805c0 0.684 0.566 1.25 1.25 1.25h2.5c0.684 0 1.25-0.566 1.25-1.25v-9.805l3.691 3.691c0.234 0.234 0.547 0.371 0.879 0.371s0.645-0.137 0.879-0.371l1.777-1.777c0.234-0.234 0.352-0.547 0.352-0.879zM30 15c0 8.281-6.719 15-15 15s-15-6.719-15-15 6.719-15 15-15 15 6.719 15 15z"></path>
</svg>
