<!-- Generated by IcoMoon.io -->
<svg version="1.1" xmlns="http://www.w3.org/2000/svg" width="30" height="30" viewBox="0 0 30 30" xml:space="preserve" preserveAspectRatio="none" fill="{{shape_color}}" class="cp-target">
<title>arrow_circle_o_up</title>
<path d="M21.836 14.609c-0.098 0.234-0.332 0.391-0.586 0.391h-3.75v6.875c0 0.352-0.273 0.625-0.625 0.625h-3.75c-0.352 0-0.625-0.273-0.625-0.625v-6.875h-3.75c-0.352 0-0.625-0.273-0.625-0.625 0-0.176 0.078-0.332 0.195-0.469l6.23-6.23c0.137-0.117 0.293-0.176 0.449-0.176s0.313 0.059 0.449 0.176l6.25 6.25c0.176 0.195 0.234 0.449 0.137 0.684zM15 4.375c-5.859 0-10.625 4.766-10.625 10.625s4.766 10.625 10.625 10.625 10.625-4.766 10.625-10.625-4.766-10.625-10.625-10.625zM30 15c0 8.281-6.719 15-15 15s-15-6.719-15-15 6.719-15 15-15v0c8.281 0 15 6.719 15 15z"></path>
</svg>
