<!-- Generated by IcoMoon.io -->
<svg version="1.1" xmlns="http://www.w3.org/2000/svg" width="32" height="30" viewBox="0 0 32 30" xml:space="preserve" preserveAspectRatio="none" fill="{{shape_color}}" class="cp-target">
<title>arrow_up</title>
<path d="M31.948 15.876c0 0.693-0.285 1.345-0.754 1.834l-1.529 1.529c-0.489 0.489-1.162 0.774-1.855 0.774s-1.365-0.285-1.834-0.774l-5.992-5.971v14.348c0 1.467-1.223 2.385-2.609 2.385h-2.609c-1.386 0-2.609-0.917-2.609-2.385v-14.348l-5.992 5.971c-0.469 0.489-1.141 0.774-1.834 0.774s-1.365-0.285-1.834-0.774l-1.529-1.529c-0.489-0.489-0.774-1.141-0.774-1.834s0.285-1.365 0.774-1.855l13.268-13.268c0.469-0.489 1.141-0.754 1.834-0.754s1.365 0.265 1.855 0.754l13.268 13.268c0.469 0.489 0.754 1.162 0.754 1.855z"></path>
</svg>
