<!-- Generated by IcoMoon.io -->
<svg version="1.1" xmlns="http://www.w3.org/2000/svg" width="28" height="30" viewBox="0 0 28 30" xml:space="preserve" preserveAspectRatio="none" fill="{{shape_color}}" class="cp-target">
<title>asterisk</title>
<path d="M26.624 18.008c1.191 0.684 1.602 2.227 0.918 3.418l-1.25 2.148c-0.684 1.191-2.227 1.602-3.418 0.918l-5.195-2.988v5.996c0 1.367-1.133 2.5-2.5 2.5h-2.5c-1.367 0-2.5-1.133-2.5-2.5v-5.996l-5.195 2.988c-1.191 0.684-2.734 0.273-3.418-0.918l-1.25-2.148c-0.684-1.191-0.273-2.734 0.918-3.418l5.195-3.008-5.195-3.008c-1.191-0.684-1.602-2.227-0.918-3.418l1.25-2.148c0.684-1.191 2.227-1.602 3.418-0.918l5.195 2.988v-5.996c0-1.367 1.133-2.5 2.5-2.5h2.5c1.367 0 2.5 1.133 2.5 2.5v5.996l5.195-2.988c1.191-0.684 2.734-0.273 3.418 0.918l1.25 2.148c0.684 1.191 0.273 2.734-0.918 3.418l-5.195 3.008z"></path>
</svg>
