<svg version="1.1" id="Layer_1" xmlns="http://www.w3.org/2000/svg" xmlns:xlink="http://www.w3.org/1999/xlink" x="0px" y="0px"
	 width="30" height="30" viewBox="0 0 96 95.049" enable-background="new 0 0 96 95.049" xml:space="preserve" preserveAspectRatio="none" fill="{{shape_color}}" class="cp-target">
<g enable-background="new    ">
	<path d="M90.686,30.783c-3.01-2.777-5.109-6.419-6.01-10.413c-1.637-7.243-7.939-12.53-15.355-12.883
		c-4.094-0.196-8.041-1.633-11.301-4.113c-5.906-4.498-14.133-4.498-20.04,0c-3.258,2.481-7.211,3.919-11.302,4.113
		c-7.416,0.353-13.719,5.64-15.353,12.884c-0.898,3.993-3.004,7.635-6.01,10.412C-0.142,35.82-1.568,43.92,1.835,50.519
		c1.877,3.64,2.606,7.78,2.087,11.845c-0.944,7.365,3.172,14.488,10.021,17.357c3.777,1.582,6.998,4.287,9.211,7.729
		c4.014,6.248,11.741,9.059,18.832,6.855c3.912-1.217,8.117-1.215,12.027,0c7.092,2.203,14.82-0.609,18.834-6.855
		c2.213-3.441,5.434-6.146,9.211-7.729c6.852-2.869,10.959-9.992,10.02-17.357c-0.52-4.063,0.211-8.205,2.088-11.845
		C97.568,43.92,96.141,35.82,90.686,30.783z M90.852,48.811c-2.236,4.334-3.09,9.186-2.473,14.025
		c0.729,5.699-2.463,11.229-7.76,13.447c-4.502,1.885-8.275,5.051-10.91,9.154c-2.367,3.684-6.406,5.883-10.801,5.883
		c-1.281,0-2.557-0.193-3.787-0.574c-4.609-1.434-9.631-1.434-14.242,0c-1.226,0.381-2.5,0.574-3.79,0.574
		c-4.396,0-8.433-2.199-10.8-5.885c-2.634-4.102-6.404-7.268-10.906-9.152c-5.3-2.219-8.492-7.748-7.764-13.447
		c0.619-4.84-0.236-9.689-2.471-14.023c-2.634-5.107-1.526-11.395,2.693-15.289c3.587-3.314,6.049-7.579,7.119-12.333
		c1.264-5.603,6.154-9.706,11.892-9.979c4.872-0.23,9.5-1.914,13.384-4.869c2.245-1.71,4.93-2.613,7.763-2.613
		c2.833,0,5.516,0.903,7.762,2.61c3.881,2.954,8.508,4.639,13.379,4.871c5.74,0.273,10.633,4.379,11.898,9.981
		c1.072,4.759,3.533,9.022,7.119,12.331C92.375,37.419,93.482,43.708,90.852,48.811z"/>
	<path d="M80.064,21.413c-1.168-5.166-5.682-8.949-10.973-9.202c-5.074-0.243-9.895-1.997-13.938-5.073
		C53.086,5.562,50.611,4.729,48,4.729s-5.087,0.833-7.156,2.407c-4.045,3.08-8.867,4.834-13.941,5.073
		c-5.291,0.253-9.799,4.036-10.964,9.2c-1.115,4.953-3.68,9.396-7.417,12.848C4.63,37.85,3.611,43.646,6.04,48.354
		c2.328,4.516,3.219,9.566,2.574,14.609c-0.672,5.254,2.271,10.354,7.158,12.396c4.688,1.967,8.617,5.264,11.361,9.535
		c2.182,3.396,5.904,5.426,9.958,5.426c1.188,0,2.363-0.18,3.492-0.529c2.401-0.746,4.897-1.123,7.417-1.123
		c2.522,0,5.016,0.377,7.418,1.123c1.135,0.352,2.309,0.529,3.49,0.529c4.053,0,7.777-2.027,9.959-5.424
		c2.746-4.275,6.676-7.572,11.365-9.537c4.885-2.045,7.826-7.143,7.154-12.396c-0.646-5.043,0.246-10.096,2.574-14.611
		c2.428-4.705,1.404-10.5-2.48-14.094C83.744,30.811,81.18,26.37,80.064,21.413z"/>
</g>
</svg>
