<!-- Generated by IcoMoon.io -->
<svg version="1.1" xmlns="http://www.w3.org/2000/svg" width="15" height="30" viewBox="0 0 15 30" xml:space="preserve" preserveAspectRatio="none" fill="{{shape_color}}" class="cp-target">
<title>bolt</title>
<path d="M14.816 9.475c0.184 0.201 0.234 0.485 0.117 0.737l-9.040 19.369c-0.134 0.251-0.402 0.419-0.703 0.419-0.067 0-0.151-0.017-0.234-0.033-0.368-0.117-0.586-0.469-0.502-0.82l3.298-13.527-6.797 1.691c-0.067 0.017-0.134 0.017-0.201 0.017-0.184 0-0.385-0.067-0.519-0.184-0.201-0.167-0.268-0.419-0.218-0.653l3.365-13.811c0.084-0.318 0.385-0.536 0.737-0.536h5.491c0.419 0 0.753 0.318 0.753 0.703 0 0.1-0.033 0.201-0.084 0.301l-2.863 7.751 6.629-1.641c0.067-0.017 0.134-0.033 0.201-0.033 0.218 0 0.419 0.1 0.569 0.251z"></path>
</svg>
