<!-- Generated by IcoMoon.io -->
<svg version="1.1" xmlns="http://www.w3.org/2000/svg" width="26" height="30" viewBox="0 0 26 30" xml:space="preserve" preserveAspectRatio="none" fill="{{shape_color}}" class="cp-target">
<title>bookmark</title>
<path d="M23.247 0c0.297 0 0.595 0.059 0.872 0.178 0.872 0.337 1.428 1.15 1.428 2.042v25.559c0 0.892-0.555 1.705-1.428 2.042-0.278 0.119-0.575 0.159-0.872 0.159-0.615 0-1.19-0.218-1.646-0.635l-8.744-8.407-8.744 8.407c-0.456 0.416-1.031 0.654-1.646 0.654-0.297 0-0.595-0.059-0.872-0.178-0.872-0.337-1.428-1.15-1.428-2.042v-25.559c0-0.892 0.555-1.705 1.428-2.042 0.278-0.119 0.575-0.178 0.872-0.178h20.78z"></path>
</svg>
