<!-- Generated by IcoMoon.io -->
<svg version="1.1" xmlns="http://www.w3.org/2000/svg" width="34" height="30" viewBox="0 0 34 30" xml:space="preserve" preserveAspectRatio="none" fill="{{shape_color}}" class="cp-target">
<title>camera</title>
<path d="M17.143 12.143c2.839 0 5.143 2.304 5.143 5.143s-2.304 5.143-5.143 5.143-5.143-2.304-5.143-5.143 2.304-5.143 5.143-5.143zM29.715 4.714c2.518 0 4.572 2.054 4.572 4.572v16c0 2.518-2.054 4.572-4.572 4.572h-25.143c-2.518 0-4.572-2.054-4.572-4.572v-16c0-2.518 2.054-4.572 4.572-4.572h4l0.911-2.429c0.446-1.179 1.839-2.143 3.089-2.143h9.143c1.25 0 2.643 0.964 3.089 2.143l0.911 2.429h4zM17.143 25.286c4.411 0 8-3.589 8-8s-3.589-8-8-8-8 3.589-8 8 3.589 8 8 8z"></path>
</svg>
