<!-- Generated by IcoMoon.io -->
<svg version="1.1" xmlns="http://www.w3.org/2000/svg" width="45" height="30" viewBox="0 0 45 30" xml:space="preserve" preserveAspectRatio="none" fill="{{shape_color}}" class="cp-target">
<title>cc_amex</title>
<path d="M2.324 10.82h1.738l-0.879-2.109zM14.453 21.094l1.445-1.543-1.367-1.543h-3.184v0.957h2.773v1.074h-2.773v1.055h3.105zM17.539 19.57l1.934 2.148v-4.238zM23.164 18.652c0-0.469-0.352-0.645-0.781-0.645h-1.641v1.348h1.621c0.449 0 0.801-0.215 0.801-0.703zM28.808 18.574c0-0.488-0.43-0.566-0.82-0.566h-1.602v1.191h1.582c0.43 0 0.84-0.098 0.84-0.625zM23.379 9.473c0-0.488-0.43-0.566-0.82-0.566h-1.602v1.172h1.582c0.43 0 0.84-0.098 0.84-0.605zM32.344 10.82h1.738l-0.859-2.109zM13.652 7.793v5.293h-1.289v-4.141l-1.836 4.141h-1.113l-1.836-4.141v4.141h-2.578l-0.488-1.172h-2.637l-0.488 1.172h-1.367l2.266-5.293h1.875l2.148 5.019v-5.019h2.070l1.66 3.594 1.504-3.594h2.109zM24.512 18.652c0 2.129-2.324 1.777-3.77 1.777v1.777h-2.461l-1.562-1.758-1.621 1.758h-5v-5.293h5.078l1.562 1.738 1.602-1.738h4.043c1.191 0 2.129 0.41 2.129 1.738zM18.828 11.992v1.094h-4.238v-5.293h4.238v1.113h-2.969v0.957h2.891v1.074h-2.891v1.055h2.969zM45 22.91v4.473c0 1.426-1.152 2.617-2.578 2.617h-39.844c-1.426 0-2.578-1.191-2.578-2.617v-13.242h2.168l0.488-1.191h1.074l0.488 1.191h4.258v-0.898l0.371 0.898h2.207l0.391-0.918v0.918h10.566v-1.934l0.195-0.020c0.176 0 0.195 0.137 0.195 0.273v1.68h5.449v-0.449c1.27 0.664 3.008 0.449 4.336 0.449l0.488-1.191h1.094l0.488 1.191h4.434v-1.133l0.664 1.133h3.555v-7.383h-3.516v0.859l-0.488-0.859h-3.613v0.859l-0.449-0.859h-4.863c-0.723 0-1.484 0.078-2.129 0.43v-0.43h-3.359v0.43c-0.391-0.352-0.918-0.43-1.426-0.43h-12.266l-0.84 1.895-0.84-1.895h-3.867v0.859l-0.43-0.859h-3.301l-1.523 3.496v-7.637c0-1.426 1.152-2.617 2.578-2.617h39.844c1.426 0 2.578 1.191 2.578 2.617v13.242h-2.344c-0.547 0-1.133 0.098-1.582 0.43v-0.43h-3.457c-0.488 0-1.152 0.078-1.523 0.43v-0.43h-6.172v0.43c-0.469-0.332-1.152-0.43-1.699-0.43h-4.082v0.43c-0.41-0.391-1.25-0.43-1.777-0.43h-4.57l-1.055 1.133-0.977-1.133h-6.816v7.383h6.699l1.074-1.152 1.016 1.152h4.121v-1.738h0.41c0.586 0 1.191-0.020 1.758-0.254v1.992h3.398v-1.934h0.156c0.195 0 0.234 0.020 0.234 0.234v1.699h10.332c0.566 0 1.27-0.117 1.719-0.469v0.469h3.281c0.625 0 1.289-0.059 1.855-0.332zM30.195 18.34c0 0.586-0.313 1.172-0.898 1.406 0.703 0.254 0.84 0.723 0.84 1.406v1.055h-1.27v-0.879c0-0.898-0.293-1.055-1.133-1.055h-1.348v1.934h-1.27v-5.293h3.008c0.996 0 2.070 0.176 2.070 1.426zM24.785 9.219c0 0.605-0.332 1.191-0.898 1.426 0.723 0.254 0.84 0.703 0.84 1.406v1.035h-1.27c-0.020-1.133 0.273-1.914-1.133-1.914h-1.367v1.914h-1.25v-5.293l2.988 0.020c1.016 0 2.090 0.156 2.090 1.406zM35.117 21.113v1.094h-4.219v-5.293h4.219v1.094h-2.949v0.957h2.891v1.074h-2.891v1.055zM26.797 7.793v5.293h-1.289v-5.293h1.289zM40.332 20.527c0 1.25-0.859 1.68-1.992 1.68h-2.461v-1.133h2.461c0.313 0 0.664-0.078 0.664-0.488 0-1.133-3.262 0.43-3.262-2.090 0-1.074 0.82-1.582 1.797-1.582h2.539v1.113h-2.324c-0.332 0-0.703 0.059-0.703 0.488 0 1.152 3.281-0.527 3.281 2.012zM45 19.551v1.973c-0.371 0.547-1.094 0.684-1.719 0.684h-2.441v-1.133h2.441c0.313 0 0.645-0.098 0.645-0.488 0-1.113-3.262 0.43-3.262-2.090 0-1.074 0.84-1.582 1.816-1.582h2.52v1.113h-2.305c-0.352 0-0.703 0.059-0.703 0.488 0 0.938 2.207-0.020 3.008 1.035zM41.777 7.812v5.273h-1.797l-2.383-3.965v3.965h-2.578l-0.508-1.172h-2.617l-0.488 1.172h-1.465c-1.738 0-2.52-0.898-2.52-2.598 0-1.777 0.801-2.695 2.598-2.695h1.23v1.152c-1.328-0.020-2.539-0.313-2.539 1.504 0 0.898 0.215 1.523 1.23 1.523h0.566l1.797-4.16h1.895l2.129 5v-5h1.934l2.227 3.672v-3.672h1.289z"></path>
</svg>
