<!-- Generated by IcoMoon.io -->
<svg version="1.1" xmlns="http://www.w3.org/2000/svg" width="45" height="30" viewBox="0 0 45 30" xml:space="preserve" preserveAspectRatio="none" fill="{{shape_color}}" class="cp-target">
<title>cc_discover</title>
<path d="M6.113 12.676c0 0.625-0.254 1.23-0.703 1.641-0.391 0.352-0.918 0.508-1.738 0.508h-0.332v-4.297h0.332c0.82 0 1.328 0.137 1.738 0.527 0.449 0.391 0.703 0.996 0.703 1.621zM40.801 11.406c0 0.664-0.43 1.016-1.25 1.016h-0.371v-1.973h0.391c0.801 0 1.23 0.332 1.23 0.957zM7.422 12.676c0-1.914-1.426-3.262-3.496-3.262h-1.855v6.504h1.855c0.977 0 1.699-0.215 2.324-0.742 0.742-0.625 1.172-1.543 1.172-2.5zM8.008 15.918h1.27v-6.504h-1.27v6.504zM14.258 13.945c0-1.035-0.43-1.504-1.875-2.031-0.762-0.273-0.977-0.469-0.977-0.82 0-0.41 0.391-0.723 0.938-0.723 0.391 0 0.703 0.156 1.035 0.527l0.664-0.859c-0.547-0.488-1.211-0.723-1.914-0.723-1.152 0-2.031 0.801-2.031 1.855 0 0.898 0.41 1.367 1.602 1.797 0.488 0.176 0.742 0.273 0.879 0.371 0.254 0.156 0.371 0.391 0.371 0.664 0 0.527-0.41 0.918-0.977 0.918-0.605 0-1.094-0.293-1.387-0.859l-0.82 0.781c0.586 0.859 1.289 1.25 2.246 1.25 1.328 0 2.246-0.879 2.246-2.148zM19.688 15.703v-1.504c-0.508 0.508-0.957 0.723-1.523 0.723-1.289 0-2.188-0.938-2.188-2.246 0-1.25 0.938-2.246 2.129-2.246 0.605 0 1.055 0.215 1.582 0.742v-1.504c-0.547-0.273-1.016-0.391-1.562-0.391-1.914 0-3.457 1.504-3.457 3.398 0 1.914 1.504 3.398 3.437 3.398 0.547 0 1.016-0.098 1.582-0.371zM43.75 27.5v-10.293c-3.125 1.953-14.121 8.203-31.895 11.543h30.645c0.684 0 1.25-0.566 1.25-1.25zM27.129 12.715c0-1.953-1.582-3.535-3.535-3.535s-3.535 1.582-3.535 3.535 1.582 3.535 3.535 3.535 3.535-1.582 3.535-3.535zM30.098 16.094l2.813-6.68h-1.387l-1.758 4.375-1.738-4.375h-1.387l2.773 6.68h0.684zM33.477 15.918h3.594v-1.094h-2.324v-1.758h2.246v-1.094h-2.246v-1.445h2.324v-1.113h-3.594v6.504zM41.113 15.918h1.562l-2.051-2.734c0.957-0.195 1.484-0.84 1.484-1.836 0-1.23-0.84-1.934-2.305-1.934h-1.895v6.504h1.27v-2.598h0.176zM45 2.617v24.766c0 1.445-1.152 2.617-2.578 2.617h-39.844c-1.426 0-2.578-1.172-2.578-2.617v-24.766c0-1.445 1.152-2.617 2.578-2.617h39.844c1.426 0 2.578 1.172 2.578 2.617z"></path>
</svg>
