<!-- Generated by IcoMoon.io -->
<svg version="1.1" xmlns="http://www.w3.org/2000/svg" width="45" height="30" viewBox="0 0 45 30" xml:space="preserve" preserveAspectRatio="none" fill="{{shape_color}}" class="cp-target">
<title>cc_mastercard</title>
<path d="M21.855 4.16c-1.621-1.074-3.535-1.66-5.488-1.66-5.488 0-9.941 4.453-9.941 9.922 0 5.488 4.453 9.941 9.941 9.941 1.953 0 3.867-0.586 5.488-1.66-5.234-4.258-5.195-12.285 0-16.543zM22.5 4.629c-5.039 3.965-5.059 11.66 0 15.605 5.059-3.945 5.039-11.641 0-15.605zM23.145 4.16c5.176 4.258 5.254 12.305 0 16.543 1.621 1.074 3.555 1.66 5.488 1.66 5.488 0 9.941-4.453 9.941-9.941 0-5.469-4.453-9.922-9.941-9.922-1.953 0-3.867 0.586-5.488 1.66zM37.617 18.262h0.137v-0.059h-0.332v0.059h0.137v0.332h0.059v-0.332zM38.184 18.594h0.078v-0.391h-0.098l-0.117 0.254-0.117-0.254h-0.098v0.391h0.059v-0.293l0.117 0.254h0.078l0.098-0.254v0.293zM38.027 27.187v0.039h-0.098v-0.059h0.098v0.020zM38.027 27.363h0.059l-0.078-0.098c0.039 0 0.039-0.020 0.059-0.020 0.020-0.020 0.020-0.039 0.020-0.059s0-0.039-0.020-0.059c-0.020 0-0.039-0.020-0.078-0.020h-0.117v0.254h0.059v-0.098h0.020zM13.379 26.035c0-0.469 0.293-0.84 0.801-0.84 0.469 0 0.781 0.371 0.781 0.84 0 0.488-0.313 0.84-0.781 0.84-0.508 0-0.801-0.371-0.801-0.84zM22.617 25.176c0.371 0 0.625 0.215 0.684 0.625h-1.367c0.059-0.371 0.293-0.625 0.684-0.625zM29.57 26.035c0-0.469 0.293-0.84 0.781-0.84s0.801 0.371 0.801 0.84c0 0.488-0.313 0.84-0.801 0.84s-0.781-0.371-0.781-0.84zM34.883 26.035c0-0.469 0.313-0.84 0.801-0.84 0.469 0 0.801 0.371 0.801 0.84 0 0.488-0.332 0.84-0.801 0.84-0.488 0-0.801-0.371-0.801-0.84zM37.969 27.441c-0.020 0-0.039 0-0.078-0.020-0.020 0-0.039-0.020-0.059-0.039s-0.039-0.039-0.039-0.059-0.020-0.059-0.020-0.078 0-0.059 0.020-0.078c0-0.039 0.020-0.059 0.039-0.078s0.039-0.020 0.059-0.039 0.059-0.020 0.078-0.020 0.059 0 0.078 0.020 0.059 0.020 0.078 0.039 0.020 0.039 0.039 0.078c0 0.020 0.020 0.039 0.020 0.078 0 0.020-0.020 0.039-0.020 0.078-0.020 0.020-0.020 0.039-0.039 0.059s-0.039 0.039-0.078 0.039c-0.020 0.020-0.039 0.020-0.078 0.020zM11.699 27.363h0.586v-1.66c0-0.625-0.41-1.035-1.055-1.055-0.332 0-0.684 0.098-0.918 0.469-0.176-0.293-0.469-0.469-0.879-0.469-0.273 0-0.547 0.098-0.762 0.391v-0.313h-0.586v2.637h0.586v-1.465c0-0.469 0.254-0.703 0.645-0.703s0.586 0.254 0.586 0.703v1.465h0.566v-1.465c0-0.469 0.273-0.703 0.645-0.703 0.391 0 0.586 0.254 0.586 0.703v1.465zM14.941 27.363h0.566v-2.637h-0.566v0.313c-0.195-0.234-0.469-0.391-0.84-0.391-0.742 0-1.309 0.586-1.309 1.387s0.566 1.387 1.309 1.387c0.371 0 0.645-0.137 0.84-0.391v0.332zM18.418 26.562c0-0.469-0.352-0.703-0.918-0.781l-0.273-0.039c-0.254-0.039-0.449-0.098-0.449-0.273s0.176-0.293 0.488-0.293c0.352 0 0.664 0.117 0.84 0.215l0.234-0.469c-0.273-0.176-0.645-0.273-1.074-0.273-0.664 0-1.094 0.332-1.094 0.859 0 0.43 0.313 0.684 0.918 0.762l0.254 0.039c0.332 0.059 0.469 0.137 0.469 0.273 0 0.215-0.215 0.332-0.605 0.332s-0.684-0.137-0.879-0.273l-0.254 0.449c0.313 0.215 0.703 0.332 1.133 0.332 0.762 0 1.211-0.352 1.211-0.859zM20.957 27.226l-0.156-0.488c-0.176 0.098-0.352 0.137-0.508 0.137-0.293 0-0.371-0.176-0.371-0.43v-1.191h0.938v-0.527h-0.938v-0.801h-0.586v0.801h-0.547v0.527h0.547v1.191c0 0.605 0.234 0.977 0.918 0.977 0.234 0 0.527-0.078 0.703-0.195zM22.637 24.648c-0.762 0-1.309 0.566-1.309 1.387 0 0.84 0.566 1.387 1.348 1.387 0.391 0 0.762-0.098 1.074-0.371l-0.273-0.43c-0.215 0.176-0.508 0.293-0.762 0.293-0.371 0-0.703-0.176-0.801-0.645h1.973v-0.234c0-0.82-0.508-1.387-1.25-1.387zM25.742 24.648c-0.332 0-0.547 0.156-0.684 0.391v-0.313h-0.586v2.637h0.586v-1.484c0-0.43 0.176-0.684 0.566-0.684 0.117 0 0.234 0.020 0.352 0.078l0.176-0.547c-0.137-0.059-0.293-0.078-0.41-0.078zM26.328 26.035c0 0.801 0.547 1.387 1.406 1.387 0.391 0 0.664-0.078 0.938-0.313l-0.273-0.469c-0.215 0.156-0.43 0.254-0.684 0.234-0.469 0-0.801-0.332-0.801-0.84s0.332-0.84 0.801-0.84c0.254 0 0.469 0.078 0.684 0.234l0.273-0.469c-0.273-0.215-0.547-0.313-0.938-0.313-0.859 0-1.406 0.586-1.406 1.387zM31.113 27.363h0.586v-2.637h-0.586v0.313c-0.176-0.234-0.449-0.391-0.82-0.391-0.742 0-1.328 0.586-1.328 1.387s0.586 1.387 1.328 1.387c0.371 0 0.645-0.137 0.82-0.391v0.332zM33.711 24.648c-0.332 0-0.547 0.156-0.684 0.391v-0.313h-0.566v2.637h0.566v-1.484c0-0.43 0.195-0.684 0.566-0.684 0.117 0 0.234 0.020 0.352 0.078l0.176-0.547c-0.117-0.059-0.293-0.078-0.41-0.078zM36.445 27.363h0.566v-3.711h-0.566v1.387c-0.176-0.234-0.449-0.391-0.84-0.391-0.723 0-1.309 0.586-1.309 1.387s0.586 1.387 1.309 1.387c0.391 0 0.664-0.137 0.84-0.391v0.332zM37.969 26.973c-0.020 0-0.059 0.020-0.098 0.020-0.039 0.020-0.059 0.039-0.078 0.059-0.039 0.020-0.059 0.059-0.059 0.078-0.020 0.039-0.020 0.078-0.020 0.117 0 0.020 0 0.059 0.020 0.098 0 0.020 0.020 0.059 0.059 0.078 0.020 0.020 0.039 0.039 0.078 0.059s0.078 0.020 0.098 0.020c0.039 0 0.078 0 0.117-0.020 0.020-0.020 0.059-0.039 0.078-0.059s0.039-0.059 0.059-0.078c0.020-0.039 0.020-0.078 0.020-0.098 0-0.039 0-0.078-0.020-0.117-0.020-0.020-0.039-0.059-0.059-0.078s-0.059-0.039-0.078-0.059c-0.039 0-0.078-0.020-0.117-0.020zM45 2.5v25c0 1.367-1.133 2.5-2.5 2.5h-40c-1.367 0-2.5-1.133-2.5-2.5v-25c0-1.367 1.133-2.5 2.5-2.5h40c1.367 0 2.5 1.133 2.5 2.5z"></path>
</svg>
