<!-- Generated by IcoMoon.io -->
<svg version="1.1" xmlns="http://www.w3.org/2000/svg" width="45" height="30" viewBox="0 0 45 30" xml:space="preserve" preserveAspectRatio="none" fill="{{shape_color}}" class="cp-target">
<title>cc_ppl</title>
<path d="M14.551 15.195c0 0.957-0.762 1.68-1.719 1.68-0.723 0-1.25-0.41-1.25-1.172 0-0.957 0.742-1.719 1.699-1.719 0.723 0 1.27 0.449 1.27 1.211zM29.883 12.285c0 1.172-0.703 1.406-1.719 1.406l-0.625 0.020 0.332-2.090c0.020-0.137 0.117-0.215 0.254-0.215h0.352c0.664 0 1.406 0.039 1.406 0.879zM36.738 15.195c0 0.957-0.762 1.68-1.699 1.68-0.723 0-1.27-0.41-1.27-1.172 0-0.957 0.742-1.719 1.699-1.719 0.723 0 1.27 0.449 1.27 1.211zM10.020 11.855c0-1.641-1.27-2.188-2.715-2.188h-3.125c-0.195 0-0.391 0.156-0.41 0.371l-1.27 7.969c-0.020 0.156 0.098 0.313 0.254 0.313h1.484c0.215 0 0.41-0.156 0.43-0.371l0.352-2.148c0.078-0.566 1.035-0.371 1.406-0.371 2.227 0 3.594-1.328 3.594-3.574zM16.055 17.949l0.801-5.098c0.020-0.156-0.098-0.313-0.254-0.313h-1.484c-0.293 0-0.313 0.43-0.332 0.645-0.449-0.664-1.113-0.781-1.855-0.781-1.914 0-3.379 1.68-3.379 3.535 0 1.523 0.957 2.52 2.48 2.52 0.703 0 1.582-0.313 2.070-0.859-0.039 0.117-0.078 0.293-0.078 0.41 0 0.176 0.078 0.313 0.254 0.313h1.348c0.215 0 0.391-0.156 0.43-0.371zM24.785 12.812c0-0.137-0.117-0.273-0.254-0.273h-1.504c-0.137 0-0.273 0.078-0.352 0.195l-2.070 3.047-0.859-2.93c-0.059-0.176-0.234-0.313-0.43-0.313h-1.465c-0.137 0-0.254 0.137-0.254 0.273 0 0.098 1.523 4.512 1.66 4.922-0.215 0.293-1.602 2.109-1.602 2.344 0 0.137 0.117 0.254 0.254 0.254h1.504c0.137 0 0.273-0.078 0.352-0.195l4.98-7.187c0.039-0.039 0.039-0.078 0.039-0.137zM32.207 11.855c0-1.641-1.27-2.188-2.715-2.188h-3.105c-0.215 0-0.41 0.156-0.43 0.371l-1.27 7.969c-0.020 0.156 0.098 0.313 0.254 0.313h1.602c0.156 0 0.273-0.117 0.313-0.254l0.352-2.266c0.078-0.566 1.035-0.371 1.406-0.371 2.227 0 3.594-1.328 3.594-3.574zM38.242 17.949l0.801-5.098c0.020-0.156-0.098-0.313-0.254-0.313h-1.484c-0.293 0-0.313 0.43-0.332 0.645-0.43-0.664-1.094-0.781-1.855-0.781-1.914 0-3.379 1.68-3.379 3.535 0 1.523 0.957 2.52 2.48 2.52 0.723 0 1.602-0.313 2.070-0.859-0.020 0.117-0.078 0.293-0.078 0.41 0 0.176 0.078 0.313 0.254 0.313h1.348c0.215 0 0.391-0.156 0.43-0.371zM42.5 9.961v-0.020c0-0.156-0.117-0.273-0.254-0.273h-1.445c-0.117 0-0.234 0.098-0.254 0.215l-1.27 8.125-0.020 0.039c0 0.137 0.117 0.273 0.273 0.273h1.289c0.195 0 0.391-0.156 0.41-0.371zM7.656 12.578c-0.156 0.996-0.82 1.113-1.68 1.113l-0.645 0.020 0.332-2.090c0.020-0.137 0.137-0.215 0.254-0.215h0.371c0.879 0 1.543 0.117 1.367 1.172zM45 2.5v25c0 1.367-1.133 2.5-2.5 2.5h-40c-1.367 0-2.5-1.133-2.5-2.5v-25c0-1.367 1.133-2.5 2.5-2.5h40c1.367 0 2.5 1.133 2.5 2.5z"></path>
</svg>
