<!-- Generated by IcoMoon.io -->
<svg version="1.1" xmlns="http://www.w3.org/2000/svg" width="45" height="30" viewBox="0 0 45 30" xml:space="preserve" preserveAspectRatio="none" fill="{{shape_color}}" class="cp-target">
<title>cc_stripe</title>
<path d="M31.191 15.137c0 0.898-0.137 1.582-0.41 2.070-0.234 0.43-0.605 0.684-1.016 0.684-0.293 0-0.566-0.059-0.801-0.176v-4.375c0.508-0.527 0.957-0.586 1.113-0.586 0.742 0 1.113 0.82 1.113 2.383zM39.746 14.434h-2.148c0.078-1.309 0.43-1.914 1.094-1.914s1.016 0.625 1.055 1.914zM9.297 17.070c0-1.641-0.996-2.324-2.617-2.91v0c-0.859-0.313-1.328-0.566-1.328-0.957 0-0.332 0.273-0.508 0.742-0.508 0.898 0 1.797 0.332 2.422 0.645l0.352-2.188c-0.488-0.234-1.504-0.625-2.91-0.625-0.996 0-1.816 0.254-2.402 0.742-0.625 0.508-0.938 1.25-0.938 2.129 0 1.602 0.977 2.305 2.578 2.871 1.016 0.371 1.367 0.625 1.367 1.035 0 0.391-0.332 0.605-0.938 0.605-0.742 0-1.973-0.371-2.773-0.84l-0.352 2.207c0.684 0.391 1.953 0.801 3.281 0.801 1.055 0 1.914-0.254 2.52-0.723 0.664-0.527 0.996-1.289 0.996-2.285zM15.059 12.871l0.371-2.168h-1.875v-2.637l-2.52 0.41-0.352 2.227-0.898 0.156-0.332 2.012h1.211v4.277c0 1.113 0.293 1.875 0.859 2.344 0.488 0.391 1.191 0.586 2.168 0.586 0.762 0 1.211-0.137 1.543-0.215v-2.305c-0.176 0.039-0.586 0.137-0.859 0.137-0.566 0-0.82-0.313-0.82-0.977v-3.848h1.504zM21.231 13.359v-2.715c-0.195-0.039-0.371-0.059-0.547-0.059-0.82 0-1.484 0.43-1.738 1.211l-0.195-1.094h-2.559v9.199h2.93v-5.977c0.371-0.449 0.898-0.605 1.602-0.605 0.156 0 0.313 0 0.508 0.039zM21.953 19.902h2.93v-9.199h-2.93v9.199zM34.102 15.039c0-1.562-0.293-2.754-0.879-3.496-0.527-0.684-1.25-1.016-2.168-1.016-0.84 0-1.582 0.352-2.285 1.094l-0.156-0.918h-2.578v12.598l2.93-0.488v-2.949c0.449 0.137 0.918 0.215 1.328 0.215 0.723 0 1.797-0.195 2.617-1.094 0.801-0.859 1.191-2.188 1.191-3.945zM24.961 8.242c0-0.859-0.684-1.543-1.543-1.543s-1.543 0.684-1.543 1.543 0.684 1.562 1.543 1.562 1.543-0.703 1.543-1.562zM42.5 15.215c0-1.465-0.313-2.617-0.938-3.437-0.645-0.82-1.602-1.25-2.813-1.25-2.5 0-4.043 1.836-4.043 4.805 0 1.641 0.41 2.891 1.23 3.672 0.723 0.723 1.777 1.074 3.145 1.074 1.25 0 2.402-0.293 3.125-0.781l-0.313-2.012c-0.723 0.391-1.562 0.605-2.5 0.605-0.566 0-0.957-0.117-1.23-0.371-0.313-0.254-0.488-0.684-0.547-1.289h4.844c0.020-0.137 0.039-0.801 0.039-1.016zM45 2.5v25c0 1.367-1.133 2.5-2.5 2.5h-40c-1.367 0-2.5-1.133-2.5-2.5v-25c0-1.367 1.133-2.5 2.5-2.5h40c1.367 0 2.5 1.133 2.5 2.5z"></path>
</svg>
