<!-- Generated by IcoMoon.io -->
<svg version="1.1" xmlns="http://www.w3.org/2000/svg" width="45" height="30" viewBox="0 0 45 30" xml:space="preserve" preserveAspectRatio="none" fill="{{shape_color}}" class="cp-target">
<title>cc_visa</title>
<path d="M38.574 16.836h-2.695c0 0 0.273-0.723 1.289-3.496-0.020 0.020 0.273-0.723 0.43-1.191l0.234 1.074c0.605 2.988 0.742 3.613 0.742 3.613zM10.371 15.566l-1.133-5.762c-0.156-0.801-0.762-1.055-1.465-1.055h-5.234l-0.039 0.254c3.594 0.918 6.543 2.871 7.871 6.563zM13.867 8.75l-3.164 8.555-0.332-1.738c-0.684-1.816-2.344-3.496-4.219-4.258l2.637 9.961h3.418l5.098-12.52h-3.437zM16.582 21.289h3.242l2.031-12.539h-3.242zM31.582 9.063c-0.645-0.254-1.66-0.527-2.91-0.527-3.203 0-5.449 1.699-5.469 4.141-0.020 1.797 1.602 2.793 2.832 3.398 1.27 0.605 1.68 1.016 1.68 1.562 0 0.84-1.016 1.211-1.934 1.211-1.309 0-2.012-0.156-3.047-0.645l-0.43-0.215-0.449 2.813c0.762 0.352 2.148 0.664 3.613 0.664 3.398 0.020 5.605-1.68 5.645-4.277 0-1.426-0.879-2.5-2.734-3.398-1.133-0.566-1.816-0.977-1.816-1.562 0-0.527 0.586-1.074 1.855-1.074 1.055-0.020 1.836 0.195 2.422 0.469l0.293 0.156zM39.883 8.75h-2.5c-0.781 0-1.367 0.234-1.699 1.055l-4.805 11.484h3.398c0.547-1.543 0.684-1.875 0.684-1.875h4.141c0 0 0.098 0.43 0.391 1.875h3.008zM45 2.5v25c0 1.367-1.133 2.5-2.5 2.5h-40c-1.367 0-2.5-1.133-2.5-2.5v-25c0-1.367 1.133-2.5 2.5-2.5h40c1.367 0 2.5 1.133 2.5 2.5z"></path>
</svg>
