<!-- Generated by IcoMoon.io -->
<svg version="1.1" xmlns="http://www.w3.org/2000/svg" width="30" height="30" viewBox="0 0 30 30" xml:space="preserve" preserveAspectRatio="none" fill="{{shape_color}}" class="cp-target">
<title>certificate</title>
<path d="M26.813 15l2.681 2.623c0.369 0.35 0.505 0.874 0.389 1.36-0.136 0.486-0.525 0.874-1.010 0.991l-3.653 0.933 1.030 3.614c0.136 0.486 0 1.010-0.369 1.36-0.35 0.369-0.874 0.505-1.36 0.369l-3.614-1.030-0.933 3.653c-0.117 0.486-0.505 0.874-0.991 1.010-0.117 0.019-0.253 0.039-0.369 0.039-0.369 0-0.738-0.155-0.991-0.427l-2.623-2.681-2.623 2.681c-0.35 0.369-0.874 0.505-1.36 0.389-0.505-0.136-0.874-0.525-0.991-1.010l-0.933-3.653-3.614 1.030c-0.486 0.136-1.010 0-1.36-0.369-0.369-0.35-0.505-0.874-0.369-1.36l1.030-3.614-3.653-0.933c-0.486-0.117-0.874-0.505-1.010-0.991-0.117-0.486 0.019-1.010 0.389-1.36l2.681-2.623-2.681-2.623c-0.369-0.35-0.505-0.874-0.389-1.36 0.136-0.486 0.525-0.874 1.010-0.991l3.653-0.933-1.030-3.614c-0.136-0.486 0-1.010 0.369-1.36 0.35-0.369 0.874-0.505 1.36-0.369l3.614 1.030 0.933-3.653c0.117-0.486 0.505-0.874 0.991-0.991 0.486-0.136 1.010 0 1.36 0.369l2.623 2.701 2.623-2.701c0.35-0.369 0.855-0.505 1.36-0.369 0.486 0.117 0.874 0.505 0.991 0.991l0.933 3.653 3.614-1.030c0.486-0.136 1.010 0 1.36 0.369 0.369 0.35 0.505 0.874 0.369 1.36l-1.030 3.614 3.653 0.933c0.486 0.117 0.874 0.505 1.010 0.991 0.117 0.486-0.019 1.010-0.389 1.36z"></path>
</svg>
