<!-- Generated by IcoMoon.io -->
<svg version="1.1" xmlns="http://www.w3.org/2000/svg" width="39" height="30" viewBox="0 0 39 30" xml:space="preserve" preserveAspectRatio="none" fill="{{shape_color}}" class="cp-target">
<title>check</title>
<path d="M38.571 5.992c0 0.622-0.249 1.244-0.697 1.692l-21.401 21.401c-0.448 0.448-1.070 0.697-1.692 0.697s-1.244-0.249-1.692-0.697l-12.393-12.393c-0.448-0.448-0.697-1.070-0.697-1.692s0.249-1.244 0.697-1.692l3.384-3.384c0.448-0.448 1.070-0.697 1.692-0.697s1.244 0.249 1.692 0.697l7.316 7.341 16.324-16.349c0.448-0.448 1.070-0.697 1.692-0.697s1.244 0.249 1.692 0.697l3.384 3.384c0.448 0.448 0.697 1.070 0.697 1.692z"></path>
</svg>
