<!-- Generated by IcoMoon.io -->
<svg version="1.1" xmlns="http://www.w3.org/2000/svg" width="30" height="30" viewBox="0 0 30 30" xml:space="preserve" preserveAspectRatio="none" fill="{{shape_color}}" class="cp-target">
<title>check_square</title>
<path d="M13.379 22.871l11.992-11.992c0.488-0.488 0.488-1.27 0-1.758l-1.992-1.992c-0.488-0.488-1.27-0.488-1.758 0l-9.121 9.121-4.121-4.121c-0.488-0.488-1.27-0.488-1.758 0l-1.992 1.992c-0.488 0.488-0.488 1.27 0 1.758l6.992 6.992c0.488 0.488 1.27 0.488 1.758 0zM30 5.625v18.75c0 3.105-2.52 5.625-5.625 5.625h-18.75c-3.105 0-5.625-2.52-5.625-5.625v-18.75c0-3.105 2.52-5.625 5.625-5.625h18.75c3.105 0 5.625 2.52 5.625 5.625z"></path>
</svg>
