<!-- Generated by IcoMoon.io -->
<svg version="1.1" xmlns="http://www.w3.org/2000/svg" width="30" height="30" viewBox="0 0 30 30" xml:space="preserve" preserveAspectRatio="none" fill="{{shape_color}}" class="cp-target">
<title>chevron_circle_up</title>
<path d="M22.754 19.746l1.992-1.992c0.488-0.488 0.488-1.27 0-1.758l-8.867-8.867c-0.488-0.488-1.27-0.488-1.758 0l-8.867 8.867c-0.488 0.488-0.488 1.27 0 1.758l1.992 1.992c0.488 0.488 1.27 0.488 1.758 0l5.996-5.996 5.996 5.996c0.488 0.488 1.27 0.488 1.758 0zM30 15c0 8.281-6.719 15-15 15s-15-6.719-15-15 6.719-15 15-15 15 6.719 15 15z"></path>
</svg>
