<!-- Generated by IcoMoon.io -->
<svg version="1.1" xmlns="http://www.w3.org/2000/svg" width="30" height="30" viewBox="0 0 30 30" xml:space="preserve" preserveAspectRatio="none" fill="{{shape_color}}" class="cp-target">
<title>clock_o</title>
<path d="M17.5 8.125v8.75c0 0.352-0.273 0.625-0.625 0.625h-6.25c-0.352 0-0.625-0.273-0.625-0.625v-1.25c0-0.352 0.273-0.625 0.625-0.625h4.375v-6.875c0-0.352 0.273-0.625 0.625-0.625h1.25c0.352 0 0.625 0.273 0.625 0.625zM25.625 15c0-5.859-4.766-10.625-10.625-10.625s-10.625 4.766-10.625 10.625 4.766 10.625 10.625 10.625 10.625-4.766 10.625-10.625zM30 15c0 8.281-6.719 15-15 15s-15-6.719-15-15 6.719-15 15-15 15 6.719 15 15z"></path>
</svg>
