<!-- Generated by IcoMoon.io -->
<svg version="1.1" xmlns="http://www.w3.org/2000/svg" width="30" height="30" viewBox="0 0 30 30" xml:space="preserve" preserveAspectRatio="none" fill="{{shape_color}}" class="cp-target">
<title>close</title>
<path d="M30 24.141c0 0.631-0.253 1.263-0.707 1.717l-3.434 3.434c-0.455 0.455-1.086 0.707-1.717 0.707s-1.263-0.253-1.717-0.707l-7.424-7.424-7.424 7.424c-0.455 0.455-1.086 0.707-1.717 0.707s-1.263-0.253-1.717-0.707l-3.434-3.434c-0.455-0.455-0.707-1.086-0.707-1.717s0.253-1.263 0.707-1.717l7.424-7.424-7.424-7.424c-0.455-0.455-0.707-1.086-0.707-1.717s0.253-1.263 0.707-1.717l3.434-3.434c0.455-0.455 1.086-0.707 1.717-0.707s1.263 0.253 1.717 0.707l7.424 7.424 7.424-7.424c0.455-0.455 1.086-0.707 1.717-0.707s1.263 0.253 1.717 0.707l3.434 3.434c0.455 0.455 0.707 1.086 0.707 1.717s-0.253 1.263-0.707 1.717l-7.424 7.424 7.424 7.424c0.455 0.455 0.707 1.086 0.707 1.717z"></path>
</svg>
