<svg version="1.1" id="cp_shape-1-content" xmlns="http://www.w3.org/2000/svg" xmlns:xlink="http://www.w3.org/1999/xlink" x="0px" y="0px" width="30" height="30" viewBox="0.546 1.093 99.454 98.907" enable-background="new 0.546 1.093 99.454 98.907" xml:space="preserve" preserveAspectRatio="none" fill="{{shape_color}}" class="cp-target">
<path fill="none" d="M0,0h100.195v100H0V0z"/>
<path fill="none" d="M0,0h100.195v100H0V0z"/>
<path d="M60.67,1.093L50.273,4.001L39.877,1.093l-8.314,6.885L20.883,9.55l-4.795,9.671l-9.117,5.78L6.524,35.786l-5.978,8.988
	l3.979,10.035L2.72,65.451L10.436,73l2.681,10.457l10.119,3.758l6.701,8.463l10.772-0.682L50.273,100l9.563-5.004l10.773,0.682
	l6.701-8.463l10.119-3.758L90.109,73l7.717-7.549l-1.806-10.644L100,44.771l-5.979-8.988L93.573,25l-9.116-5.78l-4.793-9.67
	L68.983,7.978L60.67,1.093L60.67,1.093z"/>
</svg>
