<!-- Generated by IcoMoon.io -->
<svg version="1.1" xmlns="http://www.w3.org/2000/svg" width="30" height="30" viewBox="0 0 30 30" xml:space="preserve" preserveAspectRatio="none" fill="{{shape_color}}" class="cp-target">
<title>cog</title>
<path d="M20 15c0-2.754-2.246-5-5-5s-5 2.246-5 5 2.246 5 5 5 5-2.246 5-5zM30 12.871v4.336c0 0.293-0.234 0.645-0.547 0.703l-3.613 0.547c-0.215 0.625-0.449 1.211-0.762 1.777 0.664 0.957 1.367 1.816 2.090 2.695 0.117 0.137 0.195 0.313 0.195 0.488s-0.059 0.313-0.176 0.449c-0.469 0.625-3.105 3.496-3.77 3.496-0.176 0-0.352-0.078-0.508-0.176l-2.695-2.109c-0.566 0.293-1.172 0.547-1.777 0.742-0.137 1.191-0.254 2.461-0.566 3.633-0.078 0.313-0.352 0.547-0.703 0.547h-4.336c-0.352 0-0.664-0.254-0.703-0.586l-0.547-3.594c-0.605-0.195-1.191-0.43-1.758-0.723l-2.754 2.090c-0.137 0.117-0.313 0.176-0.488 0.176s-0.352-0.078-0.488-0.215c-1.035-0.938-2.402-2.148-3.223-3.281-0.098-0.137-0.137-0.293-0.137-0.449 0-0.176 0.059-0.313 0.156-0.449 0.664-0.898 1.387-1.758 2.051-2.676-0.332-0.625-0.605-1.27-0.801-1.934l-3.574-0.527c-0.332-0.059-0.566-0.371-0.566-0.703v-4.336c0-0.293 0.234-0.645 0.527-0.703l3.633-0.547c0.195-0.625 0.449-1.211 0.762-1.797-0.664-0.938-1.367-1.816-2.090-2.695-0.117-0.137-0.195-0.293-0.195-0.469s0.078-0.313 0.176-0.449c0.469-0.645 3.105-3.496 3.77-3.496 0.176 0 0.352 0.078 0.508 0.195l2.695 2.090c0.566-0.293 1.172-0.547 1.777-0.742 0.137-1.191 0.254-2.461 0.566-3.633 0.078-0.313 0.352-0.547 0.703-0.547h4.336c0.352 0 0.664 0.254 0.703 0.586l0.547 3.594c0.605 0.195 1.191 0.43 1.758 0.723l2.773-2.090c0.117-0.117 0.293-0.176 0.469-0.176s0.352 0.078 0.488 0.195c1.035 0.957 2.402 2.168 3.223 3.32 0.098 0.117 0.137 0.273 0.137 0.43 0 0.176-0.059 0.313-0.156 0.449-0.664 0.898-1.387 1.758-2.051 2.676 0.332 0.625 0.605 1.27 0.801 1.914l3.574 0.547c0.332 0.059 0.566 0.371 0.566 0.703z"></path>
</svg>
