<!-- Generated by IcoMoon.io -->
<svg version="1.1" xmlns="http://www.w3.org/2000/svg" width="34" height="30" viewBox="0 0 34 30" xml:space="preserve" preserveAspectRatio="none" fill="{{shape_color}}" class="cp-target">
<title>comment_o</title>
<path d="M17.143 2.755c-7.959 0-14.694 4.477-14.694 9.796 0 2.851 1.913 5.568 5.223 7.443l1.665 0.957-0.517 1.837c-0.364 1.358-0.842 2.411-1.339 3.291 1.932-0.804 3.693-1.894 5.262-3.272l0.823-0.727 1.091 0.115c0.823 0.096 1.665 0.153 2.487 0.153 7.959 0 14.694-4.477 14.694-9.796s-6.735-9.796-14.694-9.796zM34.286 12.551c0 6.773-7.672 12.245-17.143 12.245-0.938 0-1.875-0.057-2.774-0.153-2.506 2.219-5.491 3.788-8.801 4.63-0.689 0.191-1.435 0.325-2.181 0.421h-0.096c-0.383 0-0.727-0.306-0.823-0.727v-0.019c-0.096-0.478 0.23-0.765 0.517-1.11 1.205-1.358 2.583-2.506 3.482-5.702-3.941-2.239-6.467-5.702-6.467-9.586 0-6.773 7.672-12.245 17.143-12.245v0c9.471 0 17.143 5.472 17.143 12.245z"></path>
</svg>
