<!-- Generated by IcoMoon.io -->
<svg version="1.1" xmlns="http://www.w3.org/2000/svg" width="34" height="30" viewBox="0 0 34 30" xml:space="preserve" preserveAspectRatio="none" fill="{{shape_color}}" class="cp-target">
<title>comment</title>
<path d="M34.286 12.532c0 6.773-7.672 12.245-17.143 12.245-0.938 0-1.875-0.057-2.774-0.153-2.506 2.219-5.491 3.788-8.801 4.63-0.689 0.191-1.435 0.325-2.181 0.421-0.421 0.038-0.823-0.268-0.918-0.727v-0.019c-0.096-0.478 0.23-0.765 0.517-1.11 1.205-1.358 2.583-2.506 3.482-5.702-3.941-2.239-6.467-5.702-6.467-9.586 0-6.754 7.672-12.245 17.143-12.245s17.143 5.472 17.143 12.245z"></path>
</svg>
