<!-- Generated by IcoMoon.io -->
<svg version="1.1" xmlns="http://www.w3.org/2000/svg" width="39" height="30" viewBox="0 0 39 30" xml:space="preserve" preserveAspectRatio="none" fill="{{shape_color}}" class="cp-target">
<title>comments</title>
<path d="M30.179 10.894c0 6.021-6.702 10.894-14.979 10.894-1.298 0-2.553-0.128-3.745-0.34-1.766 1.255-3.766 2.17-5.915 2.723-0.574 0.149-1.192 0.255-1.83 0.34h-0.064c-0.319 0-0.617-0.255-0.681-0.617v0c-0.085-0.404 0.191-0.66 0.426-0.936 0.83-0.936 1.766-1.766 2.489-3.532-3.447-2-5.66-5.085-5.66-8.532 0-6.021 6.702-10.894 14.979-10.894s14.979 4.872 14.979 10.894zM38.35 16.34c0 3.468-2.213 6.532-5.66 8.532 0.723 1.766 1.66 2.596 2.489 3.532 0.234 0.277 0.511 0.532 0.426 0.936v0c-0.085 0.383-0.404 0.66-0.745 0.617-0.638-0.085-1.255-0.191-1.83-0.34-2.149-0.553-4.149-1.468-5.915-2.723-1.192 0.213-2.447 0.34-3.745 0.34-3.851 0-7.383-1.064-10.043-2.809 0.617 0.043 1.255 0.085 1.872 0.085 4.574 0 8.894-1.319 12.192-3.702 3.553-2.596 5.511-6.106 5.511-9.915 0-1.106-0.17-2.191-0.489-3.234 3.596 1.979 5.936 5.128 5.936 8.681z"></path>
</svg>
