<!-- Generated by IcoMoon.io -->
<svg version="1.1" xmlns="http://www.w3.org/2000/svg" width="30" height="30" viewBox="0 0 30 30" xml:space="preserve" preserveAspectRatio="none" fill="{{shape_color}}" class="cp-target">
<title>crosshairs</title>
<path d="M23.379 17.5h-2.129c-0.684 0-1.25-0.566-1.25-1.25v-2.5c0-0.684 0.566-1.25 1.25-1.25h2.129c-0.84-2.813-3.066-5.039-5.879-5.879v2.129c0 0.684-0.566 1.25-1.25 1.25h-2.5c-0.684 0-1.25-0.566-1.25-1.25v-2.129c-2.813 0.84-5.039 3.066-5.879 5.879h2.129c0.684 0 1.25 0.566 1.25 1.25v2.5c0 0.684-0.566 1.25-1.25 1.25h-2.129c0.84 2.813 3.066 5.039 5.879 5.879v-2.129c0-0.684 0.566-1.25 1.25-1.25h2.5c0.684 0 1.25 0.566 1.25 1.25v2.129c2.813-0.84 5.039-3.066 5.879-5.879zM30 13.75v2.5c0 0.684-0.566 1.25-1.25 1.25h-2.793c-0.957 4.199-4.258 7.5-8.457 8.457v2.793c0 0.684-0.566 1.25-1.25 1.25h-2.5c-0.684 0-1.25-0.566-1.25-1.25v-2.793c-4.199-0.957-7.5-4.258-8.457-8.457h-2.793c-0.684 0-1.25-0.566-1.25-1.25v-2.5c0-0.684 0.566-1.25 1.25-1.25h2.793c0.957-4.199 4.258-7.5 8.457-8.457v-2.793c0-0.684 0.566-1.25 1.25-1.25h2.5c0.684 0 1.25 0.566 1.25 1.25v2.793c4.199 0.957 7.5 4.258 8.457 8.457h2.793c0.684 0 1.25 0.566 1.25 1.25z"></path>
</svg>
