<!-- Generated by IcoMoon.io -->
<svg version="1.1" xmlns="http://www.w3.org/2000/svg" width="30" height="30" viewBox="0 0 30 30" xml:space="preserve" preserveAspectRatio="none" fill="{{shape_color}}" class="cp-target">
<title>dot_circle_o</title>
<path d="M20 15c0 2.754-2.246 5-5 5s-5-2.246-5-5 2.246-5 5-5 5 2.246 5 5zM15 4.375c-5.859 0-10.625 4.766-10.625 10.625s4.766 10.625 10.625 10.625 10.625-4.766 10.625-10.625-4.766-10.625-10.625-10.625zM30 15c0 8.281-6.719 15-15 15s-15-6.719-15-15 6.719-15 15-15v0c8.281 0 15 6.719 15 15z"></path>
</svg>
