<svg version="1.1" id="Capa_1" xmlns="http://www.w3.org/2000/svg" xmlns:xlink="http://www.w3.org/1999/xlink" x="0px" y="0px"
	 width="382.5px" height="478.125px" viewBox="47.812 0 382.5 478.125" enable-background="new 47.812 0 382.5 478.125"
	 xml:space="preserve" class="cp-target" fill="{{shape_color}}">
<g>
	<path d="M420.75,19.125h9.563V0H95.625C68.85,0,47.812,21.038,47.812,47.812V420.75c0,32.513,24.862,57.375,57.375,57.375h19.125
		V76.5H95.625c-15.3,0-28.688-13.388-28.688-28.688s13.388-28.688,28.688-28.688H382.5c0,0-9.563,13.388-9.563,28.688
		S382.5,76.5,382.5,76.5H143.438v401.625h286.875V76.5h-9.562c-15.3,0-28.688-13.388-28.688-28.688S405.45,19.125,420.75,19.125z"/>
</g>
</svg>
