<!-- Generated by IcoMoon.io -->
<svg version="1.1" xmlns="http://www.w3.org/2000/svg" width="39" height="30" viewBox="0 0 39 30" xml:space="preserve" preserveAspectRatio="none" fill="{{shape_color}}" class="cp-target">
<title>envelope</title>
<path d="M38.377 9.673v16.918c0 1.875-1.534 3.409-3.409 3.409h-31.364c-1.875 0-3.409-1.534-3.409-3.409v-16.918c0.639 0.703 1.364 1.321 2.152 1.854 3.537 2.408 7.116 4.815 10.589 7.351 1.79 1.321 4.006 2.94 6.328 2.94h0.043c2.322 0 4.538-1.619 6.328-2.94 3.473-2.514 7.053-4.943 10.611-7.351 0.767-0.533 1.491-1.151 2.131-1.854zM38.377 3.409c0 2.386-1.768 4.538-3.643 5.838-3.324 2.301-6.669 4.602-9.972 6.925-1.385 0.959-3.729 2.919-5.455 2.919h-0.043c-1.726 0-4.070-1.96-5.455-2.919-3.303-2.322-6.648-4.624-9.95-6.925-1.513-1.023-3.665-3.43-3.665-5.369 0-2.088 1.129-3.878 3.409-3.878h31.364c1.854 0 3.409 1.534 3.409 3.409z"></path>
</svg>
