<!-- Generated by IcoMoon.io -->
<svg version="1.1" xmlns="http://www.w3.org/2000/svg" width="39" height="30" viewBox="0 0 39 30" xml:space="preserve" preserveAspectRatio="none" fill="{{shape_color}}" class="cp-target">
<title>envelope_o</title>
<path d="M35.649 26.591v-16.364c-0.447 0.511-0.938 0.98-1.47 1.406-3.047 2.344-6.115 4.73-9.077 7.202-1.598 1.342-3.58 2.983-5.795 2.983h-0.043c-2.216 0-4.197-1.641-5.795-2.983-2.962-2.472-6.030-4.858-9.077-7.202-0.533-0.426-1.023-0.895-1.47-1.406v16.364c0 0.362 0.32 0.682 0.682 0.682h31.364c0.362 0 0.682-0.32 0.682-0.682zM35.649 4.197c0-0.533 0.128-1.47-0.682-1.47h-31.364c-0.362 0-0.682 0.32-0.682 0.682 0 2.429 1.214 4.538 3.132 6.051 2.855 2.237 5.71 4.496 8.544 6.754 1.129 0.916 3.175 2.876 4.666 2.876h0.043c1.491 0 3.537-1.96 4.666-2.876 2.834-2.258 5.689-4.517 8.544-6.754 1.385-1.087 3.132-3.452 3.132-5.263zM38.377 3.409v23.182c0 1.875-1.534 3.409-3.409 3.409h-31.364c-1.875 0-3.409-1.534-3.409-3.409v-23.182c0-1.875 1.534-3.409 3.409-3.409h31.364c1.875 0 3.409 1.534 3.409 3.409z"></path>
</svg>
