<!-- Generated by IcoMoon.io -->
<svg version="1.1" xmlns="http://www.w3.org/2000/svg" width="30" height="30" viewBox="0 0 30 30" xml:space="preserve" preserveAspectRatio="none" fill="{{shape_color}}" class="cp-target">
<title>exclamation_circle</title>
<path d="M15 0c8.281 0 15 6.719 15 15s-6.719 15-15 15-15-6.719-15-15 6.719-15 15-15zM17.5 24.355v-3.711c0-0.352-0.273-0.645-0.605-0.645h-3.75c-0.352 0-0.645 0.293-0.645 0.645v3.711c0 0.352 0.293 0.645 0.645 0.645h3.75c0.332 0 0.605-0.293 0.605-0.645zM17.461 17.637l0.352-12.129c0-0.137-0.059-0.273-0.195-0.352-0.117-0.098-0.293-0.156-0.469-0.156h-4.297c-0.176 0-0.352 0.059-0.469 0.156-0.137 0.078-0.195 0.215-0.195 0.352l0.332 12.129c0 0.273 0.293 0.488 0.664 0.488h3.613c0.352 0 0.645-0.215 0.664-0.488z"></path>
</svg>
