<!-- Generated by IcoMoon.io -->
<svg version="1.1" xmlns="http://www.w3.org/2000/svg" width="30" height="30" viewBox="0 0 30 30" xml:space="preserve" preserveAspectRatio="none" fill="{{shape_color}}" class="cp-target">
<path d="M24.375 0c3.105 0 5.625 2.52 5.625 5.625v18.75c0 3.105-2.52 5.625-5.625 5.625h-3.672v-11.621h3.887l0.586-4.531h-4.473v-2.891c0-1.309 0.352-2.188 2.246-2.188l2.383-0.020v-4.043c-0.41-0.059-1.836-0.176-3.477-0.176-3.457 0-5.84 2.109-5.84 5.977v3.34h-3.906v4.531h3.906v11.621h-10.391c-3.105 0-5.625-2.52-5.625-5.625v-18.75c0-3.105 2.52-5.625 5.625-5.625h18.75z"></path>
</svg>
