<!-- Generated by IcoMoon.io -->
<svg version="1.1" xmlns="http://www.w3.org/2000/svg" width="30" height="30" viewBox="0 0 30 30" xml:space="preserve" preserveAspectRatio="none" fill="{{shape_color}}" class="cp-target">
<title>frown_o</title>
<path d="M22.148 21.504c0.215 0.664-0.156 1.348-0.801 1.562-0.664 0.215-1.367-0.156-1.582-0.82-0.645-2.090-2.578-3.496-4.766-3.496s-4.121 1.406-4.766 3.496c-0.215 0.664-0.918 1.035-1.562 0.82-0.664-0.215-1.035-0.898-0.82-1.562 0.977-3.145 3.848-5.254 7.148-5.254s6.172 2.109 7.148 5.254zM12.5 10c0 1.387-1.113 2.5-2.5 2.5s-2.5-1.113-2.5-2.5 1.113-2.5 2.5-2.5 2.5 1.113 2.5 2.5zM22.5 10c0 1.387-1.113 2.5-2.5 2.5s-2.5-1.113-2.5-2.5 1.113-2.5 2.5-2.5 2.5 1.113 2.5 2.5zM27.5 15c0-6.895-5.605-12.5-12.5-12.5s-12.5 5.605-12.5 12.5 5.605 12.5 12.5 12.5 12.5-5.605 12.5-12.5zM30 15c0 8.281-6.719 15-15 15s-15-6.719-15-15 6.719-15 15-15 15 6.719 15 15z"></path>
</svg>
