<!-- Generated by IcoMoon.io -->
<svg version="1.1" xmlns="http://www.w3.org/2000/svg" width="34" height="30" viewBox="0 0 34 30" xml:space="preserve" preserveAspectRatio="none" fill="{{shape_color}}" class="cp-target">
<title>gift</title>
<path d="M20.714 25.982v-15.982h-7.143v15.982c0 0.781 0.647 1.161 1.429 1.161h4.286c0.781 0 1.429-0.379 1.429-1.161zM10.536 7.143h4.353l-2.813-3.594c-0.246-0.29-0.781-0.692-1.54-0.692-1.183 0-2.143 0.96-2.143 2.143s0.96 2.143 2.143 2.143zM25.893 5c0-1.183-0.96-2.143-2.143-2.143-0.759 0-1.295 0.402-1.54 0.692l-2.79 3.594h4.33c1.183 0 2.143-0.96 2.143-2.143zM34.286 10.714v7.143c0 0.402-0.312 0.714-0.714 0.714h-2.143v9.286c0 1.183-0.96 2.143-2.143 2.143h-24.286c-1.183 0-2.143-0.96-2.143-2.143v-9.286h-2.143c-0.402 0-0.714-0.312-0.714-0.714v-7.143c0-0.402 0.312-0.714 0.714-0.714h9.821c-2.768 0-5-2.232-5-5s2.232-5 5-5c1.496 0 2.879 0.625 3.75 1.719l2.857 3.683 2.857-3.683c0.871-1.094 2.254-1.719 3.75-1.719 2.768 0 5 2.232 5 5s-2.232 5-5 5h9.821c0.402 0 0.714 0.312 0.714 0.714z"></path>
</svg>
