<!-- Generated by IcoMoon.io -->
<svg version="1.1" xmlns="http://www.w3.org/2000/svg" width="47" height="30" viewBox="0 0 47 30" xml:space="preserve" preserveAspectRatio="none" fill="{{shape_color}}" class="cp-target">
<title>google_plus</title>
<path d="M29.403 15.348c0 8.573-5.75 14.65-14.405 14.65-8.287 0-14.998-6.711-14.998-14.998s6.711-14.998 14.998-14.998c4.051 0 7.428 1.473 10.047 3.929l-4.072 3.908c-1.105-1.064-3.049-2.312-5.975-2.312-5.115 0-9.29 4.236-9.29 9.474s4.174 9.474 9.29 9.474c5.934 0 8.164-4.276 8.512-6.466h-8.512v-5.156h14.159c0.143 0.757 0.246 1.514 0.246 2.496zM47.143 12.852v4.297h-4.276v4.276h-4.297v-4.276h-4.276v-4.297h4.276v-4.276h4.297v4.276h4.276z"></path>
</svg>
