<!-- Generated by IcoMoon.io -->
<svg version="1.1" xmlns="http://www.w3.org/2000/svg" width="30" height="30" viewBox="0 0 30 30" xml:space="preserve" preserveAspectRatio="none" fill="{{shape_color}}" class="cp-target">
<title>google_plus_square</title>
<path d="M17.91 15.176c0-0.488-0.059-0.879-0.117-1.25h-7.070v2.578h4.238c-0.156 1.094-1.27 3.223-4.238 3.223-2.578 0-4.668-2.109-4.668-4.727s2.090-4.727 4.668-4.727c1.445 0 2.422 0.605 2.988 1.152l2.031-1.973c-1.309-1.211-3.008-1.953-5.020-1.953-4.16 0-7.5 3.359-7.5 7.5s3.34 7.5 7.5 7.5c4.316 0 7.188-3.047 7.188-7.324zM24.648 16.074h2.129v-2.148h-2.129v-2.148h-2.148v2.148h-2.148v2.148h2.148v2.148h2.148v-2.148zM30 5.625v18.75c0 3.105-2.52 5.625-5.625 5.625h-18.75c-3.105 0-5.625-2.52-5.625-5.625v-18.75c0-3.105 2.52-5.625 5.625-5.625h18.75c3.105 0 5.625 2.52 5.625 5.625z"></path>
</svg>
