<!-- Generated by IcoMoon.io -->
<svg version="1.1" xmlns="http://www.w3.org/2000/svg" width="26" height="30" viewBox="0 0 26 30" xml:space="preserve" preserveAspectRatio="none" fill="{{shape_color}}" class="cp-target">
<title>hand_o_down</title>
<path d="M23.571 16.071c0-3.331-2.143-6.177-2.143-9.107v-0.536h-10.714v0.536c0 1.775-1.507 2.963-2.729 4.035-0.77 0.686-1.54 1.323-2.427 1.875-0.368 0.234-0.753 0.435-1.138 0.636s-2.277 1.038-2.277 1.49c0 1.423 0.536 2.679 2.143 2.679 2.143 0 3.231-1.607 4.286-1.607v9.643c0 1.122 1.004 2.143 2.143 2.143 1.155 0 2.143-0.988 2.143-2.143v-5.541c0.435 0.335 1.172 0.586 1.724 0.586 0.787 0 1.456-0.318 1.992-0.887 0.352 0.201 0.753 0.301 1.155 0.301 0.77 0 1.724-0.385 2.109-1.088 0.301 0.050 0.619 0.067 0.938 0.067 1.975 0 2.796-1.222 2.796-3.080zM21.429 3.214c0-0.586-0.485-1.071-1.071-1.071s-1.071 0.485-1.071 1.071 0.485 1.071 1.071 1.071 1.071-0.485 1.071-1.071zM25.714 16.004c0 3.080-1.741 5.324-4.939 5.307l-0.084-0.017c-0.837 0.67-1.908 1.021-2.98 1.021-0.234 0-0.485-0.017-0.72-0.050-0.569 0.318-1.339 0.552-1.992 0.619v2.829c0 2.344-1.959 4.286-4.302 4.286-2.31 0-4.269-1.975-4.269-4.286v-6.261c-0.653 0.268-1.44 0.368-2.143 0.368-2.813 0-4.286-2.16-4.286-4.821 0-2.243 2.863-2.963 4.42-3.934 0.787-0.502 1.473-1.071 2.16-1.674 0.552-0.485 1.992-1.624 1.992-2.427v-4.821c0-1.189 0.954-2.143 2.143-2.143h10.714c1.189 0 2.143 0.954 2.143 2.143v4.821c0 1.055 0.619 2.712 0.988 3.733 0.619 1.708 1.155 3.465 1.155 5.307z"></path>
</svg>
