<!-- Generated by IcoMoon.io -->
<svg version="1.1" xmlns="http://www.w3.org/2000/svg" width="26" height="30" viewBox="0 0 26 30" xml:space="preserve" preserveAspectRatio="none" fill="{{shape_color}}" class="cp-target">
<title>hand_o_up</title>
<path d="M21.429 26.786c0-0.586-0.485-1.071-1.071-1.071s-1.071 0.485-1.071 1.071 0.485 1.071 1.071 1.071 1.071-0.485 1.071-1.071zM23.571 13.996c0-1.892-0.77-3.164-2.796-3.164-0.318 0-0.636 0.033-0.938 0.084-0.385-0.703-1.339-1.088-2.109-1.088-0.402 0-0.804 0.1-1.155 0.301-0.536-0.569-1.205-0.887-1.992-0.887-0.536 0-1.323 0.234-1.724 0.586v-5.541c0-1.155-0.988-2.143-2.143-2.143-1.138 0-2.143 1.021-2.143 2.143v9.643c-1.055 0-2.143-1.607-4.286-1.607-1.607 0-2.143 1.256-2.143 2.679 0 0.469 1.942 1.323 2.327 1.507 0.368 0.201 0.737 0.402 1.088 0.619 0.887 0.552 1.657 1.189 2.427 1.875 1.222 1.071 2.729 2.26 2.729 4.035v0.536h10.714v-0.536c0-2.93 2.143-5.792 2.143-9.040zM25.714 13.912c0 1.875-0.519 3.65-1.155 5.391-0.368 1.021-0.988 2.679-0.988 3.733v4.821c0 1.189-0.954 2.143-2.143 2.143h-10.714c-1.189 0-2.143-0.954-2.143-2.143v-4.821c0-0.804-1.44-1.942-1.992-2.427-0.686-0.603-1.373-1.172-2.16-1.674-1.557-0.971-4.42-1.691-4.42-3.934 0-2.662 1.456-4.821 4.286-4.821 0.737 0 1.456 0.117 2.143 0.368v-6.261c0-2.31 1.959-4.286 4.269-4.286 2.344 0 4.302 1.942 4.302 4.286v2.829c0.703 0.050 1.373 0.268 1.992 0.619 0.234-0.033 0.485-0.050 0.72-0.050 1.071 0 2.143 0.352 2.98 1.004 3.164-0.033 5.022 2.126 5.022 5.223z"></path>
</svg>
