<!-- Generated by IcoMoon.io -->
<svg version="1.1" xmlns="http://www.w3.org/2000/svg" width="34" height="30" viewBox="0 0 34 30" xml:space="preserve" preserveAspectRatio="none" fill="{{shape_color}}" class="cp-target">
<title>heart_o</title>
<path d="M31.837 9.26c0-5.376-3.635-6.505-6.697-6.505-2.851 0-6.065 3.080-7.060 4.267-0.459 0.555-1.416 0.555-1.875 0-0.995-1.186-4.209-4.267-7.060-4.267-3.061 0-6.697 1.129-6.697 6.505 0 3.501 3.54 6.754 3.578 6.792l11.116 10.714 11.097-10.695c0.057-0.057 3.597-3.31 3.597-6.811zM34.286 9.26c0 4.592-4.209 8.438-4.381 8.61l-11.92 11.48c-0.23 0.23-0.536 0.344-0.842 0.344s-0.612-0.115-0.842-0.344l-11.939-11.518c-0.153-0.134-4.362-3.98-4.362-8.572 0-5.606 3.425-8.954 9.146-8.954 3.348 0 6.486 2.64 7.998 4.133 1.512-1.492 4.649-4.133 7.998-4.133 5.721 0 9.146 3.348 9.146 8.954z"></path>
</svg>
