<!-- Generated by IcoMoon.io -->
<svg version="1.1" xmlns="http://www.w3.org/2000/svg" width="38" height="30" viewBox="0 0 38 30" xml:space="preserve" preserveAspectRatio="none" fill="{{shape_color}}" class="cp-target">
<title>home</title>
<path d="M32.084 17.361v11.111c0 0.81-0.671 1.481-1.481 1.481h-8.889v-8.889h-5.926v8.889h-8.889c-0.81 0-1.481-0.671-1.481-1.481v-11.111c0-0.046 0.023-0.093 0.023-0.139l13.31-10.972 13.31 10.972c0.023 0.046 0.023 0.093 0.023 0.139zM37.246 15.764l-1.435 1.713c-0.116 0.139-0.301 0.231-0.486 0.255h-0.069c-0.185 0-0.347-0.046-0.486-0.162l-16.019-13.357-16.019 13.357c-0.162 0.116-0.347 0.185-0.555 0.162-0.185-0.023-0.37-0.116-0.486-0.255l-1.435-1.713c-0.255-0.301-0.208-0.787 0.093-1.042l16.644-13.866c0.972-0.81 2.546-0.81 3.518 0l5.648 4.722v-4.514c0-0.417 0.324-0.741 0.741-0.741h4.444c0.417 0 0.741 0.324 0.741 0.741v9.445l5.070 4.213c0.301 0.255 0.347 0.741 0.093 1.042z"></path>
</svg>
