<!-- Generated by IcoMoon.io -->
<svg version="1.1" xmlns="http://www.w3.org/2000/svg" width="26" height="30" viewBox="0 0 26 30" xml:space="preserve" preserveAspectRatio="none" fill="{{shape_color}}" class="cp-target">
<title>hourglass_3</title>
<path d="M23.571 2.143c0 6.194-2.963 10.681-6.244 12.857 3.281 2.176 6.244 6.663 6.244 12.857h1.607c0.301 0 0.536 0.234 0.536 0.536v1.071c0 0.301-0.234 0.536-0.536 0.536h-24.643c-0.301 0-0.536-0.234-0.536-0.536v-1.071c0-0.301 0.234-0.536 0.536-0.536h1.607c0-6.194 2.963-10.681 6.244-12.857-3.281-2.176-6.244-6.663-6.244-12.857h-1.607c-0.301 0-0.536-0.234-0.536-0.536v-1.071c0-0.301 0.234-0.536 0.536-0.536h24.643c0.301 0 0.536 0.234 0.536 0.536v1.071c0 0.301-0.234 0.536-0.536 0.536h-1.607zM14.632 13.996c3.382-1.272 6.797-5.742 6.797-11.853h-17.143c0 6.11 3.415 10.58 6.797 11.853 0.419 0.151 0.703 0.552 0.703 1.004s-0.285 0.854-0.703 1.004c-1.44 0.536-2.896 1.674-4.085 3.281h11.719c-1.189-1.607-2.645-2.746-4.085-3.281-0.419-0.151-0.703-0.552-0.703-1.004s0.285-0.854 0.703-1.004z"></path>
</svg>
