<!-- Generated by IcoMoon.io -->
<svg version="1.1" xmlns="http://www.w3.org/2000/svg" width="26" height="30" viewBox="0 0 26 30" xml:space="preserve" preserveAspectRatio="none" fill="{{shape_color}}" class="cp-target">
<title>hourglass_2</title>
<path d="M23.571 2.143c0 6.194-2.963 10.681-6.244 12.857 3.281 2.176 6.244 6.663 6.244 12.857h1.607c0.301 0 0.536 0.234 0.536 0.536v1.071c0 0.301-0.234 0.536-0.536 0.536h-24.643c-0.301 0-0.536-0.234-0.536-0.536v-1.071c0-0.301 0.234-0.536 0.536-0.536h1.607c0-6.194 2.963-10.681 6.244-12.857-3.281-2.176-6.244-6.663-6.244-12.857h-1.607c-0.301 0-0.536-0.234-0.536-0.536v-1.071c0-0.301 0.234-0.536 0.536-0.536h24.643c0.301 0 0.536 0.234 0.536 0.536v1.071c0 0.301-0.234 0.536-0.536 0.536h-1.607zM21.429 2.143h-17.143c0 2.444 0.552 4.604 1.423 6.429h14.297c0.871-1.825 1.423-3.984 1.423-6.429zM20.474 22.5c-1.239-3.231-3.465-5.525-5.692-6.429h-3.85c-2.227 0.904-4.453 3.198-5.692 6.429h15.234z"></path>
</svg>
