<svg version="1.1" id="Capa_1" xmlns="http://www.w3.org/2000/svg" xmlns:xlink="http://www.w3.org/1999/xlink" x="0px" y="0px"
	 width="74px" height="97.492px" viewBox="11.746 0 74 97.492" enable-background="new 11.746 0 74 97.492" xml:space="preserve" fill="{{shape_color}}" class="cp-target">
<g>
	<path d="M79.873,0H17.619c-3.238,0-5.873,2.635-5.873,5.873V91.62c0,3.237,2.635,5.873,5.873,5.873h62.254
		c3.238,0,5.873-2.636,5.873-5.873V5.873C85.746,2.634,83.111,0,79.873,0z M48.746,3.377c0.486,0,0.881,0.395,0.881,0.881
		c0,0.486-0.395,0.88-0.881,0.88c-0.486,0-0.881-0.395-0.881-0.881C47.865,3.771,48.26,3.377,48.746,3.377z M48.746,94.262
		c-0.973,0-1.762-0.789-1.762-1.763s0.789-1.763,1.762-1.763c0.973,0,1.762,0.789,1.762,1.763S49.719,94.262,48.746,94.262z
		 M81.048,88.828H16.444V8.662h64.604V88.828z"/>
</g>
</svg>
