<!-- Generated by IcoMoon.io -->
<svg version="1.1" xmlns="http://www.w3.org/2000/svg" width="40" height="30" viewBox="0 0 40 30" xml:space="preserve" preserveAspectRatio="none" fill="{{shape_color}}" class="cp-target">
<title>line_chart</title>
<path d="M39.643 27.388v2.478h-39.643v-29.732h2.478v27.254h37.165zM37.165 3.231v8.42c0 0.542-0.658 0.832-1.065 0.426l-2.342-2.342-12.253 12.253c-0.252 0.252-0.639 0.252-0.89 0l-4.51-4.51-8.052 8.052-3.717-3.717 11.324-11.324c0.252-0.252 0.639-0.252 0.89 0l4.51 4.51 8.982-8.982-2.342-2.342c-0.406-0.406-0.116-1.065 0.426-1.065h8.42c0.348 0 0.619 0.271 0.619 0.619z"></path>
</svg>
