<!-- Generated by IcoMoon.io -->
<svg version="1.1" xmlns="http://www.w3.org/2000/svg" width="30" height="30" viewBox="0 0 30 30" xml:space="preserve" preserveAspectRatio="none" fill="{{shape_color}}" class="cp-target">
<title>linkedin_square</title>
<path d="M4.629 25.117h4.512v-13.555h-4.512v13.555zM9.434 7.383c-0.020-1.328-0.977-2.344-2.52-2.344s-2.559 1.016-2.559 2.344c0 1.289 0.977 2.344 2.5 2.344h0.020c1.582 0 2.559-1.055 2.559-2.344zM20.859 25.117h4.512v-7.773c0-4.16-2.227-6.094-5.195-6.094-2.422 0-3.496 1.348-4.082 2.285h0.039v-1.973h-4.512s0.059 1.27 0 13.555v0h4.512v-7.578c0-0.391 0.020-0.801 0.137-1.094 0.332-0.801 1.074-1.641 2.324-1.641 1.621 0 2.266 1.23 2.266 3.066v7.246zM30 5.625v18.75c0 3.105-2.52 5.625-5.625 5.625h-18.75c-3.105 0-5.625-2.52-5.625-5.625v-18.75c0-3.105 2.52-5.625 5.625-5.625h18.75c3.105 0 5.625 2.52 5.625 5.625z"></path>
</svg>
