<!-- Generated by IcoMoon.io -->
<svg version="1.1" xmlns="http://www.w3.org/2000/svg" width="31" height="30" viewBox="0 0 31 30" xml:space="preserve" preserveAspectRatio="none" fill="{{shape_color}}" class="cp-target">
<title>linkedin</title>
<path d="M7.060 9.801v20.047h-6.676v-20.047h6.676zM7.485 3.611c0.020 1.922-1.436 3.459-3.763 3.459v0h-0.040c-2.245 0-3.682-1.537-3.682-3.459 0-1.962 1.497-3.459 3.763-3.459 2.286 0 3.702 1.497 3.722 3.459zM31.072 18.358v11.49h-6.655v-10.721c0-2.69-0.971-4.531-3.378-4.531-1.841 0-2.933 1.234-3.419 2.427-0.162 0.445-0.223 1.032-0.223 1.639v11.187h-6.655c0.081-18.166 0-20.047 0-20.047h6.655v2.913h-0.040c0.87-1.376 2.448-3.378 6.048-3.378 4.39 0 7.667 2.873 7.667 9.022z"></path>
</svg>
