<!-- Generated by IcoMoon.io -->
<svg version="1.1" xmlns="http://www.w3.org/2000/svg" width="25" height="30" viewBox="0 0 25 30" xml:space="preserve" preserveAspectRatio="none" fill="{{shape_color}}" class="cp-target">
<title>lock</title>
<path d="M6.867 13.636h10.909v-4.091c0-3.004-2.45-5.455-5.455-5.455s-5.455 2.45-5.455 5.455v4.091zM24.594 15.682v12.273c0 1.129-0.916 2.045-2.045 2.045h-20.455c-1.129 0-2.045-0.916-2.045-2.045v-12.273c0-1.129 0.916-2.045 2.045-2.045h0.682v-4.091c0-5.241 4.304-9.545 9.545-9.545s9.545 4.304 9.545 9.545v4.091h0.682c1.129 0 2.045 0.916 2.045 2.045z"></path>
</svg>
