<!-- Generated by IcoMoon.io -->
<svg version="1.1" xmlns="http://www.w3.org/2000/svg" width="14" height="30" viewBox="0 0 14 30" xml:space="preserve" preserveAspectRatio="none" fill="{{shape_color}}" class="cp-target">
<title>long_arrow_up</title>
<path d="M13.579 7.448c-0.087 0.191-0.278 0.33-0.503 0.33h-3.889v21.667c0 0.313-0.243 0.556-0.556 0.556h-3.333c-0.313 0-0.556-0.243-0.556-0.556v-21.667h-3.889c-0.226 0-0.417-0.122-0.503-0.33s-0.052-0.434 0.087-0.608l6.076-6.667c0.104-0.104 0.243-0.174 0.399-0.174v0c0.156 0 0.313 0.069 0.417 0.174l6.163 6.667c0.139 0.174 0.174 0.399 0.087 0.608z"></path>
</svg>
