<!-- Generated by IcoMoon.io -->
<svg version="1.1" xmlns="http://www.w3.org/2000/svg" width="33" height="30" viewBox="0 0 33 30" xml:space="preserve" preserveAspectRatio="none" fill="{{shape_color}}" class="cp-target">
<path d="M33.214 10.848c0 0.315-0.13 0.612-0.352 0.834l-9.49 9.49c-0.222 0.222-0.519 0.352-0.834 0.352-0.649 0-1.186-0.538-1.186-1.186v-4.745h-4.152c-7.989 0-13.234 1.538-13.234 10.38 0 0.76 0.037 1.52 0.093 2.28 0.019 0.297 0.093 0.63 0.093 0.927 0 0.352-0.222 0.649-0.593 0.649-0.259 0-0.389-0.13-0.519-0.315-0.278-0.389-0.482-0.982-0.686-1.409-1.056-2.372-2.354-5.764-2.354-8.359 0-2.076 0.204-4.207 0.982-6.172 2.576-6.395 10.139-7.47 16.218-7.47h4.152v-4.745c0-0.649 0.538-1.186 1.186-1.186 0.315 0 0.612 0.13 0.834 0.352l9.49 9.49c0.222 0.222 0.352 0.519 0.352 0.834z"></path>
</svg>
