<!-- Generated by IcoMoon.io -->
<svg version="1.1" xmlns="http://www.w3.org/2000/svg" width="33" height="30" viewBox="0 0 33 30" xml:space="preserve" preserveAspectRatio="none" fill="{{shape_color}}" class="cp-target">
<title>mail_reply</title>
<path d="M33.214 19.745c0 2.595-1.297 5.987-2.354 8.359-0.204 0.426-0.408 1.019-0.686 1.409-0.13 0.185-0.26 0.315-0.519 0.315-0.371 0-0.593-0.297-0.593-0.649 0-0.297 0.074-0.63 0.093-0.927 0.056-0.76 0.093-1.52 0.093-2.28 0-8.841-5.245-10.38-13.234-10.38h-4.152v4.745c0 0.649-0.538 1.186-1.186 1.186-0.315 0-0.612-0.13-0.834-0.352l-9.49-9.49c-0.222-0.222-0.352-0.519-0.352-0.834s0.13-0.612 0.352-0.834l9.49-9.49c0.222-0.222 0.519-0.352 0.834-0.352 0.649 0 1.186 0.538 1.186 1.186v4.745h4.152c6.079 0 13.642 1.075 16.218 7.47 0.778 1.965 0.982 4.096 0.982 6.172z"></path>
</svg>
