<!-- Generated by IcoMoon.io -->
<svg version="1.1" xmlns="http://www.w3.org/2000/svg" width="20" height="30" viewBox="0 0 20 30" xml:space="preserve" preserveAspectRatio="none" fill="{{shape_color}}" class="cp-target">
<title>map_marker</title>
<path d="M15.179 10c0-2.754-2.246-5-5-5s-5 2.246-5 5 2.246 5 5 5 5-2.246 5-5zM20.179 10c0 1.191-0.137 2.422-0.645 3.496l-7.109 15.117c-0.41 0.859-1.309 1.387-2.246 1.387s-1.836-0.527-2.227-1.387l-7.129-15.117c-0.508-1.074-0.645-2.305-0.645-3.496 0-5.527 4.473-10 10-10s10 4.473 10 10z"></path>
</svg>
