<!-- Generated by IcoMoon.io -->
<svg version="1.1" xmlns="http://www.w3.org/2000/svg" width="30" height="30" viewBox="0 0 30 30" xml:space="preserve" preserveAspectRatio="none" fill="{{shape_color}}" class="cp-target">
<title>meh_o</title>
<path d="M22.5 18.75c0 0.684-0.566 1.25-1.25 1.25h-12.5c-0.684 0-1.25-0.566-1.25-1.25s0.566-1.25 1.25-1.25h12.5c0.684 0 1.25 0.566 1.25 1.25zM12.5 10c0 1.387-1.113 2.5-2.5 2.5s-2.5-1.113-2.5-2.5 1.113-2.5 2.5-2.5 2.5 1.113 2.5 2.5zM22.5 10c0 1.387-1.113 2.5-2.5 2.5s-2.5-1.113-2.5-2.5 1.113-2.5 2.5-2.5 2.5 1.113 2.5 2.5zM27.5 15c0-6.895-5.605-12.5-12.5-12.5s-12.5 5.605-12.5 12.5 5.605 12.5 12.5 12.5 12.5-5.605 12.5-12.5zM30 15c0 8.281-6.719 15-15 15s-15-6.719-15-15 6.719-15 15-15 15 6.719 15 15z"></path>
</svg>
