<!-- Generated by IcoMoon.io -->
<svg version="1.1" xmlns="http://www.w3.org/2000/svg" width="19" height="30" viewBox="0 0 19 30" xml:space="preserve" preserveAspectRatio="none" fill="{{shape_color}}" class="cp-target">
<title>mouse_pointer</title>
<path d="M18.968 17.386c0.318 0.301 0.402 0.77 0.234 1.155-0.167 0.402-0.552 0.67-0.988 0.67h-6.395l3.365 7.969c0.234 0.552-0.033 1.172-0.569 1.406l-2.963 1.256c-0.552 0.234-1.172-0.033-1.406-0.569l-3.198-7.567-5.223 5.223c-0.201 0.201-0.469 0.318-0.753 0.318-0.134 0-0.285-0.033-0.402-0.084-0.402-0.167-0.67-0.552-0.67-0.988v-25.179c0-0.435 0.268-0.82 0.67-0.988 0.117-0.050 0.268-0.084 0.402-0.084 0.285 0 0.552 0.1 0.753 0.318z"></path>
</svg>
