<!-- Generated by IcoMoon.io -->
<svg version="1.1" xmlns="http://www.w3.org/2000/svg" width="30" height="30" viewBox="0 0 30 30" xml:space="preserve" preserveAspectRatio="none" fill="{{shape_color}}" class="cp-target">
<title>pencil</title>
<path d="M7.104 27.319l1.781-1.781-4.599-4.599-1.781 1.781v2.094h2.505v2.505h2.094zM17.339 9.158c0-0.254-0.176-0.431-0.431-0.431-0.117 0-0.235 0.039-0.333 0.137l-10.607 10.607c-0.098 0.098-0.137 0.215-0.137 0.333 0 0.254 0.176 0.431 0.431 0.431 0.117 0 0.235-0.039 0.333-0.137l10.607-10.607c0.098-0.098 0.137-0.215 0.137-0.333zM16.282 5.401l8.141 8.141-16.282 16.282h-8.141v-8.141zM29.649 7.28c0 0.665-0.274 1.311-0.724 1.761l-3.249 3.249-8.141-8.141 3.249-3.229c0.45-0.47 1.096-0.744 1.761-0.744s1.311 0.274 1.781 0.744l4.599 4.579c0.45 0.47 0.724 1.115 0.724 1.781z"></path>
</svg>
