<!-- Generated by IcoMoon.io -->
<svg version="1.1" xmlns="http://www.w3.org/2000/svg" width="30" height="30" viewBox="0 0 30 30" xml:space="preserve" preserveAspectRatio="none" fill="{{shape_color}}" class="cp-target">
<title>phone</title>
<path d="M30 23.693c0 0.767-0.341 2.258-0.66 2.962-0.447 1.044-1.641 1.726-2.599 2.258-1.257 0.682-2.536 1.087-3.963 1.087-1.982 0-3.771-0.81-5.582-1.47-1.3-0.469-2.557-1.044-3.729-1.769-3.622-2.237-7.99-6.605-10.227-10.227-0.724-1.172-1.3-2.429-1.769-3.729-0.66-1.811-1.47-3.601-1.47-5.582 0-1.428 0.405-2.706 1.087-3.963 0.533-0.959 1.214-2.152 2.258-2.599 0.703-0.32 2.195-0.66 2.962-0.66 0.149 0 0.298 0 0.447 0.064 0.447 0.149 0.916 1.193 1.129 1.619 0.682 1.214 1.342 2.45 2.045 3.643 0.341 0.554 0.98 1.236 0.98 1.896 0 1.3-3.857 3.196-3.857 4.347 0 0.575 0.533 1.321 0.831 1.832 2.152 3.878 4.837 6.563 8.714 8.714 0.511 0.298 1.257 0.831 1.832 0.831 1.151 0 3.047-3.857 4.347-3.857 0.66 0 1.342 0.639 1.896 0.98 1.193 0.703 2.429 1.364 3.643 2.045 0.426 0.213 1.47 0.682 1.619 1.129 0.064 0.149 0.064 0.298 0.064 0.447z"></path>
</svg>
