<!-- Generated by IcoMoon.io -->
<svg version="1.1" xmlns="http://www.w3.org/2000/svg" width="24" height="30" viewBox="0 0 24 30" xml:space="preserve" preserveAspectRatio="none" fill="{{shape_color}}" class="cp-target">
<title>pinterest_p</title>
<path d="M0.247 10.763c0-6.653 6.094-10.763 12.26-10.763 5.661 0 10.817 3.894 10.817 9.862 0 5.607-2.867 11.827-9.249 11.827-1.514 0-3.425-0.757-4.165-2.163-1.37 5.427-1.262 6.238-4.291 10.385l-0.252 0.090-0.162-0.18c-0.108-1.136-0.27-2.254-0.27-3.389 0-3.678 1.695-8.996 2.524-12.566-0.451-0.919-0.577-2.037-0.577-3.047 0-1.821 1.262-4.129 3.317-4.129 1.514 0 2.326 1.154 2.326 2.578 0 2.344-1.587 4.543-1.587 6.815 0 1.55 1.28 2.632 2.776 2.632 4.147 0 5.427-5.986 5.427-9.177 0-4.273-3.029-6.599-7.121-6.599-4.76 0-8.438 3.425-8.438 8.257 0 2.326 1.424 3.516 1.424 4.075 0 0.469-0.343 2.127-0.938 2.127-0.090 0-0.216-0.036-0.306-0.054-2.578-0.775-3.516-4.219-3.516-6.581z"></path>
</svg>
