<!-- Generated by IcoMoon.io -->
<svg version="1.1" xmlns="http://www.w3.org/2000/svg" width="30" height="30" viewBox="0 0 30 30" xml:space="preserve" preserveAspectRatio="none" fill="{{shape_color}}" class="cp-target">
<title>pinterest_square</title>
<path d="M24.375 0c3.105 0 5.625 2.52 5.625 5.625v18.75c0 3.105-2.52 5.625-5.625 5.625h-14.16c0.645-0.918 1.699-2.5 2.109-4.102 0 0 0.176-0.664 1.035-4.082 0.527 0.996 2.031 1.855 3.633 1.855 4.766 0 8.008-4.355 8.008-10.176 0-4.395-3.73-8.496-9.395-8.496-7.051 0-10.605 5.059-10.605 9.277 0 2.539 0.977 4.805 3.047 5.664 0.332 0.137 0.645 0 0.742-0.371 0.059-0.254 0.215-0.918 0.293-1.191 0.098-0.371 0.059-0.508-0.215-0.82-0.586-0.723-0.977-1.621-0.977-2.93 0-3.75 2.812-7.090 7.305-7.090 3.984 0 6.172 2.422 6.172 5.684 0 4.277-1.895 7.891-4.707 7.891-1.543 0-2.715-1.289-2.344-2.871 0.449-1.875 1.309-3.906 1.309-5.254 0-1.211-0.645-2.227-1.992-2.227-1.582 0-2.852 1.641-2.852 3.828 0 0 0 1.406 0.469 2.363-1.621 6.875-1.914 8.086-1.914 8.086-0.43 1.797-0.254 3.887-0.137 4.961h-3.574c-3.105 0-5.625-2.52-5.625-5.625v-18.75c0-3.105 2.52-5.625 5.625-5.625h18.75z"></path>
</svg>
