<!-- Generated by IcoMoon.io -->
<svg version="1.1" xmlns="http://www.w3.org/2000/svg" width="22" height="30" viewBox="0 0 22 30" xml:space="preserve" preserveAspectRatio="none" fill="{{shape_color}}" class="cp-target">
<title>question</title>
<path d="M14.388 23.437v5.625c0 0.516-0.422 0.938-0.938 0.938h-5.625c-0.516 0-0.938-0.422-0.938-0.938v-5.625c0-0.516 0.422-0.938 0.938-0.938h5.625c0.516 0 0.938 0.422 0.938 0.938zM21.794 9.375c0 4.453-3.023 6.164-5.25 7.406-1.383 0.797-2.25 2.414-2.25 3.094v0c0 0.516-0.398 1.125-0.938 1.125h-5.625c-0.516 0-0.844-0.797-0.844-1.313v-1.055c0-2.836 2.812-5.273 4.875-6.211 1.805-0.82 2.555-1.594 2.555-3.094 0-1.313-1.711-2.484-3.609-2.484-1.055 0-2.016 0.328-2.531 0.68-0.562 0.398-1.125 0.961-2.508 2.695-0.187 0.234-0.469 0.375-0.727 0.375-0.211 0-0.398-0.070-0.586-0.187l-3.844-2.93c-0.398-0.305-0.492-0.82-0.234-1.242 2.531-4.195 6.094-6.234 10.875-6.234 5.016 0 10.641 4.008 10.641 9.375z"></path>
</svg>
