<!-- Generated by IcoMoon.io -->
<svg version="1.1" xmlns="http://www.w3.org/2000/svg" width="35" height="30" viewBox="0 0 35 30" xml:space="preserve" preserveAspectRatio="none" fill="{{shape_color}}" class="cp-target">
<title>quote_right</title>
<path d="M16.319 4.121v14.959c0 5.992-4.887 10.879-10.879 10.879h-1.36c-0.744 0-1.36-0.616-1.36-1.36v-2.72c0-0.744 0.616-1.36 1.36-1.36h1.36c2.996 0 5.44-2.444 5.44-5.44v-0.68c0-1.126-0.914-2.040-2.040-2.040h-4.76c-2.252 0-4.080-1.827-4.080-4.080v-8.159c0-2.252 1.827-4.080 4.080-4.080h8.159c2.252 0 4.080 1.827 4.080 4.080zM35.357 4.121v14.959c0 5.992-4.887 10.879-10.879 10.879h-1.36c-0.744 0-1.36-0.616-1.36-1.36v-2.72c0-0.744 0.616-1.36 1.36-1.36h1.36c2.996 0 5.44-2.444 5.44-5.44v-0.68c0-1.126-0.914-2.040-2.040-2.040h-4.76c-2.252 0-4.080-1.827-4.080-4.080v-8.159c0-2.252 1.827-4.080 4.080-4.080h8.159c2.252 0 4.080 1.827 4.080 4.080z"></path>
</svg>
