<!-- Generated by IcoMoon.io -->
<svg version="1.1" xmlns="http://www.w3.org/2000/svg" width="35" height="30" viewBox="0 0 35 30" xml:space="preserve" preserveAspectRatio="none" fill="{{shape_color}}" class="cp-target">
<title>quote_left</title>
<path d="M16.319 17.72v8.159c0 2.252-1.827 4.080-4.080 4.080h-8.159c-2.252 0-4.080-1.827-4.080-4.080v-14.959c0-5.992 4.887-10.879 10.879-10.879h1.36c0.744 0 1.36 0.616 1.36 1.36v2.72c0 0.744-0.616 1.36-1.36 1.36h-1.36c-2.996 0-5.44 2.444-5.44 5.44v0.68c0 1.126 0.914 2.040 2.040 2.040h4.76c2.252 0 4.080 1.827 4.080 4.080zM35.357 17.72v8.159c0 2.252-1.827 4.080-4.080 4.080h-8.159c-2.252 0-4.080-1.827-4.080-4.080v-14.959c0-5.992 4.887-10.879 10.879-10.879h1.36c0.744 0 1.36 0.616 1.36 1.36v2.72c0 0.744-0.616 1.36-1.36 1.36h-1.36c-2.996 0-5.44 2.444-5.44 5.44v0.68c0 1.126 0.914 2.040 2.040 2.040h4.76c2.252 0 4.080 1.827 4.080 4.080z"></path>
</svg>
