<!-- Generated by IcoMoon.io -->
<svg version="1.1" xmlns="http://www.w3.org/2000/svg" width="30" height="30" viewBox="0 0 30 30" xml:space="preserve" preserveAspectRatio="none" fill="{{shape_color}}" class="cp-target">
<title>repeat</title>
<path d="M30 2.5v8.75c0 0.684-0.566 1.25-1.25 1.25h-8.75c-0.508 0-0.957-0.313-1.152-0.781-0.195-0.449-0.098-0.996 0.273-1.348l2.695-2.695c-1.836-1.699-4.258-2.676-6.816-2.676-5.508 0-10 4.492-10 10s4.492 10 10 10c3.105 0 5.977-1.406 7.891-3.887 0.098-0.137 0.273-0.215 0.449-0.234 0.176 0 0.352 0.059 0.488 0.176l2.676 2.695c0.234 0.215 0.234 0.586 0.039 0.84-2.852 3.437-7.070 5.41-11.543 5.41-8.262 0-15-6.738-15-15s6.738-15 15-15c3.848 0 7.578 1.543 10.332 4.141l2.539-2.52c0.352-0.371 0.898-0.469 1.367-0.273 0.449 0.195 0.762 0.645 0.762 1.152z"></path>
</svg>
