<!-- Generated by IcoMoon.io -->
<svg version="1.1" xmlns="http://www.w3.org/2000/svg" width="30" height="30" viewBox="0 0 30 30" xml:space="preserve" preserveAspectRatio="none" fill="{{shape_color}}" class="cp-target">
<title>search</title>
<path d="M20.769 12.692c0-4.453-3.624-8.077-8.077-8.077s-8.077 3.624-8.077 8.077 3.624 8.077 8.077 8.077 8.077-3.624 8.077-8.077zM30 27.692c0 1.262-1.046 2.308-2.308 2.308-0.613 0-1.208-0.252-1.623-0.685l-6.184-6.166c-2.109 1.46-4.633 2.236-7.193 2.236-7.013 0-12.692-5.679-12.692-12.692s5.679-12.692 12.692-12.692 12.692 5.679 12.692 12.692c0 2.56-0.775 5.084-2.236 7.193l6.184 6.184c0.415 0.415 0.667 1.010 0.667 1.623z"></path>
</svg>
