<!-- Generated by IcoMoon.io -->
<svg version="1.1" xmlns="http://www.w3.org/2000/svg" width="30" height="30" viewBox="0 0 30 30" xml:space="preserve" preserveAspectRatio="none" fill="{{shape_color}}" class="cp-target">
<title>share_alt</title>
<path d="M23.75 17.5c3.457 0 6.25 2.793 6.25 6.25s-2.793 6.25-6.25 6.25-6.25-2.793-6.25-6.25c0-0.215 0.020-0.449 0.039-0.664l-7.031-3.516c-1.113 1.035-2.617 1.68-4.258 1.68-3.457 0-6.25-2.793-6.25-6.25s2.793-6.25 6.25-6.25c1.641 0 3.145 0.645 4.258 1.68l7.031-3.516c-0.020-0.215-0.039-0.449-0.039-0.664 0-3.457 2.793-6.25 6.25-6.25s6.25 2.793 6.25 6.25-2.793 6.25-6.25 6.25c-1.641 0-3.145-0.645-4.258-1.68l-7.031 3.516c0.020 0.215 0.039 0.449 0.039 0.664s-0.020 0.449-0.039 0.664l7.031 3.516c1.113-1.035 2.617-1.68 4.258-1.68z"></path>
</svg>
