<!-- Generated by IcoMoon.io -->
<svg version="1.1" xmlns="http://www.w3.org/2000/svg" width="30" height="30" viewBox="0 0 30 30" xml:space="preserve" preserveAspectRatio="none" fill="{{shape_color}}" class="cp-target">
<title>share_alt_square</title>
<path d="M25 20.84c0-2.305-1.875-4.18-4.16-4.18-1.094 0-2.090 0.43-2.832 1.133l-4.707-2.344c0.020-0.156 0.039-0.293 0.039-0.449s-0.020-0.293-0.039-0.449l4.707-2.344c0.742 0.703 1.738 1.133 2.832 1.133 2.285 0 4.16-1.875 4.16-4.18 0-2.285-1.875-4.16-4.16-4.16-2.305 0-4.18 1.875-4.18 4.16 0 0.156 0.020 0.293 0.039 0.449l-4.707 2.344c-0.742-0.684-1.738-1.113-2.832-1.113-2.285 0-4.16 1.855-4.16 4.16s1.875 4.16 4.16 4.16c1.094 0 2.090-0.43 2.832-1.113l4.707 2.344c-0.020 0.156-0.039 0.293-0.039 0.449 0 2.285 1.875 4.16 4.18 4.16 2.285 0 4.16-1.875 4.16-4.16zM30 5.625v18.75c0 3.105-2.52 5.625-5.625 5.625h-18.75c-3.105 0-5.625-2.52-5.625-5.625v-18.75c0-3.105 2.52-5.625 5.625-5.625h18.75c3.105 0 5.625 2.52 5.625 5.625z"></path>
</svg>
