<!-- Generated by IcoMoon.io -->
<svg version="1.1" xmlns="http://www.w3.org/2000/svg" width="30" height="30" viewBox="0 0 30 30" xml:space="preserve" preserveAspectRatio="none" fill="{{shape_color}}" class="cp-target">
<title>shopping_bag</title>
<path d="M29.414 23.571l0.586 5.24c0.033 0.301-0.067 0.603-0.268 0.837-0.201 0.218-0.502 0.352-0.804 0.352h-27.857c-0.301 0-0.603-0.134-0.804-0.352-0.201-0.234-0.301-0.536-0.268-0.837l0.586-5.24h28.828zM27.857 9.526l1.44 12.974h-28.594l1.44-12.974c0.067-0.536 0.519-0.954 1.071-0.954h4.286v2.143c0 1.189 0.954 2.143 2.143 2.143s2.143-0.954 2.143-2.143v-2.143h6.429v2.143c0 1.189 0.954 2.143 2.143 2.143s2.143-0.954 2.143-2.143v-2.143h4.286c0.552 0 1.004 0.419 1.071 0.954zM21.429 6.429v4.286c0 0.586-0.485 1.071-1.071 1.071s-1.071-0.485-1.071-1.071v-4.286c0-2.36-1.925-4.286-4.286-4.286s-4.286 1.925-4.286 4.286v4.286c0 0.586-0.485 1.071-1.071 1.071s-1.071-0.485-1.071-1.071v-4.286c0-3.549 2.879-6.429 6.429-6.429s6.429 2.879 6.429 6.429z"></path>
</svg>
