<!-- Generated by IcoMoon.io -->
<svg version="1.1" xmlns="http://www.w3.org/2000/svg" width="35" height="30" viewBox="0 0 35 30" xml:space="preserve" preserveAspectRatio="none" fill="{{shape_color}}" class="cp-target">
<title>shopping_cart</title>
<path d="M13.599 27.239c0 1.487-1.232 2.72-2.72 2.72s-2.72-1.232-2.72-2.72 1.232-2.72 2.72-2.72 2.72 1.232 2.72 2.72zM32.637 27.239c0 1.487-1.232 2.72-2.72 2.72s-2.72-1.232-2.72-2.72 1.232-2.72 2.72-2.72 2.72 1.232 2.72 2.72zM35.357 4.121v10.879c0 0.68-0.531 1.275-1.211 1.36l-22.184 2.592c0.106 0.489 0.276 0.977 0.276 1.487 0 0.489-0.297 0.935-0.51 1.36h19.549c0.744 0 1.36 0.616 1.36 1.36s-0.616 1.36-1.36 1.36h-21.759c-0.744 0-1.36-0.616-1.36-1.36 0-0.659 0.956-2.252 1.296-2.911l-3.761-17.488h-4.335c-0.744 0-1.36-0.616-1.36-1.36s0.616-1.36 1.36-1.36h5.44c1.424 0 1.466 1.7 1.679 2.72h25.52c0.744 0 1.36 0.616 1.36 1.36z"></path>
</svg>
