<svg version="1.1" id="Capa_1" xmlns="http://www.w3.org/2000/svg" xmlns:xlink="http://www.w3.org/1999/xlink" x="0px" y="0px"
	 width="17.582px" height="36px" viewBox="99.876 0 17.582 36" enable-background="new 99.876 0 17.582 36" xml:space="preserve" class="cp-target" fill="{{shape_color}}"> 
<g>
	<path d="M102.388,0c-0.657,0-1.312,0.271-1.776,0.735s-0.735,1.119-0.735,1.776v30.977
		c0,0.658,0.27,1.312,0.735,1.776S101.73,36,102.388,36h12.559c0.657,0,1.311-0.271,1.776-0.735
		c0.465-0.465,0.735-1.118,0.735-1.776V2.512c0-0.658-0.271-1.312-0.735-1.776S115.604,0,114.946,0H102.388z M107.352,1.674
		c0.006,0,0.012,0,0.018,0c0.014,0,0.027,0,0.042,0h2.512c0.23-0.003,0.422,0.182,0.424,0.413c0.004,0.231-0.181,0.421-0.412,0.425
		c-0.004,0-0.008,0-0.012,0h-2.512c-0.231,0.016-0.432-0.158-0.448-0.389C106.946,1.892,107.12,1.691,107.352,1.674L107.352,1.674z
		 M100.713,4.186h15.907v27.209h-15.907V4.186z M108.667,32.232c0.693,0,1.256,0.563,1.256,1.256s-0.563,1.256-1.256,1.256
		s-1.256-0.563-1.256-1.256S107.974,32.232,108.667,32.232z"/>
</g>
</svg>
