<!-- Generated by IcoMoon.io -->
<svg version="1.1" xmlns="http://www.w3.org/2000/svg" width="32" height="30" viewBox="0 0 32 30" xml:space="preserve" preserveAspectRatio="none" fill="{{shape_color}}" class="cp-target">
<title>snapchat_ghost</title>
<path d="M16.384 0.039c3.511-0.039 6.417 1.931 7.88 5.091 0.449 0.956 0.527 2.438 0.527 3.492 0 1.248-0.098 2.477-0.176 3.726 0.156 0.078 0.371 0.137 0.546 0.137 0.702 0 1.287-0.527 1.99-0.527 0.663 0 1.619 0.468 1.619 1.248 0 1.873-3.921 1.521-3.921 3.16 0 0.293 0.117 0.566 0.234 0.839 0.936 2.048 2.711 4.018 4.818 4.896 0.507 0.215 1.014 0.332 1.56 0.449 0.351 0.078 0.546 0.332 0.546 0.683 0 1.326-3.375 1.873-4.272 2.009-0.39 0.605-0.098 2.029-1.131 2.029-0.8 0-1.599-0.254-2.458-0.254-0.41 0-0.819 0.020-1.209 0.098-2.321 0.39-3.101 2.887-6.905 2.887-3.667 0-4.545-2.497-6.808-2.887-0.41-0.078-0.819-0.098-1.229-0.098-0.878 0-1.717 0.293-2.419 0.293-1.092 0-0.761-1.443-1.17-2.068-0.897-0.137-4.272-0.683-4.272-2.009 0-0.351 0.195-0.605 0.546-0.683 0.546-0.117 1.053-0.234 1.56-0.449 2.087-0.858 3.901-2.848 4.818-4.896 0.117-0.273 0.234-0.546 0.234-0.839 0-1.639-3.94-1.326-3.94-3.14 0-0.761 0.897-1.248 1.58-1.248 0.605 0 1.209 0.507 1.97 0.507 0.215 0 0.429-0.039 0.624-0.137-0.078-1.229-0.176-2.458-0.176-3.706 0-1.053 0.078-2.555 0.527-3.511 1.717-3.706 4.623-5.052 8.505-5.091z"></path>
</svg>
