<!-- Generated by IcoMoon.io -->
<svg version="1.1" xmlns="http://www.w3.org/2000/svg" width="30" height="30" viewBox="0 0 30 30" xml:space="preserve" preserveAspectRatio="none" fill="{{shape_color}}" class="cp-target">
<title>snapchat_square</title>
<path d="M25 19.922c0-0.273-0.156-0.469-0.43-0.527-1.777-0.371-3.125-1.621-3.867-3.262-0.078-0.156-0.137-0.313-0.137-0.488 0-0.879 2.422-0.703 2.422-1.953 0-0.527-0.645-0.859-1.113-0.859-0.43 0-0.781 0.313-1.23 0.313-0.078 0-0.156-0.020-0.234-0.039 0.059-0.742 0.098-1.504 0.098-2.246 0-0.664-0.039-1.602-0.332-2.227-0.938-2.031-2.734-3.223-4.98-3.223-2.441 0-4.297 0.918-5.371 3.223-0.293 0.625-0.352 1.562-0.352 2.246 0 0.742 0.059 1.484 0.117 2.227-0.098 0.020-0.195 0.039-0.293 0.039-0.43 0-0.801-0.313-1.211-0.313-0.488 0-1.074 0.332-1.074 0.879 0 1.211 2.422 1.055 2.422 1.934 0 0.176-0.059 0.332-0.137 0.488-0.762 1.641-2.070 2.871-3.867 3.262-0.273 0.059-0.43 0.254-0.43 0.527 0 0.918 2.070 1.25 2.695 1.348 0.176 0.469 0.098 1.289 0.781 1.289 0.508 0 0.996-0.195 1.504-0.195 2.070 0 2.617 1.855 5 1.855 2.48 0 2.949-1.855 5.039-1.855 0.508 0 1.016 0.176 1.523 0.176 0.664 0 0.605-0.82 0.762-1.27 0.625-0.098 2.695-0.43 2.695-1.348zM30 5.625v18.75c0 3.105-2.52 5.625-5.625 5.625h-18.75c-3.105 0-5.625-2.52-5.625-5.625v-18.75c0-3.105 2.52-5.625 5.625-5.625h18.75c3.105 0 5.625 2.52 5.625 5.625z"></path>
</svg>
