<svg version="1.1" id="Layer_1" xmlns="http://www.w3.org/2000/svg" xmlns:xlink="http://www.w3.org/1999/xlink" x="0px" y="0px" width="30" height="30" viewBox="1.495 1.633 95.79 95.4" enable-background="new 1.495 1.633 95.79 95.4" xml:space="preserve" preserveAspectRatio="none" fill="{{shape_color}}" class="cp-target">
<g id="thought-green_2_">
	<g>
		<path d="M1.495,93.662c0,1.865,1.508,3.371,3.367,3.371c1.861,0,3.374-1.506,3.374-3.371c0-1.857-1.513-3.363-3.374-3.363
			C3.002,90.298,1.495,91.803,1.495,93.662z"/>
	</g>
	<g>
		<path d="M9.653,86.661c0,2.333,1.886,4.209,4.215,4.209c2.325,0,4.21-1.876,4.21-4.209c0-2.325-1.886-4.22-4.21-4.22
			C11.539,82.441,9.653,84.335,9.653,86.661z"/>
	</g>
	<g>
		<path d="M16.052,63.671c-3.894-3.095-6.398-7.854-6.398-13.212c0-4.173,1.526-7.993,4.037-10.934
			c-1.481-2.168-2.35-4.784-2.35-7.603c0-6.378,4.434-11.719,10.386-13.121c1.418-7.87,8.295-13.841,16.575-13.841
			c2.371,0,4.627,0.487,6.671,1.376c3.729-2.944,8.437-4.703,13.556-4.703c8.85,0,16.471,5.253,19.928,12.814
			c0.097-0.001,0.197-0.004,0.289-0.004c9.312,0,16.853,7.541,16.853,16.849c0,3.895-1.325,7.482-3.546,10.338
			c3.223,3.066,5.232,7.401,5.232,12.199c0,8.696-6.586,15.846-15.035,16.755c-3.047,7.305-10.26,12.441-18.668,12.441
			c-4.573,0-8.789-1.521-12.18-4.075c-3.248,2.222-7.178,3.522-11.412,3.522c-5.418,0-10.335-2.133-13.966-5.601
			c-1.539,1.711-3.771,2.784-6.26,2.784c-4.651,0-8.423-3.773-8.423-8.432C11.341,67.92,13.26,65.042,16.052,63.671z"/>
	</g>
</g>
</svg>
