<svg version="1.1" id="Layer_1" xmlns="http://www.w3.org/2000/svg" xmlns:xlink="http://www.w3.org/1999/xlink" x="0px" y="0px" width="30" height="30" viewBox="0 0 100 87.58" enable-background="new 0 0 100 87.58" xml:space="preserve" preserveAspectRatio="none" fill="{{shape_color}}" class="cp-target">
<g>
	<g>
		<path d="M88.544,0H69.206H63.23h-5.219h-0.438H11.457C5.139,0,0,5.556,0,12.381v26.43v5.633v2.019v13.373
			c0,6.826,5.139,12.381,11.457,12.381h53.814l12.918,14.5c0.502,0.563,1.185,0.863,1.881,0.863c0.328,0,0.658-0.064,0.975-0.203
			c0.987-0.432,1.632-1.467,1.632-2.613V72.217h5.867c6.315,0,11.456-5.555,11.456-12.381V12.381C100,5.556,94.859,0,88.544,0z"/>
	</g>
</g>
</svg>
