<!-- Generated by IcoMoon.io -->
<svg version="1.1" xmlns="http://www.w3.org/2000/svg" width="32" height="30" viewBox="0 0 32 30" xml:space="preserve" preserveAspectRatio="none" fill="{{shape_color}}" class="cp-target">
<title>star_half_empty</title>
<path d="M22.763 17.486l4.858-4.726-7.977-1.172-0.567-1.134-3.006-6.087v18.204l1.115 0.586 6.011 3.176-1.134-6.711-0.227-1.248zM31.308 12.533l-6.862 6.692 1.626 9.452c0.132 0.832-0.17 1.323-0.756 1.323-0.208 0-0.473-0.076-0.756-0.227l-8.488-4.461-8.488 4.461c-0.284 0.151-0.548 0.227-0.756 0.227-0.586 0-0.888-0.491-0.756-1.323l1.626-9.452-6.881-6.692c-0.813-0.813-0.548-1.607 0.586-1.777l9.49-1.38 4.253-8.601c0.246-0.51 0.586-0.775 0.926-0.775v0c0.34 0 0.662 0.265 0.926 0.775l4.253 8.601 9.49 1.38c1.134 0.17 1.399 0.964 0.567 1.777z"></path>
</svg>
