<!-- Generated by IcoMoon.io -->
<svg version="1.1" xmlns="http://www.w3.org/2000/svg" width="31" height="30" viewBox="0 0 31 30" xml:space="preserve" preserveAspectRatio="none" fill="{{shape_color}}" class="cp-target">
<title>star_o</title>
<path d="M21.231 18.333l5.714-5.546-7.88-1.158-3.529-7.133-3.529 7.133-7.88 1.158 5.714 5.546-1.363 7.861 7.058-3.716 7.040 3.716zM31.072 11.667c0 0.336-0.243 0.654-0.485 0.896l-6.778 6.61 1.606 9.336c0.019 0.131 0.019 0.243 0.019 0.373 0 0.504-0.224 0.934-0.766 0.934-0.261 0-0.523-0.093-0.747-0.224l-8.384-4.407-8.384 4.407c-0.243 0.131-0.485 0.224-0.747 0.224-0.541 0-0.784-0.448-0.784-0.934 0-0.131 0.019-0.243 0.037-0.373l1.606-9.336-6.797-6.61c-0.224-0.243-0.467-0.56-0.467-0.896 0-0.56 0.579-0.784 1.046-0.859l9.374-1.363 4.201-8.496c0.168-0.355 0.485-0.766 0.915-0.766s0.747 0.411 0.915 0.766l4.201 8.496 9.374 1.363c0.448 0.075 1.046 0.299 1.046 0.859z"></path>
</svg>
