<!-- Generated by IcoMoon.io -->
<svg version="1.1" xmlns="http://www.w3.org/2000/svg" width="30" height="30" viewBox="0 0 30 30" xml:space="preserve" preserveAspectRatio="none" fill="{{shape_color}}" class="cp-target">
<title>tag</title>
<path d="M8.767 6.438c0-1.389-1.115-2.505-2.505-2.505s-2.505 1.115-2.505 2.505 1.115 2.505 2.505 2.505 2.505-1.115 2.505-2.505zM29.649 17.71c0 0.665-0.274 1.311-0.724 1.761l-9.609 9.629c-0.47 0.45-1.115 0.724-1.781 0.724s-1.311-0.274-1.761-0.724l-13.993-14.012c-0.998-0.979-1.781-2.877-1.781-4.266v-8.141c0-1.37 1.135-2.505 2.505-2.505h8.141c1.389 0 3.288 0.783 4.286 1.781l13.993 13.973c0.45 0.47 0.724 1.115 0.724 1.781z"></path>
</svg>
