<svg version="1.1" id="Layer_1" xmlns="http://www.w3.org/2000/svg" xmlns:xlink="http://www.w3.org/1999/xlink" x="0px" y="0px" width="30" height="30" viewBox="0 0 96 88.348" enable-background="new 0 0 96 88.348" xml:space="preserve" preserveAspectRatio="none" fill="{{shape_color}}" class="cp-target">
<g>
	<g>
		<path d="M95.564,62.953L69.201,16.416c-0.76-1.088-2.439-2.251-3.727-2.606L36.977,6.169c-1.312-0.336-2.642,0.424-2.991,1.734
			l-0.711,2.605c-1.802-0.993-3.686-2.016-5.699-2.988C18.15,2.961,8.854,0,3.9,0C2.12,0,0.892,0.403,0.358,1.183
			C0.098,1.519-0.14,2.11,0.098,2.962c0.882,3.469,9.197,9.638,20.27,15c3.335,1.64,6.665,3.038,9.795,4.201l-3.795,14.24
			c-0.357,1.274-0.188,3.32,0.374,4.555l27.129,46.09c0.572,1.228,1.969,1.647,3.133,0.992l37.877-21.89
			C96.041,65.494,96.352,64.049,95.564,62.953L95.564,62.953z M43.736,21.328c0.546-0.309,1.172-0.45,1.754-0.59
			c0.673,0.786,1.142,1.519,1.284,2.062c0.094,0.355,0.073,0.646-0.085,0.854c-0.339,0.478-1.283,0.739-2.672,0.739
			c-0.777,0-1.704-0.122-2.701-0.262C41.846,23.016,42.576,21.993,43.736,21.328L43.736,21.328z M20.845,16.968
			C8.806,11.148,1.857,5.383,1.146,2.68C1.073,2.325,1.098,2.035,1.259,1.82C1.596,1.35,2.542,1.115,3.92,1.115
			c4.791,0,13.904,2.889,23.185,7.398c2.127,1.048,4.076,2.07,5.887,3.083l-2.54,9.495C27.388,19.951,24.143,18.545,20.845,16.968
			L20.845,16.968z M49.814,31.846c-2.917,1.68-6.631,0.684-8.31-2.233c-0.805-1.405-0.973-2.99-0.618-4.44
			c1.162,0.196,2.261,0.307,3.131,0.307c1.809,0,2.989-0.4,3.563-1.181c0.235-0.335,0.477-0.928,0.265-1.781
			c-0.143-0.571-0.547-1.209-1.07-1.901c2.091,0,4.135,1.001,5.25,2.923C53.703,26.456,52.709,30.185,49.814,31.846L49.814,31.846z"
			/>
	</g>
</g>
</svg>
