<svg version="1.1" id="cp_shape-3-content" xmlns="http://www.w3.org/2000/svg" xmlns:xlink="http://www.w3.org/1999/xlink" x="0px" y="0px" width="30" height="30" viewBox="0 0 82 96.248" enable-background="new 0 0 82 96.248" xml:space="preserve" preserveAspectRatio="none" fill="{{shape_color}}" class="cp-target">
<g>
	<g>
		<path d="M40.999,2.274c21.353,0,38.724,17.373,38.724,38.727c0,18.068-12.799,33.977-30.436,37.823l-0.98,0.216l-0.502,0.871
			l-6.806,11.785l-6.807-11.785l-0.503-0.871l-0.983-0.216C15.073,74.976,2.275,59.069,2.275,41.001
			C2.275,19.647,19.646,2.274,40.999,2.274 M40.999,0C18.354,0,0,18.356,0,41.001c0,19.628,13.797,36.027,32.221,40.048
			l8.778,15.199l8.772-15.199C68.198,77.028,82,60.629,82,41.001C82,18.356,63.641,0,40.999,0L40.999,0z"/>
		<path d="M74.896,41.177c0,18.721-15.18,33.896-33.896,33.896c-18.722,0-33.896-15.175-33.896-33.896
			C7.104,22.454,22.279,7.28,41,7.28C59.717,7.279,74.896,22.454,74.896,41.177z"/>
	</g>
</g>
</svg>
