<!-- Generated by IcoMoon.io -->
<svg version="1.1" xmlns="http://www.w3.org/2000/svg" width="38" height="30" viewBox="0 0 38 30" xml:space="preserve" preserveAspectRatio="none" fill="{{shape_color}}" class="cp-target">
<title>tags</title>
<path d="M9.179 6.337c0-1.406-1.129-2.535-2.535-2.535s-2.535 1.129-2.535 2.535 1.129 2.535 2.535 2.535 2.535-1.129 2.535-2.535zM30.308 17.743c0 0.673-0.277 1.327-0.733 1.782l-9.723 9.743c-0.475 0.455-1.129 0.733-1.802 0.733s-1.327-0.277-1.782-0.733l-14.158-14.178c-1.010-0.99-1.802-2.911-1.802-4.317v-8.238c0-1.386 1.148-2.535 2.535-2.535h8.238c1.406 0 3.327 0.792 4.337 1.802l14.158 14.139c0.455 0.475 0.733 1.129 0.733 1.802zM37.912 17.743c0 0.673-0.277 1.327-0.733 1.782l-9.723 9.743c-0.475 0.455-1.129 0.733-1.802 0.733-1.030 0-1.545-0.475-2.218-1.168l9.307-9.307c0.455-0.455 0.733-1.109 0.733-1.782s-0.277-1.327-0.733-1.802l-14.158-14.139c-1.010-1.010-2.931-1.802-4.337-1.802h4.436c1.406 0 3.327 0.792 4.337 1.802l14.158 14.139c0.455 0.475 0.733 1.129 0.733 1.802z"></path>
</svg>
