<!-- Generated by IcoMoon.io -->
<svg version="1.1" xmlns="http://www.w3.org/2000/svg" width="28" height="30" viewBox="0 0 28 30" xml:space="preserve" preserveAspectRatio="none" fill="{{shape_color}}" class="cp-target">
<title>thumbs_o_up</title>
<path d="M4.698 24.231c0-0.631-0.523-1.154-1.154-1.154s-1.154 0.523-1.154 1.154 0.523 1.154 1.154 1.154 1.154-0.523 1.154-1.154zM25.467 13.846c0-1.226-1.1-2.308-2.308-2.308h-6.346c0-2.109 1.731-3.642 1.731-5.769 0-2.109-0.415-3.462-2.885-3.462-1.154 1.172-0.559 3.93-2.308 5.769-0.505 0.523-0.938 1.082-1.388 1.641-0.811 1.046-2.957 4.129-4.381 4.129h-0.577v11.538h0.577c1.010 0 2.668 0.649 3.642 0.992 1.983 0.685 4.038 1.316 6.166 1.316h2.182c2.037 0 3.462-0.811 3.462-3.011 0-0.343-0.036-0.685-0.090-1.010 0.757-0.415 1.172-1.442 1.172-2.272 0-0.433-0.108-0.865-0.325-1.244 0.613-0.577 0.956-1.298 0.956-2.145 0-0.577-0.252-1.424-0.631-1.857 0.847-0.018 1.352-1.641 1.352-2.308zM27.775 13.828c0 1.046-0.306 2.073-0.883 2.939 0.108 0.397 0.162 0.829 0.162 1.244 0 0.901-0.234 1.803-0.685 2.596 0.036 0.252 0.054 0.523 0.054 0.775 0 1.154-0.379 2.308-1.082 3.209 0.036 3.407-2.29 5.409-5.625 5.409h-2.326c-2.56 0-4.94-0.757-7.32-1.587-0.523-0.18-1.983-0.721-2.488-0.721h-5.192c-1.28 0-2.308-1.028-2.308-2.308v-11.538c0-1.28 1.028-2.308 2.308-2.308h4.94c0.703-0.469 1.929-2.091 2.47-2.794 0.613-0.793 1.244-1.568 1.929-2.308 1.082-1.154 0.505-4.002 2.308-5.769 0.433-0.415 1.010-0.667 1.623-0.667 1.875 0 3.678 0.667 4.561 2.416 0.559 1.1 0.631 2.145 0.631 3.353 0 1.262-0.325 2.344-0.865 3.462h3.173c2.488 0 4.615 2.109 4.615 4.597z"></path>
</svg>
