<!-- Generated by IcoMoon.io -->
<svg version="1.1" xmlns="http://www.w3.org/2000/svg" width="31" height="30" viewBox="0 0 31 30" xml:space="preserve" preserveAspectRatio="none" fill="{{shape_color}}" class="cp-target">
<title>thumbs_up</title>
<path d="M4.971 23.7c0-0.68-0.563-1.243-1.243-1.243-0.699 0-1.243 0.563-1.243 1.243 0 0.699 0.544 1.243 1.243 1.243 0.68 0 1.243-0.544 1.243-1.243zM8.078 13.757v12.429c0 0.68-0.563 1.243-1.243 1.243h-5.593c-0.68 0-1.243-0.563-1.243-1.243v-12.429c0-0.68 0.563-1.243 1.243-1.243h5.593c0.68 0 1.243 0.563 1.243 1.243zM31.071 13.757c0 1.029-0.408 2.136-1.068 2.894 0.214 0.621 0.291 1.204 0.291 1.476 0.039 0.971-0.252 1.884-0.835 2.661 0.214 0.719 0.214 1.495 0 2.272-0.194 0.719-0.563 1.359-1.049 1.825 0.117 1.456-0.214 2.641-0.952 3.515-0.835 0.99-2.117 1.495-3.826 1.515h-2.505c-2.777 0-5.399-0.913-7.496-1.631-1.223-0.427-2.389-0.835-3.068-0.854-0.66-0.019-1.243-0.563-1.243-1.243v-12.448c0-0.641 0.544-1.185 1.185-1.243 0.719-0.058 2.583-2.369 3.437-3.496 0.699-0.893 1.359-1.728 1.961-2.33 0.757-0.757 0.971-1.923 1.204-3.049 0.214-1.146 0.447-2.35 1.282-3.165 0.233-0.233 0.544-0.369 0.874-0.369 4.35 0 4.35 3.476 4.35 4.971 0 1.592-0.563 2.719-1.088 3.729-0.214 0.427-0.408 0.621-0.563 1.243h5.379c2.020 0 3.729 1.709 3.729 3.729z"></path>
</svg>
