<!-- Generated by IcoMoon.io -->
<svg version="1.1" xmlns="http://www.w3.org/2000/svg" width="28" height="30" viewBox="0 0 28 30" xml:space="preserve" preserveAspectRatio="none" fill="{{shape_color}}" class="cp-target">
<title>thumbs_o_down</title>
<path d="M4.698 5.769c0-0.631-0.523-1.154-1.154-1.154s-1.154 0.523-1.154 1.154 0.523 1.154 1.154 1.154 1.154-0.523 1.154-1.154zM25.467 16.154c0-0.667-0.505-2.29-1.352-2.308 0.379-0.433 0.631-1.28 0.631-1.857 0-0.847-0.343-1.568-0.956-2.145 0.216-0.379 0.325-0.811 0.325-1.244 0-0.829-0.415-1.857-1.172-2.272 0.054-0.325 0.090-0.667 0.090-1.010 0-2.109-1.334-3.011-3.335-3.011h-2.308c-2.127 0-4.183 0.631-6.166 1.316-0.974 0.343-2.632 0.992-3.642 0.992h-0.577v11.538h0.577c1.424 0 3.57 3.083 4.381 4.129 0.451 0.559 0.883 1.118 1.388 1.641 1.749 1.839 1.154 4.597 2.308 5.769 2.47 0 2.885-1.352 2.885-3.462 0-2.127-1.731-3.66-1.731-5.769h6.346c1.208 0 2.308-1.082 2.308-2.308zM27.775 16.172c0 2.488-2.127 4.597-4.615 4.597h-3.173c0.541 1.118 0.865 2.2 0.865 3.462 0 1.19-0.072 2.272-0.631 3.353-0.883 1.749-2.686 2.416-4.561 2.416-0.613 0-1.19-0.252-1.623-0.667-1.803-1.767-1.244-4.615-2.308-5.787-0.685-0.721-1.316-1.496-1.929-2.29-0.541-0.703-1.767-2.326-2.47-2.794h-4.94c-1.28 0-2.308-1.028-2.308-2.308v-11.538c0-1.28 1.028-2.308 2.308-2.308h5.192c0.505 0 1.965-0.541 2.488-0.721 2.596-0.901 4.85-1.587 7.626-1.587h2.019c3.281 0 5.643 1.947 5.625 5.318v0.090c0.703 0.901 1.082 2.055 1.082 3.209 0 0.252-0.018 0.523-0.054 0.775 0.451 0.793 0.685 1.695 0.685 2.596 0 0.415-0.054 0.847-0.162 1.244 0.577 0.865 0.883 1.893 0.883 2.939z"></path>
</svg>
