<!-- Generated by IcoMoon.io -->
<svg version="1.1" xmlns="http://www.w3.org/2000/svg" width="20" height="30" viewBox="0 0 20 30" xml:space="preserve" preserveAspectRatio="none" fill="{{shape_color}}" class="cp-target">
<title>thumb_tack</title>
<path d="M8.482 13.304v-7.917c0-0.318-0.247-0.565-0.565-0.565s-0.565 0.247-0.565 0.565v7.917c0 0.318 0.247 0.565 0.565 0.565s0.565-0.247 0.565-0.565zM20.357 19.524c0 0.618-0.512 1.131-1.131 1.131h-7.581l-0.901 8.535c-0.035 0.283-0.265 0.512-0.548 0.512h-0.018c-0.283 0-0.512-0.194-0.565-0.477l-1.343-8.571h-7.139c-0.618 0-1.131-0.512-1.131-1.131 0-2.898 2.191-5.655 4.524-5.655v-9.048c-1.237 0-2.262-1.025-2.262-2.262s1.025-2.262 2.262-2.262h11.31c1.237 0 2.262 1.025 2.262 2.262s-1.025 2.262-2.262 2.262v9.048c2.333 0 4.524 2.757 4.524 5.655z"></path>
</svg>
