<!-- Generated by IcoMoon.io -->
<svg version="1.1" xmlns="http://www.w3.org/2000/svg" width="31" height="30" viewBox="0 0 31 30" xml:space="preserve" preserveAspectRatio="none" fill="{{shape_color}}" class="cp-target">
<title>thumbs_down</title>
<path d="M4.971 6.3c0 0.68-0.563 1.243-1.243 1.243-0.699 0-1.243-0.563-1.243-1.243 0-0.699 0.544-1.243 1.243-1.243 0.68 0 1.243 0.544 1.243 1.243zM8.079 16.243v-12.429c0-0.68-0.563-1.243-1.243-1.243h-5.593c-0.68 0-1.243 0.563-1.243 1.243v12.429c0 0.68 0.563 1.243 1.243 1.243h5.593c0.68 0 1.243-0.563 1.243-1.243zM30.003 13.349c0.66 0.738 1.068 1.864 1.068 2.894-0.019 2.020-1.709 3.729-3.729 3.729h-5.379c0.155 0.621 0.35 0.816 0.563 1.243 0.505 1.010 1.088 2.136 1.088 3.729 0 1.495 0 4.971-4.35 4.971-0.33 0-0.641-0.136-0.874-0.369-0.835-0.816-1.068-2.020-1.282-3.165-0.233-1.126-0.447-2.292-1.204-3.049-0.602-0.602-1.262-1.437-1.961-2.33-0.854-1.126-2.719-3.437-3.437-3.496-0.641-0.058-1.185-0.602-1.185-1.243v-12.448c0-0.68 0.583-1.223 1.243-1.243 0.68-0.019 1.845-0.427 3.068-0.854 2.097-0.719 4.719-1.631 7.496-1.631h2.505c1.709 0.019 2.991 0.524 3.826 1.515 0.738 0.874 1.068 2.058 0.952 3.515 0.486 0.466 0.854 1.107 1.049 1.825 0.214 0.777 0.214 1.554 0 2.272 0.583 0.777 0.874 1.69 0.835 2.661 0 0.272-0.078 0.854-0.291 1.476z"></path>
</svg>
