<!-- Generated by IcoMoon.io -->
<svg version="1.1" xmlns="http://www.w3.org/2000/svg" width="30" height="30" viewBox="0 0 30 30" xml:space="preserve" preserveAspectRatio="none" fill="{{shape_color}}" class="cp-target">
<title>times_circle_o</title>
<path d="M21.426 18.574l-2.852 2.852c-0.254 0.254-0.645 0.254-0.898 0l-2.676-2.676-2.676 2.676c-0.254 0.254-0.645 0.254-0.898 0l-2.852-2.852c-0.254-0.254-0.254-0.645 0-0.898l2.676-2.676-2.676-2.676c-0.254-0.254-0.254-0.645 0-0.898l2.852-2.852c0.254-0.254 0.645-0.254 0.898 0l2.676 2.676 2.676-2.676c0.254-0.254 0.645-0.254 0.898 0l2.852 2.852c0.254 0.254 0.254 0.645 0 0.898l-2.676 2.676 2.676 2.676c0.254 0.254 0.254 0.645 0 0.898zM25.625 15c0-5.859-4.766-10.625-10.625-10.625s-10.625 4.766-10.625 10.625 4.766 10.625 10.625 10.625 10.625-4.766 10.625-10.625zM30 15c0 8.281-6.719 15-15 15s-15-6.719-15-15 6.719-15 15-15 15 6.719 15 15z"></path>
</svg>
