<!-- Generated by IcoMoon.io -->
<svg version="1.1" xmlns="http://www.w3.org/2000/svg" width="35" height="30" viewBox="0 0 35 30" xml:space="preserve" preserveAspectRatio="none" fill="{{shape_color}}" class="cp-target">
<title>times_rectangle_o</title>
<path d="M24.729 19.199l-2.852 2.852c-0.254 0.254-0.645 0.254-0.898 0l-3.301-3.301-3.301 3.301c-0.254 0.254-0.645 0.254-0.898 0l-2.852-2.852c-0.254-0.254-0.254-0.645 0-0.898l3.301-3.301-3.301-3.301c-0.254-0.254-0.254-0.645 0-0.898l2.852-2.852c0.254-0.254 0.645-0.254 0.898 0l3.301 3.301 3.301-3.301c0.254-0.254 0.645-0.254 0.898 0l2.852 2.852c0.254 0.254 0.254 0.645 0 0.898l-3.301 3.301 3.301 3.301c0.254 0.254 0.254 0.645 0 0.898zM5.179 25h25v-20h-25v20zM35.179 3.125v23.75c0 1.719-1.406 3.125-3.125 3.125h-28.75c-1.719 0-3.125-1.406-3.125-3.125v-23.75c0-1.719 1.406-3.125 3.125-3.125h28.75c1.719 0 3.125 1.406 3.125 3.125z"></path>
</svg>
