<!-- Generated by IcoMoon.io -->
<svg version="1.1" xmlns="http://www.w3.org/2000/svg" width="35" height="30" viewBox="0 0 35 30" xml:space="preserve" preserveAspectRatio="none" fill="{{shape_color}}" class="cp-target">
<title>times_rectangle</title>
<path d="M23.128 23.301l2.852-2.852c0.254-0.254 0.254-0.645 0-0.898l-4.551-4.551 4.551-4.551c0.254-0.254 0.254-0.645 0-0.898l-2.852-2.852c-0.254-0.254-0.645-0.254-0.898 0l-4.551 4.551-4.551-4.551c-0.254-0.254-0.645-0.254-0.898 0l-2.852 2.852c-0.254 0.254-0.254 0.645 0 0.898l4.551 4.551-4.551 4.551c-0.254 0.254-0.254 0.645 0 0.898l2.852 2.852c0.254 0.254 0.645 0.254 0.898 0l4.551-4.551 4.551 4.551c0.254 0.254 0.645 0.254 0.898 0zM35.179 3.125v23.75c0 1.719-1.406 3.125-3.125 3.125h-28.75c-1.719 0-3.125-1.406-3.125-3.125v-23.75c0-1.719 1.406-3.125 3.125-3.125h28.75c1.719 0 3.125 1.406 3.125 3.125z"></path>
</svg>
