<!-- Generated by IcoMoon.io -->
<svg version="1.1" xmlns="http://www.w3.org/2000/svg" width="20" height="30" viewBox="0 0 20 30" xml:space="preserve" preserveAspectRatio="none" fill="{{shape_color}}" class="cp-target">
<title>tint</title>
<path d="M10.179 21.998c0-0.497-0.159-0.974-0.398-1.372-0.258-0.398-1.312-1.749-1.73-3.081-0.060-0.219-0.258-0.318-0.417-0.318s-0.358 0.099-0.417 0.318c-0.417 1.332-1.471 2.684-1.73 3.081-0.239 0.398-0.398 0.875-0.398 1.372 0 1.411 1.133 2.545 2.545 2.545s2.545-1.133 2.545-2.545zM20.357 19.453c0 5.626-4.553 10.179-10.179 10.179s-10.179-4.553-10.179-10.179c0-2.008 0.616-3.877 1.61-5.467 1.014-1.59 5.268-6.978 6.879-12.346 0.258-0.855 1.054-1.272 1.69-1.272s1.451 0.417 1.69 1.272c1.61 5.368 5.865 10.755 6.879 12.346s1.61 3.459 1.61 5.467z"></path>
</svg>
