<!-- Generated by IcoMoon.io -->
<svg version="1.1" xmlns="http://www.w3.org/2000/svg" width="30" height="30" viewBox="0 0 30 30" xml:space="preserve" preserveAspectRatio="none" fill="{{shape_color}}" class="cp-target">
<title>tumblr-square</title>
<path d="M22.188 26.035l-1.211-3.574c-0.469 0.234-1.348 0.43-2.012 0.43-1.992 0.059-2.402-1.387-2.402-2.461v-7.773h5.020v-3.789h-5v-6.367h-3.672c-0.059 0-0.156 0.059-0.176 0.195-0.215 1.934-1.133 5.371-4.922 6.738v3.223h2.539v8.164c0 2.793 2.051 6.777 7.5 6.68 1.836-0.039 3.887-0.801 4.336-1.465zM30 5.625v18.75c0 3.105-2.52 5.625-5.625 5.625h-18.75c-3.105 0-5.625-2.52-5.625-5.625v-18.75c0-3.105 2.52-5.625 5.625-5.625h18.75c3.105 0 5.625 2.52 5.625 5.625z"></path>
</svg>
