<!-- Generated by IcoMoon.io -->
<svg version="1.1" xmlns="http://www.w3.org/2000/svg" width="30" height="30" viewBox="0 0 30 30" xml:space="preserve" preserveAspectRatio="none" fill="{{shape_color}}" class="cp-target">
<title>twitter_square</title>
<path d="M25 9.414c-0.742 0.332-1.523 0.547-2.363 0.664 0.859-0.508 1.504-1.328 1.816-2.285-0.801 0.469-1.68 0.82-2.617 0.996-0.742-0.801-1.816-1.289-2.988-1.289-2.266 0-4.102 1.836-4.102 4.102 0 0.313 0.020 0.645 0.098 0.938-3.418-0.176-6.445-1.797-8.477-4.297-0.352 0.605-0.566 1.328-0.566 2.070 0 1.426 0.664 2.676 1.777 3.418-0.684-0.020-1.328-0.215-1.953-0.508v0.039c0 1.992 1.504 3.652 3.379 4.023-0.352 0.098-0.625 0.156-0.996 0.156-0.254 0-0.508-0.039-0.762-0.078 0.527 1.621 2.031 2.813 3.828 2.852-1.406 1.094-3.164 1.758-5.098 1.758-0.332 0-0.664-0.020-0.977-0.059 1.816 1.152 3.965 1.836 6.289 1.836 7.539 0 11.68-6.25 11.68-11.68 0-0.176 0-0.352-0.020-0.527 0.801-0.566 1.504-1.289 2.051-2.129zM30 5.625v18.75c0 3.105-2.52 5.625-5.625 5.625h-18.75c-3.105 0-5.625-2.52-5.625-5.625v-18.75c0-3.105 2.52-5.625 5.625-5.625h18.75c3.105 0 5.625 2.52 5.625 5.625z"></path>
</svg>
