<!-- Generated by IcoMoon.io -->
<svg version="1.1" xmlns="http://www.w3.org/2000/svg" width="36" height="30" viewBox="0 0 36 30" xml:space="preserve" preserveAspectRatio="none" fill="{{shape_color}}" class="cp-target">
<title>twitter</title>
<path d="M36.428 3.72c-1.017 1.479-2.288 2.797-3.745 3.86 0.023 0.324 0.023 0.647 0.023 0.971 0 9.87-7.512 21.242-21.242 21.242-4.23 0-8.159-1.225-11.465-3.352 0.601 0.069 1.179 0.092 1.803 0.092 3.49 0 6.703-1.179 9.269-3.19-3.282-0.069-6.033-2.219-6.981-5.178 0.462 0.069 0.925 0.116 1.41 0.116 0.67 0 1.341-0.092 1.965-0.254-3.421-0.694-5.987-3.698-5.987-7.327v-0.092c0.994 0.555 2.15 0.901 3.375 0.948-2.011-1.341-3.328-3.629-3.328-6.218 0-1.387 0.37-2.658 1.017-3.768 3.675 4.53 9.2 7.489 15.394 7.813-0.116-0.555-0.185-1.133-0.185-1.71 0-4.114 3.328-7.466 7.466-7.466 2.15 0 4.091 0.901 5.455 2.358 1.687-0.324 3.305-0.948 4.739-1.803-0.555 1.734-1.734 3.19-3.282 4.114 1.502-0.162 2.959-0.578 4.299-1.156z"></path>
</svg>
