<!-- Generated by IcoMoon.io -->
<svg version="1.1" xmlns="http://www.w3.org/2000/svg" width="22" height="30" viewBox="0 0 22 30" xml:space="preserve" preserveAspectRatio="none" fill="{{shape_color}}" class="cp-target">
<title>unlock_alt</title>
<path d="M20.625 15c1.035 0 1.875 0.84 1.875 1.875v11.25c0 1.035-0.84 1.875-1.875 1.875h-18.75c-1.035 0-1.875-0.84-1.875-1.875v-11.25c0-1.035 0.84-1.875 1.875-1.875h0.625v-6.25c0-4.824 3.926-8.75 8.75-8.75s8.75 3.926 8.75 8.75c0 0.684-0.566 1.25-1.25 1.25h-1.25c-0.684 0-1.25-0.566-1.25-1.25 0-2.754-2.246-5-5-5s-5 2.246-5 5v6.25h14.375z"></path>
</svg>
