<!-- Generated by IcoMoon.io -->
<svg version="1.1" xmlns="http://www.w3.org/2000/svg" width="30" height="30" viewBox="0 0 30 30" xml:space="preserve" preserveAspectRatio="none" fill="{{shape_color}}" class="cp-target">
<title>youtube_square</title>
<path d="M17.949 22.949v-3.066c0-0.645-0.195-0.977-0.566-0.977-0.215 0-0.43 0.098-0.645 0.313v4.375c0.215 0.215 0.43 0.313 0.645 0.313 0.371 0 0.566-0.313 0.566-0.957zM21.543 20.566h1.289v-0.664c0-0.664-0.215-0.996-0.645-0.996s-0.645 0.332-0.645 0.996v0.664zM10.391 15.371v1.367h-1.562v8.262h-1.445v-8.262h-1.523v-1.367h4.531zM14.316 17.832v7.168h-1.309v-0.781c-0.508 0.586-0.996 0.879-1.484 0.879-0.41 0-0.703-0.176-0.82-0.547-0.078-0.215-0.117-0.547-0.117-1.055v-5.664h1.289v5.273c0 0.293 0 0.469 0.020 0.508 0.020 0.195 0.117 0.293 0.293 0.293 0.273 0 0.527-0.195 0.82-0.605v-5.469h1.309zM19.238 20v2.852c0 0.645-0.039 1.133-0.137 1.426-0.156 0.547-0.508 0.82-1.035 0.82-0.449 0-0.898-0.273-1.328-0.801v0.703h-1.309v-9.629h1.309v3.145c0.41-0.508 0.859-0.781 1.328-0.781 0.527 0 0.879 0.273 1.035 0.82 0.098 0.293 0.137 0.762 0.137 1.445zM24.141 22.52v0.176c0 0.43-0.020 0.703-0.039 0.84-0.039 0.293-0.137 0.547-0.293 0.781-0.352 0.527-0.898 0.781-1.562 0.781-0.684 0-1.211-0.254-1.582-0.742-0.273-0.352-0.41-0.918-0.41-1.68v-2.52c0-0.762 0.117-1.309 0.391-1.68 0.371-0.488 0.898-0.742 1.562-0.742 0.645 0 1.172 0.254 1.523 0.742 0.273 0.371 0.41 0.918 0.41 1.68v1.484h-2.598v1.27c0 0.664 0.215 0.996 0.664 0.996 0.313 0 0.508-0.176 0.586-0.508 0-0.078 0.020-0.371 0.020-0.879h1.328zM15.332 6.426v3.047c0 0.664-0.215 0.996-0.625 0.996-0.43 0-0.625-0.332-0.625-0.996v-3.047c0-0.664 0.195-1.016 0.625-1.016 0.41 0 0.625 0.352 0.625 1.016zM25.742 20.352v0c0-1.68 0-3.457-0.371-5.078-0.273-1.152-1.211-1.992-2.324-2.109-2.656-0.293-5.352-0.293-8.047-0.293-2.676 0-5.371 0-8.027 0.293-1.133 0.117-2.070 0.957-2.324 2.109-0.371 1.621-0.391 3.398-0.391 5.078v0c0 1.66 0 3.437 0.391 5.078 0.254 1.133 1.191 1.973 2.305 2.109 2.676 0.293 5.371 0.293 8.047 0.293s5.371 0 8.047-0.293c1.113-0.137 2.051-0.977 2.305-2.109 0.391-1.641 0.391-3.418 0.391-5.078zM10.996 7.637l1.758-5.781h-1.465l-0.996 3.809-1.035-3.809h-1.523c0.293 0.898 0.625 1.797 0.918 2.695 0.469 1.367 0.762 2.383 0.898 3.086v3.926h1.445v-3.926zM16.641 9.219v-2.539c0-0.762-0.137-1.328-0.41-1.699-0.371-0.488-0.879-0.742-1.523-0.742-0.664 0-1.172 0.254-1.523 0.742-0.273 0.371-0.41 0.938-0.41 1.699v2.539c0 0.762 0.137 1.328 0.41 1.699 0.352 0.488 0.859 0.742 1.523 0.742 0.645 0 1.152-0.254 1.523-0.742 0.273-0.352 0.41-0.938 0.41-1.699zM20.176 11.563h1.309v-7.227h-1.309v5.527c-0.293 0.41-0.566 0.605-0.82 0.605-0.176 0-0.293-0.098-0.313-0.313-0.020-0.039-0.020-0.195-0.020-0.508v-5.312h-1.309v5.723c0 0.508 0.039 0.84 0.117 1.074 0.137 0.352 0.43 0.527 0.84 0.527 0.488 0 0.977-0.293 1.504-0.879v0.781zM30 5.625v18.75c0 3.105-2.52 5.625-5.625 5.625h-18.75c-3.105 0-5.625-2.52-5.625-5.625v-18.75c0-3.105 2.52-5.625 5.625-5.625h18.75c3.105 0 5.625 2.52 5.625 5.625z"></path>
</svg>
