<!-- Generated by IcoMoon.io -->
<svg version="1.1" xmlns="http://www.w3.org/2000/svg" width="25" height="30" viewBox="0 0 25 30" xml:space="preserve" preserveAspectRatio="none" fill="{{shape_color}}" class="cp-target">
<title>youtube</title>
<path d="M15.697 20.787v3.509c0 0.748-0.216 1.114-0.649 1.114-0.249 0-0.499-0.116-0.748-0.366v-5.005c0.249-0.249 0.499-0.366 0.748-0.366 0.432 0 0.649 0.382 0.649 1.114zM21.317 20.803v0.765h-1.497v-0.765c0-0.748 0.249-1.131 0.748-1.131s0.748 0.382 0.748 1.131zM5.254 17.178h1.779v-1.563h-5.188v1.563h1.746v9.461h1.663v-9.461zM10.043 26.64h1.48v-8.214h-1.48v6.285c-0.333 0.466-0.649 0.698-0.948 0.698-0.2 0-0.316-0.116-0.349-0.349-0.017-0.050-0.017-0.233-0.017-0.582v-6.053h-1.48v6.502c0 0.582 0.050 0.964 0.133 1.214 0.133 0.416 0.482 0.615 0.964 0.615 0.532 0 1.097-0.333 1.696-1.014v0.898zM17.177 24.179v-3.276c0-0.765-0.033-1.314-0.15-1.646-0.183-0.615-0.599-0.931-1.181-0.931-0.549 0-1.064 0.299-1.546 0.898v-3.608h-1.48v11.024h1.48v-0.798c0.499 0.615 1.014 0.915 1.546 0.915 0.582 0 0.998-0.316 1.181-0.915 0.116-0.349 0.15-0.898 0.15-1.663zM22.797 24.012v-0.216h-1.513c0 0.599-0.017 0.931-0.033 1.014-0.083 0.399-0.299 0.599-0.665 0.599-0.515 0-0.765-0.382-0.765-1.147v-1.447h2.976v-1.713c0-0.881-0.15-1.513-0.449-1.929-0.432-0.565-1.014-0.848-1.763-0.848-0.765 0-1.347 0.283-1.779 0.848-0.316 0.416-0.466 1.048-0.466 1.929v2.877c0 0.881 0.166 1.53 0.482 1.929 0.432 0.565 1.014 0.848 1.796 0.848s1.397-0.299 1.796-0.881c0.183-0.266 0.316-0.565 0.349-0.898 0.033-0.15 0.033-0.482 0.033-0.964zM12.687 8.831v-3.492c0-0.765-0.216-1.147-0.715-1.147-0.482 0-0.715 0.382-0.715 1.147v3.492c0 0.765 0.233 1.164 0.715 1.164 0.499 0 0.715-0.399 0.715-1.164zM24.643 21.319c0 1.912-0.017 3.957-0.432 5.82-0.316 1.314-1.38 2.278-2.661 2.411-3.060 0.349-6.152 0.349-9.229 0.349s-6.169 0-9.229-0.349c-1.28-0.133-2.361-1.097-2.661-2.411-0.432-1.862-0.432-3.908-0.432-5.82v0c0-1.929 0.017-3.957 0.432-5.82 0.316-1.314 1.38-2.278 2.677-2.428 3.043-0.333 6.136-0.333 9.212-0.333s6.169 0 9.229 0.333c1.28 0.15 2.361 1.114 2.661 2.428 0.432 1.862 0.432 3.891 0.432 5.82zM8.048 0.101h1.696l-2.012 6.635v4.506h-1.663v-4.506c-0.15-0.815-0.482-1.979-1.014-3.525-0.366-1.031-0.732-2.079-1.081-3.109h1.763l1.181 4.373zM14.2 5.638v2.91c0 0.881-0.15 1.546-0.466 1.962-0.416 0.565-0.998 0.848-1.763 0.848-0.748 0-1.33-0.283-1.746-0.848-0.316-0.432-0.466-1.081-0.466-1.962v-2.91c0-0.881 0.15-1.53 0.466-1.946 0.416-0.565 0.998-0.848 1.746-0.848 0.765 0 1.347 0.283 1.763 0.848 0.316 0.416 0.466 1.064 0.466 1.946zM19.771 2.945v8.297h-1.513v-0.915c-0.599 0.698-1.164 1.031-1.713 1.031-0.482 0-0.831-0.2-0.981-0.615-0.083-0.249-0.133-0.649-0.133-1.247v-6.551h1.513v6.103c0 0.349 0 0.549 0.017 0.582 0.033 0.233 0.15 0.366 0.349 0.366 0.299 0 0.615-0.233 0.948-0.715v-6.335h1.513z"></path>
</svg>
