<?xml version="1.0" encoding="utf-8"?>
<!-- Generator: Adobe Illustrator 16.0.0, SVG Export Plug-In . SVG Version: 6.00 Build 0)  -->
<!DOCTYPE svg PUBLIC "-//W3C//DTD SVG 1.1//EN" "http://www.w3.org/Graphics/SVG/1.1/DTD/svg11.dtd">
<svg version="1.1" id="Layer_1" xmlns="http://www.w3.org/2000/svg" xmlns:xlink="http://www.w3.org/1999/xlink" x="0px" y="0px"
	 width="18px" height="17px" viewBox="0 -1.5 20 19" enable-background="new 0 -1.5 20 19" xml:space="preserve">
<path fill="#FFFFFF" d="M20,17.449c-0.342,0.025-0.708,0.051-1.147,0.051c-2.487,0-3.756-0.914-4.243-1.434
	C12.512,17.375,10.73,17.5,9.536,17.5C3.708,17.5,0,12.73,0,8.088C0,3.294,3.659-1.5,9.488-1.5s9.634,4.67,9.634,9.34
	c0,3.039-1.026,4.572-1.487,5.285c0.562,0.523,1.294,0.619,2.365,0.619V17.449z M9.488,2.602c-2.122,0-3.854,1.285-4.586,3.532
	C4.83,6.382,4.73,6.603,4.707,6.876c0.536-0.172,1.464-0.518,2.659-0.518c1.317,0,2.463,0.27,3.829,1.233
	c1.195,0.84,1.902,1.531,2.828,2.572c0.294-0.57,0.488-1.387,0.488-2.324c0-3.239-2.317-5.238-4.999-5.238H9.488z M9.513,13.398
	c0.731,0,1.464-0.146,1.828-0.371c-0.561-0.742-1.073-1.234-1.536-1.631c-0.926-0.791-1.999-1.086-2.901-1.086
	c-0.781,0-1.318,0.123-1.685,0.271c0.781,1.902,2.782,2.816,4.27,2.816H9.513z"/>
</svg>
